<?xml version="1.0" encoding="UTF-8"?>
<svg version="1.1" xmlns="http://www.w3.org/2000/svg" width="500" height="500">
<path d="M0 0 C13.63761903 7.67680541 21.65020674 16.0264341 29.04785156 29.55151367 C31.73524349 34.42668321 34.26727308 38.44901539 38.9375 41.5625 C41.08209176 41.95280357 41.08209176 41.95280357 43.375 41.9375 C44.51775391 41.98003906 44.51775391 41.98003906 45.68359375 42.0234375 C48.88279834 41.36918075 50.00363398 40.16395896 51.9375 37.5625 C52.55852301 34.59456561 52.55852301 34.59456561 52.5625 31.4375 C52.74305556 25.75694444 52.74305556 25.75694444 54.9375 23.5625 C62.02069802 22.09506455 68.06747432 24.22626143 74.25 27.6171875 C78.68331729 30.82618752 80.58804182 34.72158342 82.9375 39.5625 C84.23532416 42.04104104 85.58328716 44.48945077 86.9375 46.9375 C87.55625 48.10023438 88.175 49.26296875 88.8125 50.4609375 C92.43318464 55.74553972 97.02012528 57.85958799 103 59.75 C104.00160156 60.07355469 105.00320312 60.39710938 106.03515625 60.73046875 C111.60822046 62.32813049 117.14443066 63.4594233 122.9375 62.5625 C127.37170077 59.50782836 128.79620755 55.75160188 130.7890625 50.96875 C134.22381636 43.77212287 139.494473 37.65401907 146.9375 34.5625 C150.58587654 33.5622236 154.18213195 32.98603775 157.9375 32.5625 C159.731875 32.315 159.731875 32.315 161.5625 32.0625 C168.83094484 33.13930664 174.2725163 38.3018626 178.72265625 43.8984375 C182.5781764 49.1796323 184.40034612 53.47149322 184.36328125 60.09375 C183.61092122 64.45605767 181.46734367 68.21867128 179.4453125 72.12109375 C175.61865312 80.85499767 175.51430795 89.62472331 175.4375 99.0625 C175.39625 100.32964844 175.355 101.59679687 175.3125 102.90234375 C175.25379726 109.95401038 175.649339 115.27746138 180.12304688 120.9362793 C185.23698546 125.51969492 192.4446166 124.85526006 198.9375 124.75 C200.07058594 124.7490332 200.07058594 124.7490332 201.2265625 124.74804688 C203.46755674 124.7307196 205.69869693 124.66124872 207.9375 124.5625 C208.97801514 124.52624512 208.97801514 124.52624512 210.03955078 124.48925781 C215.52658078 124.0855475 218.63713262 122.21485528 222.8125 118.9375 C223.42053467 118.48455566 224.02856934 118.03161133 224.6550293 117.56494141 C226.42700639 116.24479156 228.18456312 114.90778925 229.9375 113.5625 C240.75466396 105.26989827 253.74819815 96.75934775 267.90234375 97.734375 C272.41752395 98.96631606 274.64276725 100.99671611 277.3828125 104.73046875 C281.31103971 111.88615902 284.86340839 121.31490756 282.9375 129.5625 C279.33316512 138.03205015 274.09925821 142.93095906 265.703125 146.4765625 C264.20256229 147.05898849 262.69714553 147.62903886 261.1875 148.1875 C260.39545166 148.48672363 259.60340332 148.78594727 258.78735352 149.09423828 C243.78784237 154.67409928 229.74815407 155.74636727 213.86938477 156.03930664 C198.3366052 155.98972857 198.3366052 155.98972857 184.41015625 161.953125 C178.16187096 168.78148983 179.31152384 177.61960134 179.5390625 186.25390625 C180.13244254 196.89973378 185.2769563 202.08576128 192.3671875 209.578125 C199.04858182 217.33585336 204.70046466 227.28291058 205.9375 237.5625 C205.32743711 241.17256289 205.32743711 241.17256289 203.9375 242.5625 C195.06418812 243.59546188 185.21934355 242.23599839 177.76953125 237.0546875 C174.56344344 234.01138119 172.28476376 230.60120462 169.9375 226.875 C167.07599447 222.43890942 164.87231426 220.5194091 159.9375 218.5625 C156.95686427 218.04006385 155.02458608 218.15088852 151.9375 218.5625 C147.69831613 221.92461134 146.21705455 229.23140493 145.59790039 234.39428711 C144.34164738 257.30363812 149.09288025 274.87746907 160.44213867 294.68774414 C164.32285709 301.606436 166.13235691 307.68190072 166.9375 315.5625 C167.04457275 316.41650391 167.15164551 317.27050781 167.26196289 318.15039062 C167.64951213 321.67053015 167.42292301 323.77300583 165.546875 326.82421875 C161.93660372 331.19578636 158.79358011 334.1444621 152.94897461 334.77807617 C150.62872503 334.9035157 148.32351804 334.9337065 146 334.9375 C145.21431641 334.96199219 144.42863281 334.98648437 143.61914062 335.01171875 C138.23134355 335.03877045 135.20987161 334.1217389 130.9375 330.5625 C122.80362203 321.26663947 121.44130221 309.94502213 121 298 C119.94768056 278.92733948 116.42406082 257.51715686 101.9375 243.5625 C96.32284654 240.87391217 90.86631397 241.11956182 84.75 241.0625 C83.66396484 241.02125 82.57792969 240.98 81.45898438 240.9375 C72.40337154 240.8504791 66.51732495 243.22871023 59.93334961 249.45898438 C58.05880835 251.44555197 56.27414797 253.48605918 54.5 255.5625 C47.29607516 263.62697755 40.10775518 269.82358803 28.9140625 270.8359375 C20.02321429 271.10535714 20.02321429 271.10535714 15.4375 268.8125 C10.77583066 263.85327729 8.14021178 256.55249875 7.6875 249.875 C9.93877888 243.90911097 14.17263487 239.32227906 18.6484375 234.859375 C21.85049595 231.00750857 21.53877657 227.18532777 21.3125 222.375 C21.29832031 221.56869141 21.28414063 220.76238281 21.26953125 219.93164062 C21.18418339 216.50919141 21.02909922 213.83729767 19.9375 210.5625 C15.84075304 208.75230948 12.38128314 208.08369044 7.9375 208.5625 C5.43761496 210.06644921 3.27656753 211.52931399 1 213.3125 C-6.50266911 219.02881932 -13.46916032 224.21893121 -23.29296875 224.17578125 C-28.79603899 222.95718883 -32.38965307 218.6155188 -36.0625 214.5625 C-36.81660156 213.73105469 -37.57070312 212.89960938 -38.34765625 212.04296875 C-40.73320886 208.59234026 -40.40001903 206.69104407 -39.7265625 202.703125 C-37.84807014 196.64774964 -31.29773803 193.49726273 -26.0625 190.5625 C-25.18464844 190.07007813 -24.30679688 189.57765625 -23.40234375 189.0703125 C-18.45476861 186.83667039 -13.31302782 185.72553548 -8.05078125 184.45703125 C0.2381776 182.51366833 0.2381776 182.51366833 6.7734375 177.359375 C8.24293841 173.82862786 8.55318151 170.58693284 8.5625 166.8125 C8.56600464 165.75168213 8.56600464 165.75168213 8.56958008 164.66943359 C8.37053736 158.89917873 6.71459774 155.45670677 2.76171875 151.1640625 C-4.94103118 144.40147691 -14.39796409 145.0678584 -24.0625 145.5625 C-26.42147095 145.85993547 -28.77636127 146.19221912 -31.125 146.5625 C-49.60332336 149.42946523 -49.60332336 149.42946523 -56.6875 145.625 C-60.86047739 142.4685171 -62.50080664 138.43662716 -64.0625 133.5625 C-64.39894531 132.58603516 -64.39894531 132.58603516 -64.7421875 131.58984375 C-66.39761128 126.06798497 -66.81349119 120.27539724 -66.0625 114.5625 C-64.26131522 111.56052536 -63.15917268 110.11083634 -60.0625 108.5625 C-54.4327178 108.22695973 -48.80231159 108.16280483 -43.16357422 108.10253906 C-41.28408023 108.07614439 -39.40472483 108.03545921 -37.52587891 107.97949219 C-24.67245864 107.60151738 -16.09039705 108.75005892 -5.0625 115.5625 C-0.70337832 117.01554056 3.38606723 117.18248684 7.9375 116.5625 C13.49693663 112.81592314 16.15651421 106.21916856 17.52734375 99.80078125 C18.01962073 95.91413728 18.19776207 92.10186206 18.25 88.1875 C18.27900391 87.47078125 18.30800781 86.7540625 18.33789062 86.015625 C18.44769893 76.65657888 13.73831077 70.76791599 7.4375 64.3125 C6.8194751 63.66265137 6.2014502 63.01280273 5.56469727 62.34326172 C2.69931936 59.34675448 -0.20587114 56.40025026 -3.19140625 53.5234375 C-10.88416172 46.10478879 -17.43742567 38.12439282 -23.69140625 29.45410156 C-24.85140834 27.8537283 -26.04694605 26.27920426 -27.25 24.7109375 C-31.27706666 18.98728257 -31.73281271 14.34991931 -30.8046875 7.4296875 C-29.78906943 3.50619454 -28.46511509 1.75529639 -25.0625 -0.4375 C-16.63637095 -3.70188846 -8.23533395 -3.9066433 0 0 Z " fill="#e59500" transform="translate(138.0625,99.4375)"/>
<path d="M0 0 C5.59969815 3.58322654 10.75297119 7.69893803 15.8125 12 C17.359375 13.0828125 17.359375 13.0828125 18.9375 14.1875 C23.82132084 18.2711468 26.66632857 24.57880819 29.8125 30 C30.9337044 31.91888947 32.05827219 33.83582115 33.1875 35.75 C33.87972656 36.94882813 33.87972656 36.94882813 34.5859375 38.171875 C35.6919626 40.14538675 35.6919626 40.14538675 37.8125 41 C37.91046875 40.19175781 38.0084375 39.38351563 38.109375 38.55078125 C39.6128799 27.80590572 39.6128799 27.80590572 43.8125 24 C49.36211402 21.22519299 58.80361443 22.37760865 64.77734375 23.61328125 C75.59271435 27.49177908 81.02588318 34.75335468 86 44.6875 C86.5878125 45.93575562 86.5878125 45.93575562 87.1875 47.20922852 C90.17597464 53.42043323 92.95672791 57.3721308 99.5234375 60.14453125 C105.12069718 61.54794973 110.04040218 62.32672252 115.8125 62 C116.03164063 61.29875 116.25078125 60.5975 116.4765625 59.875 C120.35229527 48.27931171 125.76893872 41.62476115 136.69921875 36.03515625 C138.37105488 35.28001229 140.09222847 34.6371376 141.8125 34 C142.864375 33.608125 143.91625 33.21625 145 32.8125 C153.09406556 31.08753521 160.46186185 30.71956011 167.59375 35.33203125 C176.34134258 41.90812637 184.25910603 49.3398181 187.8125 60 C188.25585796 64.31863493 188.48748102 68.64411001 188.69970703 72.97900391 C188.80393035 74.84645117 188.96020823 76.71079781 189.12109375 78.57421875 C189.61137011 87.34916497 187.40576192 92.9254133 183.50390625 100.515625 C180.39194718 106.92640442 179.08575211 113.87787065 179.8125 121 C180.74847315 123.01951062 180.74847315 123.01951062 182.8125 124 C193.6131495 125.85115941 203.71901225 126.8238369 213.2890625 120.83203125 C216.62840761 118.40764602 219.77825162 115.78627533 222.953125 113.15234375 C235.6591447 103.58811307 250.55277577 95.83852768 266.8125 98 C276.56616351 102.01341221 280.53084302 109.7547634 284.6484375 119.046875 C287.26476481 125.68426911 287.17422401 132.26040802 287.27246094 139.31445312 C287.29889749 140.75750223 287.33963371 142.20036881 287.39550781 143.64257812 C287.83246915 155.0878063 285.78957113 163.47381406 277.8034668 172.19360352 C270.69156377 179.07059327 261.72298374 182.18439204 252.5 185.1875 C251.74227295 185.43765869 250.9845459 185.68781738 250.20385742 185.94555664 C236.91594964 190.08831495 223.58139525 190.34461357 209.80639648 190.45629883 C201.11486559 190.53995079 193.00602491 190.69699715 184.8125 194 C184.26813553 197.65501856 184.1318548 199.85917015 186.0546875 203.08203125 C187.90834605 205.45249322 189.8326604 207.73370009 191.8125 210 C204.85424592 225.00477688 210.93046191 240.2202574 211.0625 260.125 C211.0934375 261.30255859 211.0934375 261.30255859 211.125 262.50390625 C211.15634224 267.15039359 210.92949531 270.30026209 207.8125 274 C201.60678758 279.40766495 191.21988126 277.85488985 183.5234375 277.34033203 C175.10931449 276.28402012 168.07585731 272.12751039 162.8125 265.5 C161.79955095 264.0087139 160.79899637 262.50891514 159.8125 261 C158.75393449 259.62638523 157.67189988 258.27039549 156.5625 256.9375 C156.10359375 256.36902344 155.6446875 255.80054688 155.171875 255.21484375 C153.74353566 253.66682183 153.74353566 253.66682183 150.8125 254 C147.99687081 270.43470516 154.43355623 283.9926133 162.4921875 297.8984375 C170.09323042 311.09626825 171.03004766 324.99106377 171.3125 339.9375 C171.39371094 341.77344727 171.39371094 341.77344727 171.4765625 343.64648438 C171.58979286 351.16417138 170.79109129 355.64035136 165.64794922 361.26782227 C163.56709114 363.23160094 161.56363223 364.99391475 159.125 366.5 C158.39925781 366.9640625 157.67351562 367.428125 156.92578125 367.90625 C149.00528611 372.00558205 137.40692625 371.07661632 128.8125 370 C124.73970123 368.38856695 122.50370205 366.40319482 119.8125 363 C119.26078125 362.42121094 118.7090625 361.84242188 118.140625 361.24609375 C109.57216394 351.42629803 108.050653 338.01917105 107.25 325.5625 C106.34652618 312.17101024 104.58816046 299.36462065 98.3125 287.3125 C97.7453125 286.19488281 97.178125 285.07726562 96.59375 283.92578125 C93.67745951 279.11236548 93.67745951 279.11236548 88.93408203 276.41943359 C81.61051838 274.97157602 72.58194269 274.27076817 65.6875 277.43359375 C61.41126029 280.75436115 58.28872047 284.62462368 55.0625 288.9375 C48.5103129 297.58906134 38.16010047 303.58699991 27.5625 305.625 C18.27889855 306.55336014 11.7182009 306.49858982 3.81640625 300.86328125 C0.32757725 297.89923886 -1.01110348 294.62188034 -2.5 290.375 C-2.75072266 289.70726562 -3.00144531 289.03953125 -3.25976562 288.3515625 C-5.92349897 281.21018623 -6.37056855 275.635851 -6.375 268.0625 C-6.38724609 266.96486328 -6.39949219 265.86722656 -6.41210938 264.73632812 C-6.41404297 263.67994141 -6.41597656 262.62355469 -6.41796875 261.53515625 C-6.42207764 260.569729 -6.42618652 259.60430176 -6.43041992 258.60961914 C-6.18084144 255.92846899 -5.55490214 254.29481038 -4.1875 252 C-5.05761719 252.50660156 -5.05761719 252.50660156 -5.9453125 253.0234375 C-6.72648437 253.46945312 -7.50765625 253.91546875 -8.3125 254.375 C-9.07820313 254.81585938 -9.84390625 255.25671875 -10.6328125 255.7109375 C-17.94658811 259.40137473 -25.1033524 260.15869811 -33.1875 259 C-37.07957521 257.21986276 -40.04391432 254.87974902 -43.1875 252 C-43.868125 251.39027344 -44.54875 250.78054688 -45.25 250.15234375 C-52.2230479 243.54247543 -54.73362595 237.11447575 -55.34375 227.55078125 C-55.37628074 225.02558264 -55.2887277 222.52319412 -55.1875 220 C-55.20425781 219.03964844 -55.22101563 218.07929688 -55.23828125 217.08984375 C-55.09421096 208.50103804 -52.17458668 203.10603543 -46.1875 197 C-37.12654049 189.72657672 -25.09404938 186.51227861 -14.1875 183 C-20.03386175 179.29828351 -29.21372448 180.31911675 -35.83203125 181.453125 C-36.58871094 181.63359375 -37.34539062 181.8140625 -38.125 182 C-46.82060401 183.97429406 -56.90795864 184.92419252 -64.875 180.375 C-72.01630278 175.58030648 -75.00548302 169.906932 -77.4375 161.9375 C-77.69273438 161.14794922 -77.94796875 160.35839844 -78.2109375 159.54492188 C-81.9661266 147.75560452 -84.42012636 129.6774594 -78.5625 118.1875 C-75.32813636 113.84664353 -72.06928428 109.60300764 -66.57397461 108.453125 C-59.46895942 107.50244313 -52.28461244 107.47381672 -45.125 107.375 C-43.84668304 107.35699341 -43.84668304 107.35699341 -42.5425415 107.33862305 C-28.89347923 107.23179115 -17.84119702 108.91677957 -5.96630859 116.17382812 C-3.90975013 117.28082377 -3.90975013 117.28082377 -0.1875 117 C2.7466805 110.11028825 2.7466805 110.11028825 1.8125 103 C-1.78300995 97.53482487 -7.14105571 93.48762906 -12.16796875 89.3828125 C-17.02945525 85.32672197 -20.95778247 80.85126899 -24.890625 75.89453125 C-27.16579003 73.02735899 -29.51601961 70.23582069 -31.875 67.4375 C-41.4511042 55.70551894 -45.72791072 45.7361296 -45.63354492 30.59130859 C-45.62501587 28.50388445 -45.65389355 26.41918762 -45.68554688 24.33203125 C-45.72499359 16.89657558 -45.39484467 11.28041813 -41.1875 5 C-30.79319753 -5.39430247 -12.86008885 -6.71361015 0 0 Z M-33.83203125 19.7265625 C-36.61443343 24.39330045 -36.5634222 29.69395062 -36.1875 35 C-34.84560061 38.87334278 -32.69021277 41.77817127 -30.1875 45 C-29.34217038 46.12609379 -28.49713721 47.25241017 -27.65234375 48.37890625 C-20.68990412 57.53227986 -13.19366906 66.07760177 -4.97460938 74.1237793 C12.55651448 91.31474011 12.55651448 91.31474011 12.98046875 100.73046875 C12.99241762 102.21611205 12.99872254 103.7018092 13 105.1875 C13.01224609 105.91775391 13.02449219 106.64800781 13.03710938 107.40039062 C13.05625588 114.60585785 11.65885729 120.88912611 8.375 127.375 C7.75818359 128.62410156 7.75818359 128.62410156 7.12890625 129.8984375 C5.8125 132 5.8125 132 2.8125 134 C-5.04352867 135.21952792 -11.16162192 132.98911724 -17.83512878 129.02008057 C-23.23393933 125.99730397 -27.63652081 125.40969743 -33.76171875 125.46875 C-34.64857864 125.4649231 -35.53543854 125.46109619 -36.44917297 125.45715332 C-38.31060939 125.45444779 -40.17208472 125.46171312 -42.03344727 125.47851562 C-44.87797552 125.5000225 -47.72000044 125.47862919 -50.56445312 125.453125 C-52.38021388 125.45576702 -54.19597309 125.46088941 -56.01171875 125.46875 C-56.85764084 125.46065308 -57.70356293 125.45255615 -58.57511902 125.44421387 C-62.63436786 125.50862148 -64.69105093 125.68537696 -68.19848633 127.90820312 C-71.77144035 131.6657912 -71.51882408 134.76874278 -71.47265625 139.78125 C-70.78529491 147.53995885 -68.46445749 156.10222398 -63.1875 162 C-54.8574555 166.97654521 -45.49687149 165.45892751 -36.25 164 C-24.65735847 162.18742725 -13.55526753 161.1439714 -3.4375 167.8125 C0.39584846 171.53936655 2.62406505 174.51477648 3.30859375 179.91015625 C3.30990584 181.29440801 3.29005029 182.67882713 3.25 184.0625 C3.25708984 184.75666016 3.26417969 185.45082031 3.27148438 186.16601562 C3.21668705 190.60459914 2.69314903 193.58341627 -0.1875 197 C-5.13429645 200.17413126 -10.74977943 201.33877611 -16.375 202.8125 C-26.36891263 205.55479516 -36.47930845 208.56066225 -43.1875 217 C-44.99652171 220.44575565 -45.6305566 223.1317751 -45.1875 227 C-43.41541291 229.63322665 -43.41541291 229.63322665 -41 232.0625 C-40.22269531 232.89910156 -39.44539063 233.73570312 -38.64453125 234.59765625 C-34.33953257 239.06732217 -34.33953257 239.06732217 -28.828125 241.53125 C-17.46617108 241.38272773 -10.45620116 235.99735797 -1.91015625 229.14453125 C2.11884451 225.97104284 2.11884451 225.97104284 4.87109375 226.0859375 C5.65613281 226.18132812 6.44117188 226.27671875 7.25 226.375 C8.03246094 226.46523438 8.81492187 226.55546875 9.62109375 226.6484375 C11.8125 227 11.8125 227 14.8125 228 C16.96883814 234.46901441 17.33529469 242.32334749 15.8125 249 C13.71748185 253.0849936 10.66482108 256.20851059 7.4140625 259.3984375 C5.17999771 261.63250229 3.83396488 263.06017424 2.8125 266 C3.10861993 273.40299822 5.7173302 280.31388488 10.25 286.125 C15.02665344 289.52307498 21.29149588 288.6958156 26.8125 288 C38.14699874 285.15445263 45.45460681 277.73046833 52.8059082 269.11376953 C57.5286422 263.76119034 62.53294098 259.6263715 69.77661133 258.56616211 C73.03381067 258.40198623 76.24010005 258.41517706 79.5 258.5 C80.60150391 258.49742187 81.70300781 258.49484375 82.83789062 258.4921875 C93.17704438 258.61698115 93.17704438 258.61698115 97.8125 262 C110.91249858 276.75632024 114.84776665 295.75170551 115.6875 314.9375 C116.41804153 327.39519864 117.37307994 339.1869945 126.28515625 348.765625 C130.84953263 352.45448161 135.0147459 352.33541096 140.6875 352.3125 C141.47769531 352.32861328 142.26789063 352.34472656 143.08203125 352.36132812 C148.97617522 352.36623174 152.99331066 351.23910923 157.7109375 347.4921875 C160.54122397 344.39234994 162.2037658 342.09196742 162.3125 337.8125 C162.16131227 336.20680054 161.99209637 334.60277061 161.8125 333 C161.68053223 331.67572998 161.68053223 331.67572998 161.54589844 330.32470703 C160.48449286 322.15354686 157.62538611 316.15431944 153.5625 309.0625 C145.03850923 293.28579405 140.37810719 279.40592834 140.1875 261.375 C140.17614014 260.30838135 140.16478027 259.2417627 140.15307617 258.14282227 C140.29349075 250.5728766 141.20618692 241.60631308 146.8125 236 C151.83509791 235.48922733 155.61991488 235.60515625 160.03125 238.40234375 C163.20522 241.24917211 165.42795779 244.82355324 167.85546875 248.3046875 C173.19415536 255.65736966 178.84620594 258.57544861 187.8125 260 C191.50429614 260.2947822 195.13481123 260.49943922 198.8125 260 C201.09023657 258.19288813 201.09023657 258.19288813 200.81640625 255.63671875 C199.00887344 243.55984022 193.61972005 234.76870196 185.6875 225.8125 C177.55699725 216.52443415 174.42669908 210.38689986 174.25 197.8125 C174.23485352 196.86117187 174.21970703 195.90984375 174.20410156 194.9296875 C174.29689934 188.77482087 175.15533346 184.99531273 178.8125 180 C180.671875 178.2578125 180.671875 178.2578125 182.5625 177.125 C183.17609375 176.73570312 183.7896875 176.34640625 184.421875 175.9453125 C192.9810337 172.56080857 203.4271522 173.69456951 212.52392578 173.52319336 C225.65557386 173.26501285 238.35944731 172.52244559 250.6875 167.625 C251.46351563 167.33367187 252.23953125 167.04234375 253.0390625 166.7421875 C263.23318919 162.84242092 271.13134702 158.88636598 276.859375 149.15234375 C279.8731247 142.34670407 277.47044773 134.89797764 275.1796875 128.17578125 C272.95278392 123.00300236 270.64100224 119.06031832 265.8125 116 C255.68622507 113.05150625 246.43163354 117.56666494 237.58984375 122.21484375 C231.39213053 125.69406316 225.77502951 129.87163306 220.23046875 134.30078125 C214.49920166 138.83651079 210.29971595 141.66574929 202.8125 142 C202.08804687 142.03270996 201.36359375 142.06541992 200.6171875 142.09912109 C198.34759718 142.16881017 196.08309704 142.18556263 193.8125 142.1875 C193.05710937 142.19974609 192.30171875 142.21199219 191.5234375 142.22460938 C179.3165089 142.25607053 179.3165089 142.25607053 175.00024414 138.3671875 C169.75292607 131.70668272 170.01069831 124.85314524 170.25 116.6875 C170.25193359 115.44548828 170.25386719 114.20347656 170.25585938 112.92382812 C170.39809455 102.87781067 171.67025311 93.65877439 176.5 84.75 C178.97239927 80.08157237 179.50219512 77.25892529 178.8125 72 C175.8254206 62.70686409 169.86641345 56.24229952 161.8125 51 C156.44580158 48.31665079 147.52922871 50.55537193 141.9375 52.1875 C133.06634006 55.57702912 127.53634701 63.09219668 123.65625 71.5078125 C123.00337148 73.04603387 122.37160983 74.59353756 121.76953125 76.15234375 C120.8125 78 120.8125 78 117.8125 80 C107.92566701 80.97247538 94.80944888 78.2240404 86.8125 72 C83.44200348 68.19959322 81.18329134 63.78098527 78.9453125 59.25390625 C74.0043879 49.1069148 74.0043879 49.1069148 64.8125 43 C63.636875 42.3503125 63.636875 42.3503125 62.4375 41.6875 C58.30944528 40.60634281 54.04854843 40.4901747 49.8125 41 C46.68620028 44.12629972 47.46700694 47.78324322 47.3515625 52.0546875 C46.69181202 55.65941113 45.7375341 56.84068163 42.8125 59 C39.72728221 59.80028011 36.92763088 59.62750838 33.8125 59 C28.10579427 54.88586331 24.43367487 47.78397182 20.93359375 41.7734375 C13.69443704 29.44845445 2.79757212 19.41403839 -11.1875 15 C-18.78258683 14.25118862 -28.14217094 13.75288493 -33.83203125 19.7265625 Z " fill="#820231" transform="translate(143.1875,82)"/>
<path d="M0 0 C5.64550195 3.26905862 9.81671258 8.17591471 11.6875 14.4375 C11.9949805 17.56663153 12.01216056 20.67021244 12 23.8125 C12.01611328 24.6375 12.03222656 25.4625 12.04882812 26.3125 C12.05467172 33.6754264 10.31522613 39.4340813 5.2578125 45.08203125 C0.42692798 49.25197386 -5.64241126 51.22979517 -11.984375 50.875 C-17.63396615 49.81333187 -22.45099389 47.5891599 -26.2421875 43.20703125 C-30.62903008 36.77369512 -31.53763227 31.88593966 -31.625 24.25 C-31.65400391 23.42435547 -31.68300781 22.59871094 -31.71289062 21.74804688 C-31.78385535 14.82079816 -30.12285075 9.69423756 -25.56640625 4.4140625 C-25.00824219 3.96804688 -24.45007813 3.52203125 -23.875 3.0625 C-23.31941406 2.60101563 -22.76382812 2.13953125 -22.19140625 1.6640625 C-15.59186448 -2.64416227 -7.21416105 -3.23249909 0 0 Z " fill="#830131" transform="translate(403.3125,274.5625)"/>
<path d="M0 0 C0.97582031 -0.01095703 1.95164062 -0.02191406 2.95703125 -0.03320312 C7.15397191 0.00973965 10.07927759 0.13068797 13.8046875 2.15234375 C16.34666516 5.11158944 18.18515899 8.19672264 19.875 11.6875 C20.38764404 12.74529663 20.38764404 12.74529663 20.91064453 13.82446289 C27.13254537 27.16528708 29.22302316 40.01311704 30.14257812 54.63623047 C30.67236403 62.50160701 31.81607842 69.23928253 34.875 76.5625 C35.28685547 77.68398438 35.28685547 77.68398438 35.70703125 78.828125 C38.33455839 85.1149936 43.78288952 90.51644476 49.875 93.5625 C53.53430276 93.88629583 57.20315151 93.88720071 60.875 93.9375 C61.87917969 93.97488281 62.88335937 94.01226562 63.91796875 94.05078125 C72.42226023 94.14979629 78.85859533 92.07685409 85.3125 86.4296875 C86.0859375 85.44355469 86.0859375 85.44355469 86.875 84.4375 C87.679375 83.44363281 87.679375 83.44363281 88.5 82.4296875 C89.67068892 80.83994516 90.77986485 79.20520273 91.875 77.5625 C92.63672455 83.35402476 92.48801846 87.51030106 88.9375 92.3125 C83.7224053 98.29077929 77.5897466 103.01179644 69.54418945 103.78710938 C49.82769356 104.70617041 49.82769356 104.70617041 44.375 100.5625 C42.484375 98.59765625 42.484375 98.59765625 40.875 96.5625 C40.32328125 95.98371094 39.7715625 95.40492188 39.203125 94.80859375 C30.63466394 84.98879803 29.113153 71.58167105 28.3125 59.125 C27.40902618 45.73351024 25.65066046 32.92712065 19.375 20.875 C18.8078125 19.75738281 18.240625 18.63976562 17.65625 17.48828125 C14.73995951 12.67486548 14.73995951 12.67486548 9.99658203 9.98193359 C2.67301838 8.53407602 -6.35555731 7.83326817 -13.25 10.99609375 C-17.52623971 14.31686115 -20.64877953 18.18712368 -23.875 22.5 C-30.4271871 31.15156134 -40.77739953 37.14949991 -51.375 39.1875 C-60.65860145 40.11586014 -67.2192991 40.06108982 -75.12109375 34.42578125 C-78.60992275 31.46173886 -79.94860348 28.18438034 -81.4375 23.9375 C-81.68822266 23.26976562 -81.93894531 22.60203125 -82.19726562 21.9140625 C-83.87228437 17.42339562 -85.25710449 13.67770984 -85.1875 8.875 C-85.17847656 8.06675781 -85.16945312 7.25851562 -85.16015625 6.42578125 C-85.14855469 5.81089844 -85.13695312 5.19601562 -85.125 4.5625 C-83.29734488 7.30398267 -82.30217722 9.77286386 -81.22216797 12.85693359 C-78.92973239 19.26304329 -76.99592603 23.88588459 -71.0546875 27.6796875 C-62.06239539 31.79357013 -51.08772328 29.76176085 -42.125 26.5625 C-32.90106366 22.0954794 -25.93698681 16.17098112 -20.09375 7.80859375 C-14.07058659 0.93692915 -9.02404877 -0.22229681 0 0 Z " fill="#002642" transform="translate(222.125,348.4375)"/>
<path d="M0 0 C6.79250039 0.21594654 12.28382791 2.29493358 17.625 6.5 C20.87839411 10.9215591 23.22907876 15.57264162 25.625 20.5 C30.09057617 29.07979991 33.72744961 33.36759216 42.8984375 36.68359375 C53.09173218 39.88522675 53.09173218 39.88522675 63.625 39.5 C67.35352308 36.98729966 68.80760155 34.27649798 70.5 30.25 C74.30019541 21.25819905 79.3788416 15.61266549 88.375 11.609375 C94.74511697 9.43496007 100.87610659 8.22208867 107.38671875 10.44140625 C115.1800943 14.63049479 121.43633866 21.6618115 124.625 29.9375 C126.06570755 35.05797653 125.89109445 40.22738781 125.625 45.5 C125.295 45.5 124.965 45.5 124.625 45.5 C124.48964844 44.81035156 124.35429687 44.12070313 124.21484375 43.41015625 C122.08334371 34.10558421 117.95727203 27.83807598 110.5 21.875 C103.97463844 17.85511003 97.12254186 19.501291 90.00390625 21.08203125 C80.92650341 23.69962971 76.16422435 29.53056634 71.625 37.5 C70.89184729 39.11395422 70.1821748 40.73884638 69.5 42.375 C67.02237654 48.12268519 67.02237654 48.12268519 63.625 49.5 C53.04659519 50.69433603 41.62753052 47.00154643 32.625 41.5 C29.15900264 37.83431555 27.17440774 33.72650217 24.97241211 29.25097656 C19.22149386 17.70903746 19.22149386 17.70903746 8.56640625 11.13671875 C3.61813111 10.06557818 -1.69655609 9.16077805 -6.375 11.5 C-6.42899736 10.04207116 -6.46779177 8.58357288 -6.5 7.125 C-6.53480469 5.90683594 -6.53480469 5.90683594 -6.5703125 4.6640625 C-6.19028666 0.45337621 -3.67711589 0.14280062 0 0 Z " fill="#002642" transform="translate(197.375,113.5)"/>
<path d="M0 0 C4.42484878 2.21242439 7.19476657 4.94799616 10 9 C11.25527404 12.76582212 11.26217235 16.32444326 11.3125 20.25 C11.34150391 20.98863281 11.37050781 21.72726563 11.40039062 22.48828125 C11.46530107 28.15046896 10.27161804 31.35846415 7 36 C3.38872171 39.51848313 -0.58947113 41.30775149 -5.625 41.5625 C-11.30473281 41.21057163 -14.56733076 38.5875524 -18.3125 34.4375 C-22.82881689 27.91393116 -22.14762627 17.60217519 -21 10 C-16.78724737 1.22728986 -9.17036201 -1.17531538 0 0 Z " fill="#830131" transform="translate(218,53)"/>
<path d="M0 0 C3.94520435 2.91193655 7.0883171 6.25263187 8.07568359 11.19213867 C8.22357867 13.64654073 8.20992646 16.04292321 8.125 18.5 C8.12886719 19.7365332 8.12886719 19.7365332 8.1328125 20.99804688 C8.05245814 26.02421198 7.39310159 29.59616081 4.625 33.9375 C-0.78258863 38.817519 -4.23338467 39.29655042 -11.390625 39.2109375 C-15.45253773 38.83877272 -17.45960596 37.78000919 -20.375 34.9375 C-24.14039398 29.46245103 -25.00751473 25.51906475 -24.875 18.9375 C-24.89046875 18.16921875 -24.9059375 17.4009375 -24.921875 16.609375 C-24.8832711 10.93460168 -23.59536266 7.61145755 -20.375 2.9375 C-14.58756599 -2.56762015 -7.28307656 -2.2928204 0 0 Z " fill="#830131" transform="translate(396.375,132.0625)"/>
<path d="M0 0 C5.37842846 1.85800256 8.46081756 4.92163513 11 10 C11.29172012 13.24312303 11.27792433 16.49527649 11.3125 19.75 C11.34150391 20.64460938 11.37050781 21.53921875 11.40039062 22.4609375 C11.4566645 28.33073508 10.83820594 31.5007697 7 36 C2.39155072 40.04984937 -2.16484752 40.51603529 -8.1328125 40.484375 C-12.99345297 39.66323138 -15.96432012 36.74324436 -19 33 C-21.64093068 29.21984433 -21.33157588 25.06586591 -21.3125 20.625 C-21.32861328 19.8825 -21.34472656 19.14 -21.36132812 18.375 C-21.36639582 12.63836477 -20.08403911 8.75229078 -16.5625 4.1015625 C-11.4843827 -0.69725835 -6.77980398 -1.02413957 0 0 Z " fill="#830231" transform="translate(93,353)"/>
<path d="M0 0 C6.35714971 6.53639265 9.75413887 15.64292858 9.828125 24.76171875 C9.745625 25.64859375 9.663125 26.53546875 9.578125 27.44921875 C7.91398239 24.95300483 6.92135407 22.94188116 5.828125 20.19921875 C2.87036417 13.3985537 2.87036417 13.3985537 -2.421875 8.44921875 C-13.52288817 5.52467597 -23.57072208 10.69302781 -33.05126953 16.01513672 C-38.32419119 19.20495565 -43.1941127 22.90780414 -48.00390625 26.75 C-53.73517334 31.28572954 -57.93465905 34.11496804 -65.421875 34.44921875 C-66.14632812 34.48192871 -66.87078125 34.51463867 -67.6171875 34.54833984 C-69.88677782 34.61802892 -72.15127796 34.63478138 -74.421875 34.63671875 C-75.17726563 34.64896484 -75.93265625 34.66121094 -76.7109375 34.67382812 C-82.55178314 34.68888185 -88.9594637 34.69202221 -93.48046875 30.57421875 C-93.93550781 29.87296875 -94.39054687 29.17171875 -94.859375 28.44921875 C-95.33246094 27.74796875 -95.80554688 27.04671875 -96.29296875 26.32421875 C-98.26270156 23.05269021 -98.53337401 21.14614151 -98.484375 17.32421875 C-98.47535156 16.41414063 -98.46632813 15.5040625 -98.45703125 14.56640625 C-98.44542969 13.86773437 -98.43382812 13.1690625 -98.421875 12.44921875 C-97.39413151 13.99083398 -96.37158788 15.5414118 -95.484375 17.16796875 C-93.26461423 20.88933239 -91.23586085 22.93724725 -87.109375 24.38671875 C-75.92645681 27.08200292 -63.94286898 26.67977786 -53.859375 21.0078125 C-48.87166081 17.95425452 -44.26533625 14.56233056 -39.671875 10.94921875 C-30.25124765 3.74811093 -11.72884192 -7.51024232 0 0 Z " fill="#002642" transform="translate(411.421875,190.55078125)"/>
<path d="M0 0 C0.33 0 0.66 0 1 0 C2.2475818 8.95090433 -0.71545948 14.87341964 -6 22 C-13.33842077 30.29165894 -23.04182425 33.84325166 -33.3125 37.1875 C-34.07022705 37.43765869 -34.8279541 37.68781738 -35.60864258 37.94555664 C-48.89655036 42.08831495 -62.23110475 42.34461357 -76.00610352 42.45629883 C-88.94150968 42.15668779 -88.94150968 42.15668779 -101 46 C-102.27596392 48.01869666 -102.27596392 48.01869666 -103 50 C-103.35345305 45.4934736 -103.6047762 42.09324929 -101.375 38.0625 C-96.64499353 33.9548628 -91.50532154 33.7428663 -85.43359375 33.65625 C-84.36057762 33.6343158 -84.36057762 33.6343158 -83.2658844 33.61193848 C-80.98981294 33.56576373 -78.71381947 33.53144422 -76.4375 33.5 C-60.92516391 33.28215365 -47.07518875 31.7700809 -32.25 26.75 C-31.09628906 26.38003906 -29.94257813 26.01007813 -28.75390625 25.62890625 C-17.97389447 22.02737438 -8.12102973 17.03664987 -2.74609375 6.5546875 C-1.77141408 4.38797799 -0.85443664 2.21650916 0 0 Z " fill="#002642" transform="translate(429,230)"/>
<path d="M0 0 C0.33 0 0.66 0 1 0 C1.82050814 8.20508137 -0.4950744 14.11862282 -5 21 C-7.83348745 23.70600948 -9.79085571 24.43122521 -13.6875 24.4375 C-19.76311243 24.25014631 -24.47957298 22.0911165 -29.64762878 19.02131653 C-35.04017192 16.00477182 -39.45575261 15.39746014 -45.57421875 15.43359375 C-46.46107864 15.42739517 -47.34793854 15.42119659 -48.26167297 15.41481018 C-50.12308664 15.40774924 -51.98456396 15.4108204 -53.84594727 15.42358398 C-56.69079094 15.43751612 -59.53238316 15.40324699 -62.37695312 15.36523438 C-64.19270913 15.36428365 -66.00846925 15.3661395 -67.82421875 15.37109375 C-68.67014084 15.35783554 -69.51606293 15.34457733 -70.38761902 15.33091736 C-74.75780867 15.39984325 -76.45355211 15.55255252 -79.94848633 18.41430664 C-80.9639856 19.69422485 -80.9639856 19.69422485 -82 21 C-82.66 21.66 -83.32 22.32 -84 23 C-84.37889976 18.26375296 -84.44213557 14.90064653 -82.3125 10.5625 C-78.98082378 6.87064256 -76.3805265 6.10030558 -71.43823242 5.74121094 C-70.07737242 5.72810289 -68.71636865 5.72642248 -67.35546875 5.734375 C-66.26254265 5.73150482 -66.26254265 5.73150482 -65.14753723 5.72857666 C-63.61031752 5.72722004 -62.07308615 5.73087984 -60.53588867 5.73925781 C-58.20529859 5.74991858 -55.87548744 5.73936916 -53.54492188 5.7265625 C-52.04426916 5.72788509 -50.54361692 5.73044955 -49.04296875 5.734375 C-48.35623581 5.73032654 -47.66950287 5.72627808 -46.96195984 5.72210693 C-39.43793337 5.7935475 -33.20880898 7.68318657 -26.5 11.0625 C-20.25069062 14.01015113 -15.62123009 16.11422464 -8.75 14 C-3.94293808 10.50395497 -1.99705469 5.49190041 0 0 Z " fill="#002642" transform="translate(155,193)"/>
<path d="M0 0 C0.55510254 0.34885254 1.11020508 0.69770508 1.68212891 1.05712891 C9.93797643 6.31328488 16.04800119 11.40163627 21 20 C22.14041439 21.95329055 23.28529345 23.90374765 24.4362793 25.85083008 C25.20952747 27.16752768 25.97082731 28.49134042 26.71801758 29.82299805 C28.98504571 33.75296133 31.13952394 36.57444428 35 39 C37.29047638 39.54909947 37.29047638 39.54909947 39.5625 39.375 C40.30628906 39.36210937 41.05007812 39.34921875 41.81640625 39.3359375 C44.2069531 38.96816106 45.90615292 38.18698814 48 37 C48.47792208 44.16883117 48.47792208 44.16883117 46.5625 47.5 C42.83935088 49.67940436 39.20306795 49.96394139 35 49 C31.2638151 46.50354918 29.0016746 43.88117522 26.6875 40.0625 C26.089375 39.09828125 25.49125 38.1340625 24.875 37.140625 C23.59738582 35.00062125 22.34836477 32.84334747 21.125 30.671875 C14.18120258 18.63222625 3.39526734 9.46508911 -10 5 C-17.58971042 4.46010268 -24.15273864 4.51177252 -31 8 C-33.29633824 11.44450737 -33.54016485 13.93812283 -34 18 C-34.33 18 -34.66 18 -35 18 C-35.08150744 15.93816367 -35.1394194 13.87538651 -35.1875 11.8125 C-35.22230469 10.66394531 -35.25710937 9.51539062 -35.29296875 8.33203125 C-34.9705607 4.66517704 -34.19914191 2.91334922 -32 0 C-21.9463768 -7.70064755 -10.33025601 -6.63342557 0 0 Z " fill="#002642" transform="translate(142,93)"/>
<path d="M0 0 C2.55247331 3.82870997 3.62048679 7.90828915 4.88085938 12.28710938 C6.98608123 19.04954228 11.07647128 24.46267937 17.2578125 28.08984375 C27.29155709 31.4201322 39.53434404 28.94449916 49.734375 27.46875 C59.1934501 26.11098802 64.1168447 27.24782997 72 33 C72.66 33.66 73.32 34.32 74 35 C73.625 37.125 73.625 37.125 73 39 C70.3125 39.6875 70.3125 39.6875 67 40 C66.25492187 39.51789063 65.50984375 39.03578125 64.7421875 38.5390625 C61.23784264 36.57223647 58.81148566 36.63362765 54.8125 36.6875 C54.14468506 36.69587891 53.47687012 36.70425781 52.78881836 36.71289062 C49.10116017 36.80188925 45.64808536 37.15238713 42.0625 38 C33.36689599 39.97429406 23.27954136 40.92419252 15.3125 36.375 C8.30660645 31.67122067 5.17101182 25.99188673 2.6875 18.1875 C2.42388672 17.43146484 2.16027344 16.67542969 1.88867188 15.89648438 C0.09232756 10.42346651 -0.24613033 5.75258099 0 0 Z " fill="#002642" transform="translate(63,226)"/>
<path d="M0 0 C3.33600367 2.05838525 4.8262176 3.7393264 7 7 C8.70853866 21.91685675 8.70853866 21.91685675 4.625 27.5 C1.90771436 29.95265687 -0.44222969 30.51189553 -4.0625 30.75 C-7.89736741 30.48433147 -8.89951084 30.07793037 -12.0625 27.625 C-16.51189722 21.59678441 -15.72475882 14.19784983 -15 7 C-12.30949312 0.12996524 -6.93882649 -1.63868965 0 0 Z " fill="#820131" transform="translate(449,136)"/>
<path d="M0 0 C5.95537871 1.57642378 9.09666556 6.12045678 12.36328125 11.0625 C17.09319374 18.0974121 23.26766563 21.17899096 31.375 23.3125 C39.06223246 24.7436337 47.72914709 25.11607982 55 22 C57.8979062 19.52140971 57.8979062 19.52140971 60 17 C60.44933921 25.83700441 60.44933921 25.83700441 57 30 C50.51016759 35.28753278 40.59566838 33.86747808 32.7109375 33.34033203 C24.29681449 32.28402012 17.26335731 28.12751039 12 21.5 C10.98705095 20.0087139 9.98649637 18.50891514 9 17 C7.94143449 15.62638523 6.85939988 14.27039549 5.75 12.9375 C5.29109375 12.36902344 4.8321875 11.80054688 4.359375 11.21484375 C2.93103566 9.66682183 2.93103566 9.66682183 0 10 C-0.33 12.31 -0.66 14.62 -1 17 C-1.33 17 -1.66 17 -2 17 C-2.05418326 14.91695462 -2.09287551 12.83350232 -2.125 10.75 C-2.14820313 9.58984375 -2.17140625 8.4296875 -2.1953125 7.234375 C-2.0103949 4.17213954 -1.60823023 2.55797249 0 0 Z " fill="#002642" transform="translate(294,326)"/>
<path d="M0 0 C0.27585937 0.58136719 0.55171875 1.16273438 0.8359375 1.76171875 C5.20607129 10.16469412 12.45802761 17.80913331 21 22 C32.0373362 23.38590986 40.24201606 21.56983512 49.1875 15.0625 C51.63577997 13.14199296 54.00993431 11.14647261 56.375 9.125 C59 7 59 7 61 7 C60.73691828 13.4866086 58.63865271 16.29926966 54 20.6875 C53.41492676 21.25694336 52.82985352 21.82638672 52.22705078 22.41308594 C47.91664701 26.46951963 43.75017776 29.35709207 38 31 C37.01 31.33 36.02 31.66 35 32 C27.8449409 32.8187844 21.66685222 33.13541607 15.5625 28.9375 C14.00463654 27.66917366 12.48129176 26.35696905 11 25 C10.319375 24.39027344 9.63875 23.78054688 8.9375 23.15234375 C3.93833809 18.41355485 0.19636444 13.74416478 -0.09765625 6.640625 C-0.08605469 5.85171875 -0.07445313 5.0628125 -0.0625 4.25 C-0.05347656 3.45078125 -0.04445313 2.6515625 -0.03515625 1.828125 C-0.02355469 1.22484375 -0.01195313 0.6215625 0 0 Z " fill="#002642" transform="translate(89,309)"/>
<path d="M0 0 C2.29478002 2.29478002 3.10525169 4.29296221 4.4375 7.25 C8.27756763 15.04171107 13.46739602 21.3713311 19 28 C19.98571248 29.20439811 20.97138959 30.40882518 21.95703125 31.61328125 C27.66275153 38.50004442 33.67278903 44.64772406 40.35546875 50.5859375 C49.86268092 59.26460385 49.86268092 59.26460385 50.09765625 63.9453125 C50.06510417 65.96354167 50.03255208 67.98177083 50 70 C40 60 40 60 38.33984375 58.3046875 C35.68662205 55.61064701 33.10824868 53.08471635 30.125 50.75 C26.31198604 47.65508682 23.41587073 43.78852894 20.3671875 39.96484375 C18.81432554 38.01992259 17.23674897 36.09442658 15.6328125 34.19140625 C7.04795687 24.00230992 -0.7383757 13.78301306 0 0 Z " fill="#002642" transform="translate(98,118)"/>
<path d="M0 0 C0.66 0 1.32 0 2 0 C1.97849321 4.93580752 1.82261845 8.05398879 -1.5 11.875 C-6.18191426 15.10695972 -11.48954162 16.49855955 -17.01171875 17.6015625 C-27.93447535 19.78874899 -37.28498624 23.77600964 -45 32 C-45.66 32.66 -46.32 33.32 -47 34 C-47.44621719 25.22439527 -47.44621719 25.22439527 -44 21 C-35.34877322 11.78188371 -23.49833948 9.08239773 -11.61694336 6.23046875 C-6.63054403 4.97854389 -3.34648575 4.14964233 0 0 Z " fill="#002642" transform="translate(145,268)"/>
<path d="M0 0 C2.83385777 3.72876023 2.83385777 3.72876023 4.03125 5.68359375 C7.14214606 10.57064331 10.38194296 13.35569062 16 15 C23.78620758 16.07395967 29.10211807 14.44750726 35.6875 10.3125 C38.73347279 7.26652721 40.2975433 3.91850369 42 0 C42.33 0 42.66 0 43 0 C43.40788305 7.74977795 41.93646896 13.65178766 36.5703125 19.64453125 C31.73942798 23.81447386 25.67008874 25.79229517 19.328125 25.4375 C13.67853385 24.37583187 8.86150611 22.1516599 5.0703125 17.76953125 C0.88275394 11.62844656 -0.12018813 7.33147567 0 0 Z " fill="#002642" transform="translate(372,300)"/>
<path d="M0 0 C4 4.75 4 4.75 4 7 C9.44503679 9.81639834 13.91626301 10.59277437 20 10 C25.54966008 7.84179886 28.57945975 5.3996667 31 0 C31.33 0 31.66 0 32 0 C32.4163567 5.93308292 32.03790093 10.31376004 28 15 C24.1847099 18.41050763 20.5254449 20.30193786 15.375 20.5625 C9.69526719 20.21057163 6.43266924 17.5875524 2.6875 13.4375 C-0.43738019 8.92378417 -0.08657009 5.28077546 0 0 Z " fill="#002642" transform="translate(197,74)"/>
<path d="M0 0 C0.33 0 0.66 0 1 0 C1.37964752 4.74559401 1.48228172 8.06988525 -0.75 12.375 C-4.2262399 16.43061322 -7.03289154 18.57818167 -12.41796875 19.34375 C-18.01498299 19.65951949 -21.30179331 19.3931476 -25.625 15.625 C-29.93207401 11.35308578 -29.93207401 11.35308578 -30.09765625 8.0546875 C-30.06510417 6.03645833 -30.03255208 4.01822917 -30 2 C-29.51789063 2.42152344 -29.03578125 2.84304688 -28.5390625 3.27734375 C-27.90742187 3.82519531 -27.27578125 4.37304688 -26.625 4.9375 C-25.99851562 5.48277344 -25.37203125 6.02804687 -24.7265625 6.58984375 C-20.21719771 10.27283173 -14.54655164 9.52202839 -9 9 C-4.38401427 6.81348044 -2.35671454 4.46535386 0 0 Z " fill="#002642" transform="translate(103,374)"/>
<path d="M0 0 C1.83558412 1.83558412 3.64782681 3.6810487 5.4375 5.5625 C9.13492651 9.07956424 10.73355491 9.89786733 15.875 10.3125 C19.88560193 10.19322559 22.60793656 9.23567818 26 7 C28.24850483 4.52338502 28.24850483 4.52338502 30 2 C30.66 1.34 31.32 0.68 32 0 C32.28951652 5.59731932 32.18452849 9.1683016 29 14 C23.59241137 18.880019 20.14161533 19.35905042 12.984375 19.2734375 C8.92246227 18.90127272 6.91539404 17.84250919 4 15 C0.06904568 10.11721083 -0.43238197 6.1614431 0 0 Z " fill="#002642" transform="translate(372,152)"/>
<path d="M0 0 C1.02691935 1.54037902 2.04976444 3.08653816 2.97265625 4.69140625 C5.36975753 8.80685969 8.01995477 12.17918111 11.3125 15.625 C21.32964375 26.56038192 28.55381139 40.86248876 28 56 C27.34 55.67 26.68 55.34 26 55 C25.359375 52.8828125 25.359375 52.8828125 24.75 50.125 C22.19508726 40.44125755 17.50092585 33.34392553 10.9375 25.9375 C5.07170672 19.30652525 -0.21167915 13.13611498 -0.3125 3.875 C-0.209375 2.59625 -0.10625 1.3175 0 0 Z " fill="#002642" transform="translate(317,282)"/>
<path d="M0 0 C0.33 0 0.66 0 1 0 C1.268125 1.1859375 1.53625 2.371875 1.8125 3.59375 C4.35104148 14.27405 7.81324221 23.51045938 13.02001953 33.15087891 C18.36815522 43.24225402 22.47183313 52.4400883 22 64 C20.62852708 61.35755003 19.51484243 58.7333909 18.5 55.9375 C17.13450918 52.42623788 15.5636267 49.14143797 13.7265625 45.859375 C9.01101745 37.42653173 5.05580538 29.25025421 2.375 19.9375 C2.0039917 18.67232544 2.0039917 18.67232544 1.62548828 17.3815918 C0.05247994 11.51314959 -0.2752427 6.05936337 0 0 Z " fill="#002642" transform="translate(283,347)"/>
<path d="M0 0 C0.66 0 1.32 0 2 0 C2.495 0.66 2.99 1.32 3.5 2 C6.89516791 4.71613433 9.40811132 4.55618431 13.65625 4.40625 C16.80643967 3.86021712 18.11244906 2.51673459 20 0 C20.66 0 21.32 0 22 0 C22.54618324 4.46049647 22.24949476 7.32513361 19.625 10.9375 C16.89924613 13.80569231 14.8748465 14.54401027 10.9375 14.75 C7.10263259 14.48433147 6.10048916 14.07793037 2.9375 11.625 C-0.12001727 7.48255724 -0.09514525 5.13784377 0 0 Z " fill="#002642" transform="translate(434,152)"/>
<path d="M0 0 C0.33 0 0.66 0 1 0 C1.43725008 4.70686846 1.67363446 7.70756239 -1.30078125 11.51953125 C-2.28486114 12.63499697 -3.28943926 13.73267422 -4.3125 14.8125 C-4.81201172 15.37130859 -5.31152344 15.93011719 -5.82617188 16.50585938 C-8.14126923 19.07853048 -10.51900284 21.58674337 -13 24 C-13.41269333 18.0159467 -12.9913383 14.62154961 -9 10 C-7.89398438 8.71609375 -7.89398438 8.71609375 -6.765625 7.40625 C-4.54966922 4.89389249 -2.33786636 2.39951395 0 0 Z " fill="#002642" transform="translate(159,323)"/>
<path d="M0 0 C0.33 0 0.66 0 1 0 C1.3864013 6.37562139 0.35151414 10.58357445 -2.375 16.3125 C-2.69210937 17.01439453 -3.00921875 17.71628906 -3.3359375 18.43945312 C-4.71815307 21.46017006 -6.15449285 24.23173927 -8 27 C-8.94508037 17.54919634 -5.24850211 7.80659557 0 0 Z " fill="#002642" transform="translate(330,165)"/>
<path d="M0 0 C0.99 0.33 1.98 0.66 3 1 C4.06166557 4.1849967 4.29951763 6.8531504 4.53515625 10.19921875 C4.62216797 11.40771484 4.70917969 12.61621094 4.79882812 13.86132812 C4.88583984 15.12396484 4.97285156 16.38660156 5.0625 17.6875 C5.15337891 18.96173828 5.24425781 20.23597656 5.33789062 21.54882812 C5.56205947 24.69899026 5.78261653 27.84936354 6 31 C5.34 31.33 4.68 31.66 4 32 C3.9498877 31.35039307 3.89977539 30.70078613 3.84814453 30.03149414 C3.6136902 27.04127099 3.36940696 24.05192548 3.125 21.0625 C3.04636719 20.04091797 2.96773437 19.01933594 2.88671875 17.96679688 C2.37526147 11.80963808 1.48850693 5.99780734 0 0 Z " fill="#002642" transform="translate(247,383)"/>
<path d="M0 0 C0.33 0 0.66 0 1 0 C2.32 5.94 3.64 11.88 5 18 C4.01 18 3.02 18 2 18 C0.176679 11.84629161 -0.2361959 6.40353322 0 0 Z " fill="#002642" transform="translate(283,347)"/>
<path d="M0 0 C1.90318884 2.85478326 2.4619099 4.41941308 3.125 7.6875 C3.29257813 8.49574219 3.46015625 9.30398437 3.6328125 10.13671875 C3.75398438 10.75160156 3.87515625 11.36648437 4 12 C3.01 12 2.02 12 1 12 C0.03929566 9.11788698 -0.10581883 7.30149956 -0.0625 4.3125 C-0.05347656 3.50425781 -0.04445312 2.69601563 -0.03515625 1.86328125 C-0.02355469 1.24839844 -0.01195312 0.63351563 0 0 Z " fill="#002642" transform="translate(63,226)"/>
</svg>
