<?xml version="1.0" encoding="UTF-8"?>
<svg version="1.1" xmlns="http://www.w3.org/2000/svg" width="500" height="500">
<path d="M0 0 C165 0 330 0 500 0 C500 165 500 330 500 500 C335 500 170 500 0 500 C0 335 0 170 0 0 Z " fill="#002641" transform="translate(0,0)"/>
<path d="M0 0 C2.90717073 2.21863029 3.83981643 3.51944929 5 7 C6.38804839 23.77432547 4.00836798 40.05492806 1 56.5 C0.61272328 58.70279879 0.22729918 60.90592412 -0.15625 63.109375 C-1.08298002 68.41018112 -2.03197285 73.70658789 -3 79 C-1.99211426 78.78794922 -0.98422852 78.57589844 0.05419922 78.35742188 C3.83551654 77.56464128 7.6194656 76.78509236 11.40429688 76.00927734 C13.03426218 75.67329833 14.6635175 75.33385379 16.29199219 74.99072266 C38.94503223 70.22385595 38.94503223 70.22385595 44.6875 73.5625 C46 76 46 76 46.0625 79.5625 C45 83 45 83 43.1171875 84.66015625 C38.51590016 86.63790256 34.02443845 86.6270605 29.0625 86.875 C17.02144415 87.65070763 5.65559654 89.96107063 -6 93 C-6.11593506 93.68102783 -6.23187012 94.36205566 -6.35131836 95.0637207 C-6.87761516 98.14706773 -7.40751507 101.22978486 -7.9375 104.3125 C-8.11990234 105.38435547 -8.30230469 106.45621094 -8.49023438 107.56054688 C-8.75610352 109.10258789 -8.75610352 109.10258789 -9.02734375 110.67578125 C-9.27085571 112.0975769 -9.27085571 112.0975769 -9.51928711 113.5480957 C-10 116 -10 116 -11 119 C-10.33170166 118.88930176 -9.66340332 118.77860352 -8.97485352 118.66455078 C26.46036448 112.82201076 26.46036448 112.82201076 38 113 C38.26683594 112.42121094 38.53367188 111.84242188 38.80859375 111.24609375 C45.27920248 99.04740517 58.1398005 94.48923332 70.47265625 90.125 C95.22211245 82.59426214 129.27279185 79.46300326 152.79296875 91.88671875 C155.90847989 93.93969259 157.45195049 95.42293575 159.375 98.5625 C160.09816406 99.70912109 160.09816406 99.70912109 160.8359375 100.87890625 C166.83017405 111.80129031 162.24187205 127.76290011 159 139 C152.45959596 159.38567493 152.45959596 159.38567493 144 164 C137.56070621 165.18651095 132.35189631 163.62262793 127 160 C123.26215798 156.63594218 122.86431352 151.75880854 122 147 C121.34 147 120.68 147 120 147 C119.79375 148.155 119.5875 149.31 119.375 150.5 C117.85395534 156.64983524 114.23929314 161.50713791 109 165 C105.625 165.4375 105.625 165.4375 102 165 C98.2651285 162.09509994 96.35727955 159.48622932 95 155 C94.68588413 151.83001307 94.66723313 148.68368702 94.6875 145.5 C94.69168945 144.61231934 94.69587891 143.72463867 94.70019531 142.81005859 C94.85965311 133.45463574 95.49249232 123.27309682 102 116 C105.49318467 113.08901278 108.45709019 112.53122269 113.00390625 112.703125 C117.09483909 113.3115612 120.11918152 115.11918152 123 118 C123.34570674 121.18050201 123.34512356 123.2894515 121.9375 126.1875 C119.22213003 128.72768481 116.47355137 129.6892259 113 131 C113.66 131 114.32 131 115 131 C121.43874544 131.45991039 126.3815929 134.3205707 130.84375 138.88671875 C132.28083704 140.55767137 133.66574439 142.24626251 135 144 C137.72177525 142.98294598 138.83921753 142.26235326 140.37890625 139.75 C141.62820731 136.84733352 142.84753446 133.94262867 144 131 C144.32484375 130.17757812 144.6496875 129.35515625 144.984375 128.5078125 C147.54862585 121.12954355 148.43045992 112.74622647 146.15234375 105.1875 C145.14563017 102.72166107 145.14563017 102.72166107 142.25 101.8125 C140.83907059 101.51321194 139.42104614 101.24682589 138 101 C137.12214844 100.81566406 136.24429688 100.63132812 135.33984375 100.44140625 C110.22068141 95.92804994 77.13892496 96.91159321 55 111 C55.61488281 111.03738281 56.22976562 111.07476562 56.86328125 111.11328125 C57.67152344 111.17902344 58.47976562 111.24476563 59.3125 111.3125 C60.11300781 111.37050781 60.91351563 111.42851562 61.73828125 111.48828125 C64.42699397 112.09660831 65.37235716 112.79729092 67 115 C67.5 118.5 67.5 118.5 67 122 C62.2302327 126.33615209 55.88434703 126.04464457 49.76171875 126.01953125 C48.86799561 126.01671143 47.97427246 126.0138916 47.0534668 126.01098633 C46.37582275 126.00736084 45.69817871 126.00373535 45 126 C44.29846099 166.19638643 49.32587425 208.55793651 76.56640625 240.51953125 C83.67035334 247.76031199 91.15430081 253.14431846 101.43286133 253.48242188 C111.8991672 253.55775668 119.62015354 251.92454831 129 247 C129.59651367 246.6896582 130.19302734 246.37931641 130.80761719 246.05957031 C143.47489504 239.35336439 155.09703686 231.28770934 166 222 C166.7321875 221.3915625 167.464375 220.783125 168.21875 220.15625 C172.25000017 216.74519217 175.73724525 213.13192171 179.1484375 209.10546875 C181.90768777 205.96784028 184.90458676 203.08433726 187.8828125 200.15625 C189.69154626 198.31414477 191.32151508 196.44606883 192.9375 194.4375 C197.12289008 189.47099256 202.45496792 183.39438482 209.125 182.65234375 C212 183 212 183 215 185 C215.75518106 188.02072423 215.89411404 189.10759495 215 192 C212.41446201 195.71919695 209.20322315 198.81851116 206 202 C204.85429983 203.1681255 203.70982997 204.3374586 202.56640625 205.5078125 C196.58773636 211.59267978 190.5434298 217.52064197 184 223 C183.07316406 223.804375 182.14632813 224.60875 181.19140625 225.4375 C136.33083965 264.26603931 136.33083965 264.26603931 110 265 C108.30230469 265.0928125 108.30230469 265.0928125 106.5703125 265.1875 C93.87896844 265.59607446 85.08506571 262.55882637 75 255 C74.01 254.278125 73.02 253.55625 72 252.8125 C63.19848937 245.12941338 57.40873615 235.17414245 52 225 C51.53851563 224.14664063 51.07703125 223.29328125 50.6015625 222.4140625 C49.32722651 219.97090879 48.14670121 217.5056166 47 215 C46.54109375 213.99839844 46.0821875 212.99679687 45.609375 211.96484375 C42.09837064 203.76942043 39.58254806 195.41522041 37.25 186.8125 C36.95625488 185.73226562 36.66250977 184.65203125 36.35986328 183.5390625 C32.81063871 170.05652519 31.72495316 157.61376199 31.875 143.75 C31.885057 142.11849512 31.89417801 140.48698419 31.90234375 138.85546875 C31.92412548 134.9034933 31.95850274 130.95181558 32 127 C16.87546018 128.04004552 1.95490244 129.49359177 -13 132 C-17.60362475 154.68400677 -21.37599128 177.40623035 -24.51391602 200.33959961 C-25.91558037 210.5693837 -27.38131347 220.78556322 -29.01953125 230.98046875 C-29.17234055 231.96662674 -29.32514984 232.95278473 -29.48258972 233.96882629 C-31.7490441 247.7490441 -31.7490441 247.7490441 -36 252 C-39.5 252.25 -39.5 252.25 -43 252 C-45 250 -45 250 -45.25 246.6875 C-45.0100925 243.14886433 -44.29788568 241.22638584 -43 238 C-42.53194385 236.01843091 -42.11573609 234.02424245 -41.73828125 232.0234375 C-41.39591431 230.214198 -41.39591431 230.214198 -41.04663086 228.3684082 C-40.80145007 227.03735872 -40.55675588 225.70621952 -40.3125 224.375 C-40.12133102 223.34673599 -40.12133102 223.34673599 -39.92630005 222.29769897 C-37.07316681 206.93168586 -34.59231397 191.50563956 -32.11364746 176.07569885 C-29.85673729 162.03008345 -27.46218498 148.01112842 -25 134 C-34.90460645 134.29745898 -45.26302895 134.97387927 -54 140 C-60.0013043 147.40152574 -62.02261092 157.14842348 -64.11669922 166.27099609 C-65.10190434 170.43020642 -66.36678675 174.4361588 -67.70410156 178.49194336 C-70.22905036 186.25035199 -71.96580897 194.0801605 -73.26171875 202.12890625 C-74.02368564 205.09211083 -74.51582089 206.26530558 -77 208 C-79.99225659 208.37403207 -82.03149218 208.58201409 -84.6640625 207 C-86.81115851 203.78563405 -86.43694895 200.35926825 -86.375 196.625 C-86.36919922 195.76592041 -86.36339844 194.90684082 -86.35742188 194.02172852 C-86.18170591 184.72098484 -85.15452069 175.49833735 -84.06787109 166.26611328 C-81.74535302 152.92222825 -81.74535302 152.92222825 -86 141 C-85.9375 137.9375 -85.9375 137.9375 -85 135 C-84.33613281 134.55140625 -83.67226562 134.1028125 -82.98828125 133.640625 C-80.77414583 132.14628322 -80.77414583 132.14628322 -80.390625 129.51953125 C-80.34421875 128.62621094 -80.2978125 127.73289062 -80.25 126.8125 C-80.19328125 125.91144531 -80.1365625 125.01039063 -80.078125 124.08203125 C-80.05234375 123.39496094 -80.0265625 122.70789063 -80 122 C-81.35931641 122.74056641 -81.35931641 122.74056641 -82.74609375 123.49609375 C-95.64928217 130.3556799 -95.64928217 130.3556799 -103 130 C-105.98401586 128.10769726 -106.75521319 126.95466857 -107.625 123.5625 C-106.87124091 120.47208774 -105.50558563 119.22046386 -103.06835938 117.25268555 C-100.56406524 115.73597955 -98.15055229 115.01128774 -95.33984375 114.1953125 C-88.55935878 112.11281006 -82.2223221 109.96815194 -77 105 C-72.9500865 96.72772674 -72.80519318 87.03673521 -72.28027344 77.97021484 C-71.86843936 72.13637706 -70.88153412 66.44284503 -69.875 60.6875 C-69.55062436 58.65538673 -69.22891894 56.62284504 -68.91015625 54.58984375 C-68.35376761 51.11521735 -67.7635003 47.65113129 -67.12109375 44.19140625 C-66.85004564 42.71121446 -66.5804647 41.2307531 -66.3125 39.75 C-66.18584961 39.05068359 -66.05919922 38.35136719 -65.92871094 37.63085938 C-64.78872838 30.790964 -64.59859626 23.91668985 -64.6418457 16.98925781 C-64.57040782 12.48477437 -64.4458946 10.58303653 -61.625 6.89453125 C-59 5 -59 5 -56.375 5 C-53.8589527 6.05938834 -52.71181161 6.90235924 -51 9 C-50.44758241 16.54970707 -51.55121431 24.01321837 -52.5 31.5 C-52.58181519 32.15621338 -52.66363037 32.81242676 -52.7479248 33.48852539 C-55.50381434 55.41870156 -59.33295527 77.20797013 -63 99 C-56.58593824 97.32391589 -50.18120377 95.55809982 -46.63183594 89.59716797 C-44.52613171 85.34737213 -42.95774757 80.90166567 -41.375 76.4375 C-40.75479893 74.81131882 -40.12931274 73.18714429 -39.4987793 71.56494141 C-38.22962644 68.28358909 -36.98540095 64.99455408 -35.76220703 61.69580078 C-33.27593513 55.02040777 -30.55252614 48.44979609 -27.8125 41.875 C-27.09694946 40.1417749 -27.09694946 40.1417749 -26.36694336 38.37353516 C-22.87163024 29.95082208 -19.21757997 21.61040468 -15.4375 13.3125 C-14.93645752 12.20052246 -14.43541504 11.08854492 -13.91918945 9.94287109 C-13.21475708 8.41847412 -13.21475708 8.41847412 -12.49609375 6.86328125 C-11.88012329 5.52197144 -11.88012329 5.52197144 -11.25170898 4.15356445 C-8.50624284 -0.57000817 -5.01639668 -0.52804176 0 0 Z " fill="#E29201" transform="translate(141,123)"/>
<path d="M0 0 C3.5 0.9375 3.5 0.9375 5.20703125 3.0703125 C6.76338559 6.52156352 6.80171139 8.98102427 6.6875 12.75 C6.64689453 14.49216797 6.64689453 14.49216797 6.60546875 16.26953125 C6.57066406 17.14996094 6.53585937 18.03039062 6.5 18.9375 C7.758125 18.875625 9.01625 18.81375 10.3125 18.75 C12.83113951 18.77228885 14.22995606 18.80247803 16.5 19.9375 C18.09769998 23.13289995 18.01210544 26.47247488 17.5 29.9375 C16.48046875 32.19140625 16.48046875 32.19140625 15.5 33.9375 C16.12003906 33.68355469 16.74007812 33.42960937 17.37890625 33.16796875 C26.72262953 29.53656538 37.36759151 26.26298366 47.5 26.9375 C49.875 28.5625 49.875 28.5625 51.5 30.9375 C52 33.9375 52 33.9375 51.5 36.9375 C46.75442501 42.82739804 38.81573386 44.45097828 31.5546875 45.26953125 C29.75014909 45.38006565 27.94546205 45.48820397 26.140625 45.59375 C22.36313463 46.08549431 19.14963349 47.45034957 15.69140625 49 C13.63493932 49.87977195 11.68072254 50.46062218 9.5 50.9375 C9.83773437 51.61296875 10.17546875 52.2884375 10.5234375 52.984375 C11.84895833 55.63541667 13.17447917 58.28645833 14.5 60.9375 C14.87640625 61.63359375 15.2528125 62.3296875 15.640625 63.046875 C17.03513913 66.11480608 16.85445755 68.62922952 16.5 71.9375 C14.875 74.375 14.875 74.375 12.5 75.9375 C9.02484004 76.44429416 7.2067834 76.32809083 4.125 74.625 C2.5 72.9375 2.5 72.9375 2.5 69.9375 C1.448125 70.205625 0.39625 70.47375 -0.6875 70.75 C-4.5 70.9375 -4.5 70.9375 -7.3125 68.5 C-8.034375 67.654375 -8.75625 66.80875 -9.5 65.9375 C-12.62808842 65.9375 -13.87434701 67.91309421 -16.125 70 C-17.02089844 70.81339844 -17.91679687 71.62679687 -18.83984375 72.46484375 C-20.48293822 73.99212539 -22.1051609 75.5426609 -23.69140625 77.12890625 C-28.61025705 81.89374215 -28.61025705 81.89374215 -33.3125 82.125 C-36.5 80.9375 -36.5 80.9375 -38.5 79.25 C-39.8710342 76.07948341 -39.33438691 74.25835991 -38.5 70.9375 C-32.18642885 61.92051142 -21.23058804 55.40688528 -12.5 48.9375 C-16.39432817 44.26203952 -20.4570971 39.87192462 -24.8125 35.625 C-31.35888097 29.23579504 -31.35888097 29.23579504 -31.8125 25.0625 C-31.5 21.9375 -31.5 21.9375 -29.875 19.5625 C-27.5 17.9375 -27.5 17.9375 -24.75 17.25 C-18.3592033 18.6018993 -14.24448028 23.85688358 -10.5 28.9375 C-10.48541748 28.33276855 -10.47083496 27.72803711 -10.45581055 27.10498047 C-10.38090812 24.34020735 -10.28438927 21.57658643 -10.1875 18.8125 C-10.16494141 17.86117187 -10.14238281 16.90984375 -10.11914062 15.9296875 C-9.91524537 10.59133903 -9.57039237 6.50297654 -6.5 1.9375 C-3.5 -0.0625 -3.5 -0.0625 0 0 Z " fill="#E29200" transform="translate(413.5,139.0625)"/>
<path d="M0 0 C3.625 0.25 3.625 0.25 5.3273325 1.41215515 C7.1371736 3.97537504 7.00527644 5.7801858 7.01268005 8.90551758 C7.02258469 10.08328766 7.03248932 11.26105774 7.04269409 12.47451782 C7.03594162 14.41492447 7.03594162 14.41492447 7.02905273 16.39453125 C7.03475438 17.76940466 7.04171784 19.14427334 7.04985046 20.51913452 C7.0678188 24.25464441 7.06660682 27.98991989 7.06090808 31.72546005 C7.05782188 34.84194672 7.06390223 37.95838799 7.06994683 41.0748682 C7.08400215 48.42527593 7.08242209 55.77556746 7.07104492 63.12597656 C7.05955888 70.7145221 7.07364501 78.30271443 7.1004414 85.89121342 C7.12257505 92.40254491 7.12924119 98.91376534 7.12336498 105.4251318 C7.11998902 109.31586603 7.12245269 113.20637374 7.13961601 117.09707642 C7.15504646 120.75468453 7.15117384 124.41176793 7.13231087 128.06935501 C7.12684856 130.05473893 7.14116812 132.04014619 7.15600586 134.02548218 C7.14617172 135.20325226 7.13633759 136.38102234 7.12620544 137.59448242 C7.12599616 138.62022873 7.12578688 139.64597504 7.12557125 140.70280457 C6.625 143.25 6.625 143.25 4.74992466 145.07221985 C2.04633941 146.5707337 0.66760442 146.85852088 -2.375 146.25 C-5.01947853 144.11972563 -6.19012563 142.34592784 -6.75898361 138.9737606 C-7.33848689 131.87272796 -7.52897255 124.82104994 -7.53613281 117.69775391 C-7.54109772 116.49473633 -7.54606262 115.29171875 -7.55117798 114.05224609 C-7.56318017 110.78819721 -7.57071408 107.52418389 -7.57518864 104.26011705 C-7.57813895 102.21690003 -7.5822468 100.17368837 -7.58669281 98.13047409 C-7.60031493 91.72487183 -7.61001243 85.31928209 -7.6138947 78.91366637 C-7.61839019 71.54008047 -7.6360288 64.16667858 -7.6648953 56.79314864 C-7.68650744 51.073147 -7.6965984 45.35319725 -7.69793582 39.63315523 C-7.69898236 36.22427327 -7.70486031 32.81556555 -7.72275543 29.40672684 C-7.73976449 25.61296697 -7.7379492 21.81966118 -7.73144531 18.02587891 C-7.7406601 16.9016452 -7.74987488 15.7774115 -7.7593689 14.61911011 C-7.75379974 13.58477844 -7.74823059 12.55044678 -7.74249268 11.48477173 C-7.74395924 10.58924906 -7.7454258 9.69372639 -7.7469368 8.77106667 C-7.00397748 3.73513048 -5.06909331 0.37548839 0 0 Z " fill="#E19201" transform="translate(356.375,140.75)"/>
<path d="M0 0 C2.375 2.25 2.375 2.25 4 5 C4.36867188 5.56460938 4.73734375 6.12921875 5.1171875 6.7109375 C8.47080942 12.37740213 8.42721177 17.54435543 8 24 C6.88428973 22.3264346 5.79361957 20.63257517 4.80859375 18.87890625 C1.0967372 12.60787796 -2.09793082 10.11689711 -9 8 C-10.01707031 7.63003906 -11.03414062 7.26007813 -12.08203125 6.87890625 C-39.16353573 -1.60056807 -74.8904703 3.14107222 -100.5 15.1875 C-107.37195924 18.78596539 -113.47251882 23.94503763 -117 31 C-118.80171204 31.46829224 -118.80171204 31.46829224 -121.1809082 31.77783203 C-122.06885574 31.89780548 -122.95680328 32.01777893 -123.87165833 32.14138794 C-124.83826889 32.26230804 -125.80487946 32.38322815 -126.80078125 32.5078125 C-128.28266182 32.70333206 -128.28266182 32.70333206 -129.79447937 32.90280151 C-131.88969409 33.1775814 -133.98548852 33.44797056 -136.08178711 33.71435547 C-139.28950219 34.12207683 -142.4953914 34.54220643 -145.70117188 34.96484375 C-147.73428001 35.22989633 -149.7674804 35.4942424 -151.80078125 35.7578125 C-153.24158806 35.94526535 -153.24158806 35.94526535 -154.71150208 36.13650513 C-156.05760811 36.30700882 -156.05760811 36.30700882 -157.4309082 36.48095703 C-158.21842972 36.58151398 -159.00595123 36.68207092 -159.81733704 36.78567505 C-162 37 -162 37 -166 37 C-165.93999894 35.3739713 -165.8512115 33.74898451 -165.75 32.125 C-165.70359375 31.22007812 -165.6571875 30.31515625 -165.609375 29.3828125 C-165 27 -165 27 -163.25683594 25.89990234 C-160.87815167 24.95141357 -158.8195413 24.53779215 -156.28125 24.21875 C-154.89679688 24.04158447 -154.89679688 24.04158447 -153.484375 23.86083984 C-152.49953125 23.7417627 -151.5146875 23.62268555 -150.5 23.5 C-149.48421875 23.36674316 -148.4684375 23.23348633 -147.421875 23.09619141 C-142.37460166 22.45194212 -137.36429168 21.9263854 -132.28125 21.6796875 C-123.35824526 21.56453426 -123.35824526 21.56453426 -115.484375 18.0859375 C-113.7893681 15.8030228 -112.4193414 13.45991427 -111 11 C-101.35443286 1.12959446 -86.08610011 -2.30959619 -73 -5 C-72.29311035 -5.15098145 -71.5862207 -5.30196289 -70.85791016 -5.45751953 C-48.69836275 -10.05405129 -20.43542622 -11.64646113 0 0 Z " fill="#820231" transform="translate(296,205)"/>
<path d="M0 0 C0.33 0 0.66 0 1 0 C1.12375 1.06992187 1.2475 2.13984375 1.375 3.2421875 C3.96501558 23.22135406 9.98459763 42.96919527 19 61 C19.29841797 61.60199219 19.59683594 62.20398438 19.90429688 62.82421875 C26.40542919 75.71652765 34.82895152 86.47891337 48 93 C48.99 93.495 48.99 93.495 50 94 C75.71670535 96.69445587 96.80393956 84.05539341 116.27734375 68.30078125 C117.62505859 67.16189453 117.62505859 67.16189453 119 66 C119.80566406 65.33355469 120.61132812 64.66710937 121.44140625 63.98046875 C127.69671323 58.59080557 133.25644834 52.56161402 138.88134766 46.5324707 C143.2602083 41.83920641 147.6719464 37.18717339 152.1875 32.625 C152.70352783 32.09616211 153.21955566 31.56732422 153.7512207 31.02246094 C156.60806458 28.15760149 159.3351323 25.75092526 163 24 C169.42857143 24.42857143 169.42857143 24.42857143 171 26 C171.45985401 32.2080292 171.45985401 32.2080292 169.875 34.9375 C168 36 168 36 165.31640625 35.72265625 C160.60432767 36.116717 158.45893545 38.38462967 155.0625 41.5 C154.13401245 42.32431519 154.13401245 42.32431519 153.18676758 43.1652832 C149.39272272 46.5819755 145.88476086 50.12164208 142.640625 54.0703125 C139.991393 57.18631395 137.02781032 59.98211086 134.11328125 62.84765625 C132.32494216 64.66905151 130.71866901 66.51135827 129.125 68.5 C117.52705062 82.34064678 99.51649991 92.35013436 83.5625 100.375 C82.90040527 100.70878662 82.23831055 101.04257324 81.55615234 101.38647461 C71.02771929 106.57333503 59.41379466 108.17470728 47.88671875 105.1953125 C45.32967005 104.0126265 43.24355542 102.70269831 41 101 C40.175 100.37996094 39.35 99.75992188 38.5 99.12109375 C26.91882582 89.53484744 20.12651761 76.44235919 14 63 C13.46503906 61.83082031 12.93007812 60.66164063 12.37890625 59.45703125 C4.48376369 40.98034697 -0.74045802 20.15691263 0 0 Z " fill="#830331" transform="translate(185,271)"/>
<path d="M0 0 C2.58455285 1.89533875 2.96275506 2.88826517 4 6 C4.0685495 7.89470816 4.08480372 9.7916834 4.0625 11.6875 C4.05347656 12.68136719 4.04445313 13.67523438 4.03515625 14.69921875 C4.02355469 15.45847656 4.01195312 16.21773437 4 17 C1 13.25 1 13.25 1 11 C-0.43655854 10.91868537 -1.8744483 10.86066441 -3.3125 10.8125 C-4.11300781 10.77769531 -4.91351563 10.74289063 -5.73828125 10.70703125 C-8.59275307 11.07678149 -9.15365776 11.8394699 -11 14 C-12.89624237 17.32045351 -14.41206457 20.83579983 -16 24.3125 C-16.50619873 25.41392334 -17.01239746 26.51534668 -17.53393555 27.65014648 C-24.2319637 42.37468449 -30.29003645 57.38334973 -36.41836548 72.35110474 C-37.18789386 74.22938688 -37.95948729 76.10682444 -38.73324585 77.98336792 C-40.5157766 82.31619589 -42.26083734 86.65503629 -43.91064453 91.0402832 C-44.21169601 91.82157089 -44.5127475 92.60285858 -44.82292175 93.40782166 C-45.37530648 94.84586307 -45.91231379 96.28996041 -46.42964172 97.74098206 C-48.33220524 102.63145115 -50.6631915 104.63173273 -55.25 107.0625 C-58.43446857 108.32739678 -60.57443682 109 -64 109 C-63.67 104.71 -63.34 100.42 -63 96 C-62.34 96.33 -61.68 96.66 -61 97 C-58.5983685 96.22835994 -58.5983685 96.22835994 -56 95.0625 C-51.18983051 93 -51.18983051 93 -49 93 C-48.83056885 92.39599869 -48.6611377 91.79199738 -48.48657227 91.16969299 C-46.66913058 84.8821911 -44.45643156 78.87671566 -41.9375 72.83984375 C-41.54946198 71.89969925 -41.16142395 70.95955475 -40.7616272 69.99092102 C-39.51304584 66.9708882 -38.25700038 63.95403731 -37 60.9375 C-36.13714901 58.85842252 -35.27435626 56.77932086 -34.41162109 54.70019531 C-22.29111436 25.5458807 -22.29111436 25.5458807 -16 12 C-15.58588867 11.09443359 -15.17177734 10.18886719 -14.74511719 9.25585938 C-14.32133789 8.36189453 -13.89755859 7.46792969 -13.4609375 6.546875 C-13.08501465 5.74604492 -12.7090918 4.94521484 -12.32177734 4.12011719 C-9.00602725 -1.19831166 -5.90156999 -1.50221782 0 0 Z " fill="#820431" transform="translate(142,113)"/>
<path d="M0 0 C-0.61458229 8.0704358 -1.69225335 16.01385781 -3 24 C-7.82798108 25.76259627 -12.5797876 26.76661317 -17.625 27.625 C-18.37523438 27.7590625 -19.12546875 27.893125 -19.8984375 28.03125 C-23.33566034 28.62849794 -26.50045616 29 -30 29 C-29.3593824 26.64586054 -28.67461251 24.31986423 -27.9296875 21.99609375 C-26.95605873 19.00702968 -26.95605873 19.00702968 -26.3203125 15.91015625 C-25.1013061 11.63284617 -23.9919506 8.25305006 -20.07421875 5.78857422 C-13.75521463 2.7013751 -7.07514305 0 0 0 Z " fill="#830530" transform="translate(122,220)"/>
<path d="M0 0 C0.80308594 -0.02578125 1.60617188 -0.0515625 2.43359375 -0.078125 C4.5625 0.25 4.5625 0.25 6.359375 1.54296875 C7.5625 3.25 7.5625 3.25 7.375 6.8125 C6.5625 10.25 6.5625 10.25 4.5625 12.25 C4.0675 11.755 4.0675 11.755 3.5625 11.25 C-5.16766445 10.22321221 -13.82073346 12.48121172 -22.3125 14.25 C-24.41473124 14.68125166 -26.51746951 15.10968157 -28.62112427 15.53393555 C-30.51404327 15.91664628 -32.40527115 16.30769383 -34.29638672 16.69921875 C-37.4375 17.25 -37.4375 17.25 -41.4375 17.25 C-41.1075 12.96 -40.7775 8.67 -40.4375 4.25 C-40.1075 4.91 -39.7775 5.57 -39.4375 6.25 C-38.76283691 6.10377197 -38.08817383 5.95754395 -37.39306641 5.80688477 C-34.28407061 5.13641613 -31.17332723 4.47441693 -28.0625 3.8125 C-27.00160156 3.58240234 -25.94070312 3.35230469 -24.84765625 3.11523438 C-16.60793796 1.37124492 -8.43285291 0.16616459 0 0 Z " fill="#820231" transform="translate(179.4375,184.75)"/>
<path d="M0 0 C0.33 0 0.66 0 1 0 C0.43312769 8.23297048 -0.5728921 16.30093081 -1.9375 24.4375 C-2.29583719 26.62235251 -2.65391262 28.80724796 -3.01171875 30.9921875 C-3.1823584 32.02569336 -3.35299805 33.05919922 -3.52880859 34.12402344 C-4.39476952 39.40952591 -5.19983536 44.70417348 -6 50 C-8.43407005 50.86524753 -10.87143184 51.71742865 -13.3125 52.5625 C-14.00279297 52.80935547 -14.69308594 53.05621094 -15.40429688 53.31054688 C-20.66015625 55.11328125 -20.66015625 55.11328125 -24 54 C-21.87515715 48.87810806 -19.7426055 43.75951297 -17.60351562 38.64355469 C-16.88014683 36.91067033 -16.1587219 35.17697297 -15.43945312 33.44238281 C-10.71665923 22.05754725 -5.67732693 10.94203522 0 0 Z " fill="#850430" transform="translate(131,156)"/>
<path d="M0 0 C0.33 0 0.66 0 1 0 C1.86720551 13.3164224 -0.30252179 25.7028607 -2.703125 38.76953125 C-3.83729933 44.95468111 -4.7583463 51.13967206 -5.5625 57.375 C-5.68512207 58.24229736 -5.80774414 59.10959473 -5.93408203 60.00317383 C-6.60210925 64.72909237 -7.12510132 69.42946907 -7.5078125 74.1875 C-8.95152576 88.7845375 -8.95152576 88.7845375 -12.56933594 92.69726562 C-16.37021418 95.45464816 -20.52597316 96.9752083 -24.98632812 98.34423828 C-27.90602376 99.2950509 -30.57485473 100.68269751 -33.3125 102.0625 C-37.61934673 104.12688442 -37.61934673 104.12688442 -41 103 C-41.8125 100.3125 -41.8125 100.3125 -42 97 C-37.74903909 91.22946482 -31.20250339 89.00783738 -24.8125 86.1875 C-23.70712891 85.68541016 -22.60175781 85.18332031 -21.46289062 84.66601562 C-13.30787628 81 -13.30787628 81 -11 81 C-11.03464355 79.74695068 -11.06928711 78.49390137 -11.10498047 77.20288086 C-11.10048001 71.6086053 -10.25461248 66.25834579 -9.3203125 60.75390625 C-9.14748749 59.70275131 -8.97466248 58.65159637 -8.79660034 57.56858826 C-8.24611482 54.23207272 -7.68551444 50.89734364 -7.125 47.5625 C-6.75588846 45.32757659 -6.38739324 43.0925513 -6.01953125 40.85742188 C-5.66201045 38.69782519 -5.30395514 36.53831691 -4.9453125 34.37890625 C-4.78064484 33.38693741 -4.61597717 32.39496857 -4.44631958 31.37294006 C-3.5333353 25.94568551 -2.53557569 20.54783179 -1.4095459 15.16053772 C-0.82501898 12.07689689 -0.5747621 9.00460627 -0.375 5.875 C-0.30023438 4.75867188 -0.22546875 3.64234375 -0.1484375 2.4921875 C-0.09945312 1.66976562 -0.05046875 0.84734375 0 0 Z " fill="#800232" transform="translate(76,137)"/>
<path d="M0 0 C3.1875 0.3125 3.1875 0.3125 5.5625 1.875 C7.73205002 5.12932503 7.48201507 7.48380414 7.1875 11.3125 C4.07053979 12.20826193 1.17108099 12.46693389 -2.0625 12.625 C-9.89414858 13.21333813 -17.260507 15.27142081 -24.8125 17.3125 C-26.1325 17.6425 -27.4525 17.9725 -28.8125 18.3125 C-28.1525 14.3525 -27.4925 10.3925 -26.8125 6.3125 C-19.17868419 4.17542917 -11.72466955 2.10371696 -3.8125 1.3125 C-2.8125 0.3125 -2.8125 0.3125 0 0 Z " fill="#830331" transform="translate(457.8125,154.6875)"/>
<path d="M0 0 C0.33 0 0.66 0 1 0 C1.97466578 12.84392905 -0.82949167 25.73448954 -9 36 C-10.32 36 -11.64 36 -13 36 C-14.60546875 34.390625 -14.60546875 34.390625 -16.1875 32.25 C-19.81466297 27.86782671 -23.45461279 25.39639279 -29 24 C-32.41761381 24.10471172 -32.41761381 24.10471172 -35 25 C-34.4375 23.1875 -34.4375 23.1875 -33 21 C-30.68895182 19.94952356 -28.35416349 18.94992562 -26 18 C-24.30659973 16.48465046 -24.30659973 16.48465046 -23 15 C-21.70450101 16.09966775 -20.41373929 17.20491801 -19.125 18.3125 C-18.40570313 18.92738281 -17.68640625 19.54226562 -16.9453125 20.17578125 C-15 22 -15 22 -13 25 C-11.08451389 24.93882476 -11.08451389 24.93882476 -9 24 C-7.26225177 21.41438614 -7.26225177 21.41438614 -5.875 18.25 C-5.37742187 17.20328125 -4.87984375 16.1565625 -4.3671875 15.078125 C-2.08397999 9.93764638 -0.66195166 5.62658909 0 0 Z " fill="#840530" transform="translate(288,231)"/>
<path d="M0 0 C1.11246094 -0.01933594 2.22492188 -0.03867188 3.37109375 -0.05859375 C7.21766371 0.53934307 8.87793665 1.65387527 11.5625 4.4375 C12.10476552 8.85309065 12.05086965 10.70494552 9.5625 14.4375 C8.7375 13.9425 7.9125 13.4475 7.0625 12.9375 C2.04680116 10.78791478 -1.93031064 10.52579478 -7.1875 12.4375 C-13.02111299 17.62293376 -14.28212014 25.01874511 -15.4375 32.4375 C-15.7675 32.4375 -16.0975 32.4375 -16.4375 32.4375 C-16.7620334 22.70149797 -16.45056521 11.59247406 -10.4375 3.4375 C-7.13812202 0.22004788 -4.53097444 0.00523812 0 0 Z " fill="#800331" transform="translate(252.4375,225.5625)"/>
<path d="M0 0 C2.31 1.98 4.62 3.96 7 6 C3.97369862 9.22805481 0.79070243 12.01125793 -2.6875 14.75 C-8.0046267 18.93973593 -13.01763207 23.42046182 -18 28 C-19.5625 26.9375 -19.5625 26.9375 -21 25 C-21.05258947 20.50885891 -20.44946276 18.52886312 -17.5234375 15.0859375 C-16.48995928 14.16403453 -15.43964023 13.26073331 -14.375 12.375 C-13.83319092 11.9013501 -13.29138184 11.4277002 -12.7331543 10.93969727 C-8.9834645 7.70160867 -5.07453263 4.80690026 -1 2 C-0.67 1.34 -0.34 0.68 0 0 Z " fill="#820331" transform="translate(395,181)"/>
<path d="M0 0 C-0.33 3.96 -0.66 7.92 -1 12 C-8.25510812 14.90204325 -15.18861485 16.33962544 -23 16 C-22.38342404 12.40330692 -21.78937518 9.19425651 -20 6 C-17.50739041 4.6401266 -15.32478986 3.64034352 -12.6875 2.6875 C-12.02298828 2.42388672 -11.35847656 2.16027344 -10.67382812 1.88867188 C-6.78441609 0.40754068 -4.25896369 0 0 0 Z " fill="#062740" transform="translate(120,221)"/>
<path d="M0 0 C1.37972294 3.84141706 0.69220373 6.99121754 0.00390625 10.953125 C-0.10848892 11.61334656 -0.22088409 12.27356812 -0.33668518 12.95379639 C-0.6960064 15.05392702 -1.06658069 17.15188999 -1.4375 19.25 C-1.68368856 20.67695485 -1.92913968 22.10403715 -2.17382812 23.53125 C-2.77401473 27.02235052 -3.38430635 30.5115969 -4 34 C-5.41601714 34.48108275 -6.83284437 34.95978141 -8.25 35.4375 C-9.03890625 35.70433594 -9.8278125 35.97117188 -10.640625 36.24609375 C-12.74821988 36.91954708 -14.84753973 37.49150595 -17 38 C-13.11515125 27.98339843 -9.15207869 18.03055323 -4.5625 8.3125 C-4.22089844 7.58877197 -3.87929687 6.86504395 -3.52734375 6.11938477 C-1.14419181 1.14419181 -1.14419181 1.14419181 0 0 Z " fill="#082740" transform="translate(129,161)"/>
<path d="M0 0 C6.65050033 1.61372434 10.9044858 6.45822552 14.71875 11.90234375 C15.57409296 15.76564281 15.4601534 19.03057043 14.71875 22.90234375 C14.038125 22.20109375 13.3575 21.49984375 12.65625 20.77734375 C12.19605469 20.32746094 11.73585938 19.87757813 11.26171875 19.4140625 C10.20150648 18.37532288 9.16328842 17.31380257 8.14453125 16.234375 C4.76250825 12.91542003 2.61272408 11.51975902 -2.21875 11.52734375 C-3.57534299 11.62246379 -4.93140829 11.73705701 -6.28125 11.90234375 C-7.70166821 9.06150734 -7.59577272 7.04757097 -7.28125 3.90234375 C-5.07784075 0.46502533 -4.11560827 -0.12248834 0 0 Z " fill="#830231" transform="translate(389.28125,146.09765625)"/>
<path d="M0 0 C1.98 0 3.96 0 6 0 C5.39776253 9.47175724 4.04830847 18.77099414 2.5 28.125 C2.37427612 28.89348267 2.24855225 29.66196533 2.11901855 30.45373535 C-0.35752462 45.57809135 -3.03862041 60.66623378 -5.75 75.75 C-5.9461792 76.84298401 -6.1423584 77.93596802 -6.34448242 79.06207275 C-6.90941343 82.20330436 -7.47744599 85.34395595 -8.046875 88.484375 C-8.2143927 89.41424225 -8.3819104 90.3441095 -8.55450439 91.30215454 C-9.57548679 96.90132323 -10.73233685 102.45132981 -12 108 C-14.47717167 104.28424249 -14.30345742 102.40013262 -14 98 C-13.6915918 97.23453857 -13.38318359 96.46907715 -13.06542969 95.68041992 C-11.85080417 92.62465146 -11.27884316 89.72589501 -10.703125 86.48828125 C-10.46964355 85.19019531 -10.23616211 83.89210938 -9.99560547 82.5546875 C-9.74690307 81.1406544 -9.49837261 79.72659106 -9.25 78.3125 C-8.98755799 76.83976955 -8.72469238 75.36711452 -8.46142578 73.89453125 C-7.91219428 70.81647121 -7.36638852 67.73783093 -6.82324219 64.65869141 C-6.15630451 60.87901667 -5.48251172 57.10061398 -4.80563354 53.32270813 C-1.68651538 35.90988033 1.29133681 18.48230553 4 1 C2.68 0.67 1.36 0.34 0 0 Z " fill="#770D31" transform="translate(110,257)"/>
<path d="M0 0 C2.375 1.5625 2.375 1.5625 4 4 C4.56783945 7.97487617 4.62340519 10.06489221 2.375 13.4375 C-0.71685231 15.47161336 -2.36367425 15.60605429 -6 15 C-8.375 13.4375 -8.375 13.4375 -10 11 C-10.56783945 7.02512383 -10.62340519 4.93510779 -8.375 1.5625 C-5.28314769 -0.47161336 -3.63632575 -0.60605429 0 0 Z " fill="#DF9101" transform="translate(367,344)"/>
<path d="M0 0 C2.4375 1.8125 2.4375 1.8125 4 5 C4.3163533 8.69251722 4.23299662 12.30441471 4 16 C3.278125 15.175 2.55625 14.35 1.8125 13.5 C-0.71422494 10.84397469 -0.71422494 10.84397469 -3.5625 10.4375 C-7.88023333 11.4339 -9.63394579 14.45091869 -12 18 C-12.35164297 11.52716457 -12.17221678 6.73439187 -9 1 C-5.87139505 -0.56430248 -3.44397075 -0.35627284 0 0 Z " fill="#7D0332" transform="translate(416,129)"/>
<path d="M0 0 C3.1875 0.3125 3.1875 0.3125 5.5625 1.6875 C8.05713042 5.7172876 7.50485888 9.69316514 7.1875 14.3125 C6.1975 13.6525 5.2075 12.9925 4.1875 12.3125 C0.72980809 11.72907647 0.72980809 11.72907647 -2.8125 12.3125 C-5.28458796 14.67082772 -5.28458796 14.67082772 -6.8125 17.3125 C-7.36735582 5.57832698 -7.36735582 5.57832698 -3.8125 1.3125 C-2.8125 0.3125 -2.8125 0.3125 0 0 Z " fill="#800431" transform="translate(355.8125,129.6875)"/>
<path d="M0 0 C2.375 1.5625 2.375 1.5625 4 4 C4.46337203 8.40203429 4.48038907 10.2794164 2 14 C2 13.34 2 12.68 2 12 C0.1128125 11.9690625 0.1128125 11.9690625 -1.8125 11.9375 C-2.52019531 11.92589844 -3.22789062 11.91429687 -3.95703125 11.90234375 C-6.20305461 11.91736783 -6.20305461 11.91736783 -9 13 C-10.54586876 9.90826248 -10.29359521 7.40570448 -10 4 C-7.26646839 -0.10029741 -4.80388991 -0.80064832 0 0 Z " fill="#800331" transform="translate(367,333)"/>
<path d="M0 0 C-0.96095506 3.01390452 -1.97731066 6.00654879 -3 9 C-3.29003906 9.92039063 -3.58007812 10.84078125 -3.87890625 11.7890625 C-4.18699219 12.68367187 -4.49507812 13.57828125 -4.8125 14.5 C-5.08707031 15.3353125 -5.36164063 16.170625 -5.64453125 17.03125 C-7 19 -7 19 -10.13671875 19.78125 C-11.08160156 19.8534375 -12.02648437 19.925625 -13 20 C-12.47345713 5.39268159 -12.47345713 5.39268159 -8.93359375 2.046875 C-5.91528798 0.74847059 -3.28970051 0 0 0 Z " fill="#890B2E" transform="translate(86,233)"/>
<path d="M0 0 C3.5 0.625 3.5 0.625 5.5 2.625 C6.86317795 6.71453384 6.28668159 9.40552601 5.5 13.625 C4.51 12.965 3.52 12.305 2.5 11.625 C-1.72472236 11.88904515 -3.69205195 12.52455736 -6.5 15.625 C-6.74139945 11.02052906 -6.93398833 6.90143626 -5.4375 2.5 C-3.5 0.625 -3.5 0.625 0 0 Z " fill="#810231" transform="translate(83.5,117.375)"/>
<path d="M0 0 C3.1875 0.25 3.1875 0.25 5.5625 1.25 C8.19936327 4.49537018 7.57777373 7.15212584 7.1875 11.25 C6.5275 11.91 5.8675 12.57 5.1875 13.25 C4.8575 12.92 4.5275 12.59 4.1875 12.25 C2.84002916 12.01924918 1.48372435 11.83846937 0.125 11.6875 C-1.174375 11.543125 -2.47375 11.39875 -3.8125 11.25 C-3.83938151 9.60425434 -3.85884123 7.95838587 -3.875 6.3125 C-3.88660156 5.39597656 -3.89820313 4.47945312 -3.91015625 3.53515625 C-3.76530804 0.14570817 -3.42062126 0.30405522 0 0 Z " fill="#830331" transform="translate(423.8125,146.75)"/>
<path d="M0 0 C0.33 0 0.66 0 1 0 C1.86558686 13.29156718 -0.29054577 25.65420819 -2.6953125 38.6953125 C-4.07275508 46.19911376 -5.11569176 53.72435498 -6.01098633 61.29956055 C-6.11435303 62.13011963 -6.21771973 62.96067871 -6.32421875 63.81640625 C-6.40760498 64.53256104 -6.49099121 65.24871582 -6.5769043 65.98657227 C-7.04934592 68.23482734 -7.89524831 69.99466307 -9 72 C-9.59483576 61.78290553 -7.78528966 51.97138265 -6.125 41.9375 C-5.85212049 40.24165602 -5.57998018 38.54569293 -5.30859375 36.84960938 C-4.25260911 30.29944608 -3.19551557 23.75855744 -1.84375 17.26171875 C-1.05512158 13.47112157 -0.62197548 9.74428253 -0.375 5.875 C-0.30023438 4.75867188 -0.22546875 3.64234375 -0.1484375 2.4921875 C-0.09945312 1.66976562 -0.05046875 0.84734375 0 0 Z " fill="#85172C" transform="translate(76,137)"/>
<path d="M0 0 C0.33 0 0.66 0 1 0 C0.4238126 8.50718086 -0.65792702 16.84241477 -2.0625 25.25 C-2.24876953 26.38824219 -2.43503906 27.52648437 -2.62695312 28.69921875 C-3.08047411 31.46685961 -3.53820615 34.23372969 -4 37 C-4.66 37 -5.32 37 -6 37 C-5.05079383 28.38645894 -4.09580171 19.82034548 -2.4375 11.30859375 C-2.03566027 9.18817163 -1.71750028 7.07687716 -1.4375 4.9375 C-1 2 -1 2 0 0 Z " fill="#7D112F" transform="translate(131,156)"/>
<path d="M0 0 C-0.33 2.97 -0.66 5.94 -1 9 C-1.66 8.67 -2.32 8.34 -3 8 C-4.87056791 7.7724985 -6.74685958 7.59037189 -8.625 7.4375 C-10.12933594 7.31181641 -10.12933594 7.31181641 -11.6640625 7.18359375 C-12.43492187 7.12300781 -13.20578125 7.06242188 -14 7 C-9.80559946 3.42242307 -5.69511947 0 0 0 Z " fill="#880A2E" transform="translate(208,228)"/>
<path d="M0 0 C0.17835515 4.54805635 -0.00214565 7.8794254 -2 12 C-3.32 11.67 -4.64 11.34 -6 11 C-6.33 8.69 -6.66 6.38 -7 4 C-1.7826087 0 -1.7826087 0 0 0 Z " fill="#7F0631" transform="translate(62,244)"/>
<path d="M0 0 C0.33 0 0.66 0 1 0 C1.48181362 2.97875968 1.96050857 5.95796749 2.4375 8.9375 C2.57220703 9.76830078 2.70691406 10.59910156 2.84570312 11.45507812 C3.24658266 13.96790841 3.6282432 16.48270328 4 19 C4.12906738 19.8470752 4.25813477 20.69415039 4.39111328 21.56689453 C4.50052246 22.3711084 4.60993164 23.17532227 4.72265625 24.00390625 C4.87553101 25.0858728 4.87553101 25.0858728 5.03149414 26.18969727 C5 28 5 28 3 30 C-0.57446809 9.46808511 -0.57446809 9.46808511 0 0 Z " fill="#7A0D30" transform="translate(185,271)"/>
<path d="M0 0 C0.66 0 1.32 0 2 0 C0.92373883 7.40788271 -0.27135661 14.71500286 -2 22 C-4.47717167 18.28424249 -4.30345742 16.40013262 -4 12 C-3.125 9.5 -3.125 9.5 -2 7 C-1.31320058 4.67251306 -0.64238957 2.34013344 0 0 Z " fill="#870E2E" transform="translate(100,343)"/>
<path d="M0 0 C2.61895048 4.77573323 1.83119431 8.84434881 1 14 C-0.56073255 11.65890118 -1.86373867 9.43666597 -3.125 6.9375 C-3.65480469 5.89916016 -3.65480469 5.89916016 -4.1953125 4.83984375 C-5 3 -5 3 -5 1 C-3 0 -3 0 0 0 Z " fill="#7F0930" transform="translate(428,189)"/>
<path d="M0 0 C0.33 0 0.66 0 1 0 C0.50873071 6.36559573 0.00344253 12.69264693 -1 19 C-1.33 19 -1.66 19 -2 19 C-2.05411124 16.58303128 -2.09372278 14.16728213 -2.125 11.75 C-2.14175781 11.06808594 -2.15851563 10.38617188 -2.17578125 9.68359375 C-2.21213482 5.9391765 -2.07944349 3.17647273 0 0 Z " fill="#89172B" transform="translate(131,156)"/>
<path d="M0 0 C0.33 0.66 0.66 1.32 1 2 C0.3125 4.0625 0.3125 4.0625 -1 6 C-3.125 6.75 -3.125 6.75 -5 7 C-5 5.35 -5 3.7 -5 2 C-3.35 1.34 -1.7 0.68 0 0 Z " fill="#13293D" transform="translate(80,235)"/>
</svg>
