<?xml version="1.0" encoding="UTF-8"?>
<svg version="1.1" xmlns="http://www.w3.org/2000/svg" width="500" height="500">
<path d="M0 0 C165 0 330 0 500 0 C500 165 500 330 500 500 C335 500 170 500 0 500 C0 335 0 170 0 0 Z " fill="#FEFEFE" transform="translate(0,0)"/>
<path d="M0 0 C2.58455285 1.89533875 2.96275506 2.88826517 4 6 C4.36020943 11.30455779 4.39437175 16.62207967 4.4375 21.9375 C4.44825562 23.11777771 4.44825562 23.11777771 4.45922852 24.32189941 C4.54595552 42.59269498 1.599419 60.13692593 -2 78 C-1.32533691 77.85377197 -0.65067383 77.70754395 0.04443359 77.55688477 C3.15342939 76.88641613 6.26417277 76.22441693 9.375 75.5625 C10.43589844 75.33240234 11.49679688 75.10230469 12.58984375 74.86523438 C20.82956204 73.12124492 29.00464709 71.91616459 37.4375 71.75 C38.24058594 71.72421875 39.04367188 71.6984375 39.87109375 71.671875 C42 72 42 72 43.80859375 73.25 C45.36987551 75.54329255 45.12411375 76.55666921 44.625 79.25 C44.10197257 82.56610177 44.07202335 84.39940224 44.6875 87.8125 C45 91 45 91 43.1875 93.375 C40.03973275 95.71334139 38.19186616 96.14820181 34.328125 96.359375 C20.11577151 97.26366803 6.78533293 99.44512084 -7 103 C-7.99 107.95 -8.98 112.9 -10 118 C-8.69498535 117.68554932 -7.3899707 117.37109863 -6.04541016 117.04711914 C-1.44925449 116.02722826 3.03726611 115.55583041 7.7265625 115.24609375 C9.35174134 115.11350222 10.97673862 114.97866959 12.6015625 114.84179688 C15.11989326 114.63308321 17.63619161 114.43679567 20.15820312 114.27807617 C29.97904444 113.96629719 29.97904444 113.96629719 38.58081055 109.95239258 C40.30100597 107.70956003 41.61870946 105.45793692 43 103 C51.85119598 94.27494368 65.11021191 90.38311029 77 88 C77.7739209 87.83226074 78.5478418 87.66452148 79.34521484 87.49169922 C102.8073711 82.46315157 132.11946632 79.52995009 154 92 C156.375 94.25 156.375 94.25 158 97 C158.68320312 98.12148437 159.36640625 99.24296875 160.0703125 100.3984375 C162.79017095 105.90574407 162.60101069 111.33950113 162.5 117.375 C162.48296021 119.09722778 162.48296021 119.09722778 162.46557617 120.85424805 C162.06362832 138.66066245 158.00030379 158.88855135 145.75 172.5 C141.76173949 174.67541482 138.44368332 174.73938158 134 174 C130.20518786 172.7109477 127.1036912 170.99332208 124.125 168.3125 C122.37587285 164.71707198 121.71132944 160.91649623 121 157 C120.34 157 119.68 157 119 157 C118.79375 158.155 118.5875 159.31 118.375 160.5 C116.85395534 166.64983524 113.23929314 171.50713791 108 175 C104.625 175.4375 104.625 175.4375 101 175 C97.25965024 172.09083908 95.45459695 169.45218063 94 165 C93.74121094 162.17602539 93.74121094 162.17602539 93.734375 159.09765625 C93.73018555 157.96626221 93.72599609 156.83486816 93.72167969 155.66918945 C93.73569824 153.88387817 93.73569824 153.88387817 93.75 152.0625 C93.75676758 150.84715576 93.76353516 149.63181152 93.77050781 148.37963867 C94.0364215 125.29616649 94.0364215 125.29616649 100 116 C103.30770357 112.78936222 105.90279208 112.56774244 110.4375 112.5625 C111.54996094 112.54316406 112.66242188 112.52382812 113.80859375 112.50390625 C117.70240884 113.10918718 119.35470888 114.09459677 122 117 C122.453125 119.62109375 122.453125 119.62109375 122.25 122.4375 C122.02121636 126.17603272 121.8479253 129.4019821 123 133 C124.74859766 134.98032314 124.74859766 134.98032314 126.9375 136.625 C129.55149144 138.72188606 131.11077516 140.16616274 133 143 C134.91548611 142.93882476 134.91548611 142.93882476 137 142 C138.73774823 139.41438614 138.73774823 139.41438614 140.125 136.25 C140.62257813 135.20328125 141.12015625 134.1565625 141.6328125 133.078125 C142.08398438 132.06234375 142.53515625 131.0465625 143 130 C143.38542969 129.14148438 143.77085937 128.28296875 144.16796875 127.3984375 C145.03632832 124.89527893 145.2373469 123.01235426 145.1875 120.375 C145.18105469 119.61960937 145.17460937 118.86421875 145.16796875 118.0859375 C145.06799129 115.80553743 145.06799129 115.80553743 144 113 C133.08840531 108.68611373 120.19761703 108.58698421 108.625 108.5625 C107.33875732 108.55863281 106.05251465 108.55476563 104.72729492 108.55078125 C93.12558647 108.68818968 82.26397871 110.6050081 71.06762695 113.54101562 C69 114 69 114 66 114 C66.08701172 115.89685547 66.08701172 115.89685547 66.17578125 117.83203125 C66.22267728 119.49215065 66.26817761 121.15230989 66.3125 122.8125 C66.35439453 123.64587891 66.39628906 124.47925781 66.43945312 125.33789062 C66.4860143 127.65663701 66.47048064 129.72797179 66 132 C61.11461558 136.2767675 54.97409504 136.04501269 48.76171875 136.01953125 C47.42113403 136.01530151 47.42113403 136.01530151 46.0534668 136.01098633 C45.37582275 136.00736084 44.69817871 136.00373535 44 136 C43.18897495 165.26760637 48.82148782 192.64297564 62 219 C62.29841797 219.60199219 62.59683594 220.20398438 62.90429688 220.82421875 C69.40542919 233.71652765 77.82895152 244.47891337 91 251 C91.66 251.33 92.32 251.66 93 252 C117.55273106 254.83300743 137.14965334 243.39013916 156.125 228.8125 C158.09833757 227.22682697 160.05815583 225.62408785 162 224 C163.21236328 222.99839844 163.21236328 222.99839844 164.44921875 221.9765625 C170.69873758 216.58441567 176.25822504 210.55970964 181.88134766 204.5324707 C186.2602083 199.83920641 190.6719464 195.18717339 195.1875 190.625 C195.70352783 190.09616211 196.21955566 189.56732422 196.7512207 189.02246094 C199.60806458 186.15760149 202.3351323 183.75092526 206 182 C212.42857143 182.42857143 212.42857143 182.42857143 214 184 C214.13568319 187.66344611 214.16461426 190.50615721 213 194 C213.33 194.33 213.66 194.66 214 195 C214.61470424 197.88910994 214.75744021 199.20565976 214 202 C211.42716612 205.72663052 208.20231729 208.81941087 205 212 C203.85429983 213.1681255 202.70982997 214.3374586 201.56640625 215.5078125 C195.58773636 221.59267978 189.5434298 227.52064197 183 233 C182.07316406 233.804375 181.14632813 234.60875 180.19140625 235.4375 C156.56167188 255.88994051 130.32220638 275.56609946 97.7890625 275.27734375 C88.54126206 274.60044289 81.29429407 270.46712376 74 265 C72.515 263.9171875 72.515 263.9171875 71 262.8125 C62.19135063 255.12318177 56.42684088 245.17083423 51 235 C50.32517578 233.80697266 50.32517578 233.80697266 49.63671875 232.58984375 C33.84839238 203.43029636 29.24465876 169.58038552 30 137 C25.82267875 137.38562266 21.64589116 137.77652034 17.46948242 138.171875 C16.05489786 138.30508772 14.64018725 138.43697011 13.2253418 138.56738281 C4.09174122 139.41038464 -4.94765126 140.48332516 -14 142 C-19.71284372 170.93049082 -19.71284372 170.93049082 -23.72216797 200.13525391 C-24 202 -24 202 -25 205 C-25.19355048 206.72933149 -25.38261005 208.45932902 -25.54467773 210.19189453 C-26.42671373 219.57021304 -27.86637907 228.8395119 -29.4375 238.125 C-29.6427832 239.36942871 -29.84806641 240.61385742 -30.05957031 241.89599609 C-32.80888357 257.80888357 -32.80888357 257.80888357 -37 262 C-40.5 262.25 -40.5 262.25 -44 262 C-46.66788579 259.33211421 -46.26148845 257.29944656 -46.2734375 253.66992188 C-46.26183594 252.44112305 -46.26183594 252.44112305 -46.25 251.1875 C-46.25773437 250.37990234 -46.26546875 249.57230469 -46.2734375 248.74023438 C-46.27085938 247.95326172 -46.26828125 247.16628906 -46.265625 246.35546875 C-46.26336914 245.64028076 -46.26111328 244.92509277 -46.25878906 244.18823242 C-45.94615308 241.54468871 -44.99635713 239.46621242 -44 237 C-43.51773429 234.83998087 -43.09060201 232.6673004 -42.703125 230.48828125 C-42.46964355 229.19011475 -42.23616211 227.89194824 -41.99560547 226.55444336 C-41.74692047 225.14048858 -41.49838951 223.72650671 -41.25 222.3125 C-40.98756746 220.84050024 -40.72470171 219.36857766 -40.46142578 217.89672852 C-39.7727359 214.03873931 -39.09070454 210.17960143 -38.41003418 206.32019043 C-37.87839552 203.31189751 -37.34213766 200.30443799 -36.80561829 197.29701233 C-34.1737755 182.54029308 -31.57018439 167.78057869 -29.20458984 152.97827148 C-29.05844238 152.07794189 -28.91229492 151.1776123 -28.76171875 150.25 C-28.63756592 149.47140625 -28.51341309 148.6928125 -28.38549805 147.890625 C-28 146 -28 146 -27 144 C-43.34688708 144.73361707 -43.34688708 144.73361707 -57.08056641 152.22070312 C-60.36406753 157.92278312 -61.80095073 164.19275726 -63.20214844 170.57568359 C-64.28454555 175.22124722 -65.78743773 179.69096598 -67.28149414 184.2175293 C-70.30975126 193.48079136 -72.86041283 202.70240284 -74.33203125 212.33984375 C-75.04974522 215.19810815 -75.61451509 216.30763419 -78 218 C-81.03785083 218.37973135 -83.05478394 218.6233519 -85.66479492 216.90209961 C-87.67603582 214.03693636 -87.3716254 211.66099226 -87.36328125 208.19140625 C-87.36511665 207.17939651 -87.36511665 207.17939651 -87.36698914 206.14694214 C-87.36518196 203.95171673 -87.33991756 201.75754375 -87.3125 199.5625 C-87.30386098 198.056723 -87.29539795 196.55094498 -87.28710938 195.04516602 C-87.20051756 185.29291142 -86.6771063 175.67604164 -85.4375 165.99609375 C-84.34434022 158.14666153 -84.34434022 158.14666153 -87 151 C-86.94140625 148.984375 -86.94140625 148.984375 -86.5625 146.75 C-85.97053996 142.54433042 -86.20348944 139.15955514 -87 135 C-88.134375 135.639375 -89.26875 136.27875 -90.4375 136.9375 C-94.83315552 139.11580886 -99.05418264 140.40810281 -104 140 C-106.5625 138.375 -106.5625 138.375 -108 136 C-108.55156953 132.23094157 -108.16551116 131.24826674 -106 128 C-106.66 127.01 -107.32 126.02 -108 125 C-108.125 122.125 -108.125 122.125 -107 119 C-101.66494274 114.61190669 -94.89014541 111.95207591 -88.625 109.1875 C-87.72394531 108.78080078 -86.82289062 108.37410156 -85.89453125 107.95507812 C-79.26919643 105 -79.26919643 105 -77 105 C-76.95153931 103.86800171 -76.95153931 103.86800171 -76.90209961 102.71313477 C-76.26225098 91.32015862 -74.41494455 80.18468616 -72.5625 68.9375 C-72.24616832 66.99163008 -71.93040984 65.0456669 -71.61523438 63.09960938 C-71.01119864 59.37409862 -70.40686445 55.64863717 -69.80151367 51.92333984 C-69.66401703 51.07688904 -69.52652039 50.23043823 -69.38485718 49.3583374 C-69.04836973 47.29640125 -68.70685709 45.23528643 -68.36450195 43.17431641 C-67.02697573 34.91439693 -66.3665607 26.68503513 -65.87695312 18.3359375 C-65.17787748 8.4858987 -65.17787748 8.4858987 -62 5 C-58.5 4.5 -58.5 4.5 -55 5 C-53.30574036 6.29045105 -53.30574036 6.29045105 -52 8 C-51.69502596 10.99862634 -51.5848833 13.74133614 -51.63671875 16.73828125 C-51.64961189 18.06222649 -51.64961189 18.06222649 -51.6627655 19.41291809 C-51.88292856 30.10021195 -53.33409215 40.61535749 -54.8125 51.1875 C-55.07729044 53.1684706 -55.34096533 55.14959063 -55.60351562 57.13085938 C-56.88300728 66.65873016 -58.26122612 76.15069894 -60.09541321 85.58964539 C-60.82441238 89.44841188 -61.12591262 93.07477803 -61 97 C-60.30132812 96.71125 -59.60265625 96.4225 -58.8828125 96.125 C-57.97273438 95.75375 -57.06265625 95.3825 -56.125 95 C-55.22007813 94.62875 -54.31515625 94.2575 -53.3828125 93.875 C-51 93 -51 93 -49 93 C-48.83056885 92.39599869 -48.6611377 91.79199738 -48.48657227 91.16969299 C-46.66913058 84.8821911 -44.45643156 78.87671566 -41.9375 72.83984375 C-41.54946198 71.89969925 -41.16142395 70.95955475 -40.7616272 69.99092102 C-39.51304584 66.9708882 -38.25700038 63.95403731 -37 60.9375 C-36.13714901 58.85842252 -35.27435626 56.77932086 -34.41162109 54.70019531 C-22.29111436 25.5458807 -22.29111436 25.5458807 -16 12 C-15.58588867 11.09443359 -15.17177734 10.18886719 -14.74511719 9.25585938 C-14.32133789 8.36189453 -13.89755859 7.46792969 -13.4609375 6.546875 C-13.08501465 5.74604492 -12.7090918 4.94521484 -12.32177734 4.12011719 C-9.00602725 -1.19831166 -5.90156999 -1.50221782 0 0 Z " fill="#E39403" transform="translate(142,113)"/>
<path d="M0 0 C3.85059004 3.70567536 4.53782559 6.56118344 4.75 11.8125 C4.80671875 12.97394531 4.8634375 14.13539063 4.921875 15.33203125 C4.96054687 16.65267578 4.96054687 16.65267578 5 18 C5.94101562 17.979375 6.88203125 17.95875 7.8515625 17.9375 C11 18 11 18 13.375 19 C15.57388038 21.70631432 15.3604746 23.66681117 15.23828125 27.0625 C15 29 15 29 14 32 C15.59328125 31.58427734 15.59328125 31.58427734 17.21875 31.16015625 C18.64576737 30.79401364 20.07285448 30.42814278 21.5 30.0625 C22.19609375 29.88009766 22.8921875 29.69769531 23.609375 29.50976562 C27.22662767 28.58870592 30.75728897 27.85693227 34.46875 27.43359375 C37.81465802 27.39056168 37.81465802 27.39056168 39 26 C42.40005124 25.62221653 44.30442839 25.52249949 47.16796875 27.48828125 C49.80722453 31.10670656 49.58900484 34.13134586 49.5 38.5 C49.52320313 39.63888672 49.52320313 39.63888672 49.546875 40.80078125 C49.52182263 44.37700717 49.41271811 46.40190023 47.34765625 49.39453125 C40.44977216 54.11171987 31.75711059 55.23902801 23.58984375 55.71875 C19.50808809 56.16201758 15.80501215 57.50618042 12 59 C12.32226562 59.81210938 12.64453125 60.62421875 12.9765625 61.4609375 C14.18196975 65.62925418 14.36751518 69.31374117 14.375 73.625 C14.41173828 74.75035156 14.41173828 74.75035156 14.44921875 75.8984375 C14.46826898 79.47987992 14.31361592 81.5736158 12.1640625 84.49609375 C9.23011628 86.53502749 7.50346761 86.51092236 4 86 C1.625 84.6875 1.625 84.6875 0 83 C0 82.01 0 81.02 0 80 C-1.051875 80.268125 -2.10375 80.53625 -3.1875 80.8125 C-7 81 -7 81 -9.8125 78.5625 C-10.534375 77.716875 -11.25625 76.87125 -12 76 C-15.12808842 76 -16.37434701 77.97559421 -18.625 80.0625 C-19.52089844 80.87589844 -20.41679687 81.68929687 -21.33984375 82.52734375 C-22.98293822 84.05462539 -24.6051609 85.6051609 -26.19140625 87.19140625 C-31.11025705 91.95624215 -31.11025705 91.95624215 -35.8125 92.1875 C-39 91 -39 91 -41 89.4375 C-42.23558799 86.42575426 -41.81593391 84.22895772 -41.23828125 81.078125 C-40.85310596 78.73486338 -40.85310596 78.73486338 -41.8125 75.4375 C-42.01403461 71.74269873 -41.93304341 71.33048115 -39.75 68.625 C-36.02505317 64.75140505 -31.79966758 61.43587233 -27.5859375 58.11328125 C-25.23305732 56.19045923 -23.10434253 54.18831864 -21 52 C-21.85464844 51.15695313 -22.70929688 50.31390625 -23.58984375 49.4453125 C-24.70586047 48.33867407 -25.82173872 47.23189598 -26.9375 46.125 C-27.50146484 45.56941406 -28.06542969 45.01382813 -28.64648438 44.44140625 C-33.95023779 39.16941183 -33.95023779 39.16941183 -34.125 35.0625 C-34 32 -34 32 -33 29 C-33.33 28.34 -33.66 27.68 -34 27 C-34.38750052 23.43499524 -34.39435894 21.61519994 -32.4375 18.5625 C-30 17 -30 17 -26.6875 17.0859375 C-22.25945674 18.18356687 -20.63087501 19.74192978 -17.5625 23.0625 C-16.69753906 23.98160156 -15.83257812 24.90070313 -14.94140625 25.84765625 C-14.30074219 26.55792969 -13.66007812 27.26820313 -13 28 C-12.98541748 27.43079834 -12.97083496 26.86159668 -12.95581055 26.27514648 C-12.88070835 23.66196172 -12.78425811 21.04996901 -12.6875 18.4375 C-12.66494141 17.54224609 -12.64238281 16.64699219 -12.61914062 15.72460938 C-12.39363765 10.12803557 -11.68956628 5.94747377 -9 1 C-5.87139505 -0.56430248 -3.44397075 -0.35627284 0 0 Z " fill="#E49402" transform="translate(416,129)"/>
<path d="M0 0 C3.1875 0.3125 3.1875 0.3125 5.35497284 1.94731808 C7.70445741 4.97971975 7.69020166 6.65602737 7.69543457 10.46791077 C7.70671387 11.73119705 7.71799316 12.99448334 7.72961426 14.29605103 C7.7218373 15.69354477 7.71364464 17.09103626 7.70507812 18.48852539 C7.71049895 19.9620686 7.71762139 21.43560639 7.72631836 22.90913391 C7.74455808 26.90910601 7.73748215 30.90866558 7.72480202 34.90864491 C7.71467952 39.09262665 7.72406542 43.27657292 7.73034668 47.46055603 C7.73762449 54.48589424 7.72803111 61.51106427 7.70898438 68.53637695 C7.68720682 76.66287835 7.69427271 84.78897848 7.71629 92.91547018 C7.73443017 99.88967264 7.73700938 106.86375416 7.72653532 113.83797258 C7.72029383 118.00477615 7.7194828 122.17139095 7.73268127 126.33818245 C7.74421948 130.25435784 7.7362519 134.17001471 7.71310425 138.08613396 C7.70780655 139.52488213 7.70934908 140.96367381 7.71815491 142.40240479 C7.72905002 144.36294517 7.71297805 146.32358071 7.69543457 148.28407288 C7.69392647 149.3822638 7.69241837 150.48045473 7.69086456 151.61192417 C7.1875 154.3125 7.1875 154.3125 5.31200409 156.1580267 C2.60749869 157.62767756 1.21829279 157.91865856 -1.8125 157.3125 C-5.02152932 154.40873797 -6.07821709 152.02509798 -6.45019531 147.82617188 C-6.53405686 145.97867726 -6.59585539 144.130105 -6.640625 142.28125 C-6.67949326 141.25393265 -6.71836151 140.2266153 -6.75840759 139.16816711 C-6.88105677 135.71661918 -6.97298547 132.26505645 -7.0625 128.8125 C-7.13829287 126.36938058 -7.21422406 123.92626544 -7.2902832 121.4831543 C-7.92473422 99.36849371 -7.99304831 77.24736048 -8 55.125 C-8.00058914 54.27829742 -8.00117828 53.43159485 -8.00178528 52.55923462 C-8.00471056 47.62601987 -8.00066348 42.69289143 -7.98651314 37.75969505 C-7.98256012 36.25375868 -7.98000403 34.74781784 -7.97901726 33.2418766 C-7.94547438 0.88283049 -7.94547438 0.88283049 0 0 Z " fill="#E39406" transform="translate(355.8125,129.6875)"/>
<path d="M0 0 C2.4375 2.4375 2.4375 2.4375 4 5 C4.5775 5.70125 5.155 6.4025 5.75 7.125 C7.70791754 11.62821034 7.22888371 16.15953347 7 21 C6.443125 20.278125 5.88625 19.55625 5.3125 18.8125 C-2.58579591 9.20646444 -12.81520281 5.56313907 -25 4 C-51.89513966 2.18755285 -83.65154004 3.70778407 -107 19 C-110.84711031 22.53403512 -114.64234758 26.28469516 -117 31 C-118.80171204 31.46829224 -118.80171204 31.46829224 -121.1809082 31.77783203 C-122.06885574 31.89780548 -122.95680328 32.01777893 -123.87165833 32.14138794 C-124.83826889 32.26230804 -125.80487946 32.38322815 -126.80078125 32.5078125 C-128.28266182 32.70333206 -128.28266182 32.70333206 -129.79447937 32.90280151 C-131.88969409 33.1775814 -133.98548852 33.44797056 -136.08178711 33.71435547 C-139.28950219 34.12207683 -142.4953914 34.54220643 -145.70117188 34.96484375 C-147.73428001 35.22989633 -149.7674804 35.4942424 -151.80078125 35.7578125 C-153.24158806 35.94526535 -153.24158806 35.94526535 -154.71150208 36.13650513 C-156.05760811 36.30700882 -156.05760811 36.30700882 -157.4309082 36.48095703 C-158.21842972 36.58151398 -159.00595123 36.68207092 -159.81733704 36.78567505 C-162 37 -162 37 -166 37 C-165.93999894 35.3739713 -165.8512115 33.74898451 -165.75 32.125 C-165.70359375 31.22007812 -165.6571875 30.31515625 -165.609375 29.3828125 C-165 27 -165 27 -163.23005676 25.88502502 C-160.95019392 24.98023385 -159.14724577 24.6468932 -156.7097168 24.45678711 C-155.87172043 24.38588364 -155.03372406 24.31498016 -154.17033386 24.2419281 C-153.27236588 24.17111526 -152.37439789 24.10030243 -151.44921875 24.02734375 C-149.5343161 23.84902443 -147.6196067 23.66861986 -145.70507812 23.48632812 C-142.69766826 23.20601585 -139.69144212 22.93780432 -136.67993164 22.70532227 C-125.3209071 22.26039907 -125.3209071 22.26039907 -115.2097168 17.92114258 C-113.49317285 15.68010541 -112.28353051 13.50195847 -111 11 C-102.18823624 2.26102129 -88.86432182 -1.621994 -77 -4 C-76.2260791 -4.16773926 -75.4521582 -4.33547852 -74.65478516 -4.50830078 C-51.26700833 -9.52090699 -21.7927874 -12.5320046 0 0 Z " fill="#870635" transform="translate(296,205)"/>
<path d="M0 0 C2.21478612 3.32217918 2.53445336 5.34048587 3.1875 9.25 C6.23261356 25.72373428 11.50755052 42.01105762 19 57 C19.29986816 57.60634277 19.59973633 58.21268555 19.90869141 58.83740234 C26.40843301 71.72345801 34.83555118 82.48218092 48 89 C48.99 89.495 48.99 89.495 50 90 C74.55273106 92.83300743 94.14965334 81.39013916 113.125 66.8125 C115.09833757 65.22682697 117.05815583 63.62408785 119 62 C119.80824219 61.33226562 120.61648438 60.66453125 121.44921875 59.9765625 C127.69873758 54.58441567 133.25822504 48.55970964 138.88134766 42.5324707 C143.2602083 37.83920641 147.6719464 33.18717339 152.1875 28.625 C152.70352783 28.09616211 153.21955566 27.56732422 153.7512207 27.02246094 C156.60806458 24.15760149 159.3351323 21.75092526 163 20 C169.42857143 20.42857143 169.42857143 20.42857143 171 22 C171.23728814 28.52542373 171.23728814 28.52542373 170 31 C168.80503906 31.09152344 167.61007812 31.18304688 166.37890625 31.27734375 C161.28702846 31.80275927 158.59636218 34.16178944 154.9375 37.5625 C154.32753174 38.10753174 153.71756348 38.65256348 153.08911133 39.21411133 C149.33617325 42.61632631 145.85888592 46.15313633 142.640625 50.0703125 C139.991393 53.18631395 137.02781032 55.98211086 134.11328125 58.84765625 C132.32494216 60.66905151 130.71866901 62.51135827 129.125 64.5 C116.50299085 79.56272915 89.36701118 98.63920129 69.3359375 101.82421875 C56.02332695 102.82600382 46.81427892 102.16689639 36.47265625 93.34375 C14.27572166 72.30400157 2.30812915 36.92608829 0 7 C-0.02352031 4.66678521 -0.02916439 2.33315106 0 0 Z " fill="#870634" transform="translate(185,275)"/>
<path d="M0 0 C2.58455285 1.89533875 2.96275506 2.88826517 4 6 C4.0685495 7.89470816 4.08480372 9.7916834 4.0625 11.6875 C4.05347656 12.68136719 4.04445313 13.67523438 4.03515625 14.69921875 C4.02355469 15.45847656 4.01195312 16.21773437 4 17 C1 13.25 1 13.25 1 11 C-0.43655854 10.91868537 -1.8744483 10.86066441 -3.3125 10.8125 C-4.11300781 10.77769531 -4.91351563 10.74289063 -5.73828125 10.70703125 C-8.59275307 11.07678149 -9.15365776 11.8394699 -11 14 C-12.89624237 17.32045351 -14.41206457 20.83579983 -16 24.3125 C-16.50619873 25.41392334 -17.01239746 26.51534668 -17.53393555 27.65014648 C-24.2319637 42.37468449 -30.29003645 57.38334973 -36.41836548 72.35110474 C-37.18789386 74.22938688 -37.95948729 76.10682444 -38.73324585 77.98336792 C-40.5157766 82.31619589 -42.26083734 86.65503629 -43.91064453 91.0402832 C-44.21169601 91.82157089 -44.5127475 92.60285858 -44.82292175 93.40782166 C-45.37530648 94.84586307 -45.91231379 96.28996041 -46.42964172 97.74098206 C-48.33220524 102.63145115 -50.6631915 104.63173273 -55.25 107.0625 C-58.43446857 108.32739678 -60.57443682 109 -64 109 C-63.67 105.37 -63.34 101.74 -63 98 C-61.04350603 97.16235732 -59.08474444 96.33000941 -57.125 95.5 C-55.48917969 94.80390625 -55.48917969 94.80390625 -53.8203125 94.09375 C-51 93 -51 93 -49 93 C-48.83056885 92.39599869 -48.6611377 91.79199738 -48.48657227 91.16969299 C-46.66913058 84.8821911 -44.45643156 78.87671566 -41.9375 72.83984375 C-41.54946198 71.89969925 -41.16142395 70.95955475 -40.7616272 69.99092102 C-39.51304584 66.9708882 -38.25700038 63.95403731 -37 60.9375 C-36.13714901 58.85842252 -35.27435626 56.77932086 -34.41162109 54.70019531 C-22.29111436 25.5458807 -22.29111436 25.5458807 -16 12 C-15.58588867 11.09443359 -15.17177734 10.18886719 -14.74511719 9.25585938 C-14.32133789 8.36189453 -13.89755859 7.46792969 -13.4609375 6.546875 C-13.08501465 5.74604492 -12.7090918 4.94521484 -12.32177734 4.12011719 C-9.00602725 -1.19831166 -5.90156999 -1.50221782 0 0 Z " fill="#890936" transform="translate(142,113)"/>
<path d="M0 0 C0.80308594 -0.02578125 1.60617188 -0.0515625 2.43359375 -0.078125 C4.5625 0.25 4.5625 0.25 6.3671875 1.53515625 C7.5625 3.25 7.5625 3.25 7.25 6.9375 C7.023125 8.030625 6.79625 9.12375 6.5625 10.25 C3.67356296 11.21297901 2.31591596 11.27702896 -0.6328125 11.125 C-8.01841269 11.04988311 -15.12057462 12.75196149 -22.3125 14.25 C-24.41473124 14.68125166 -26.51746951 15.10968157 -28.62112427 15.53393555 C-30.51404327 15.91664628 -32.40527115 16.30769383 -34.29638672 16.69921875 C-37.4375 17.25 -37.4375 17.25 -41.4375 17.25 C-41.1075 13.62 -40.7775 9.99 -40.4375 6.25 C-36.48034496 5.43138243 -32.52193411 4.61995763 -28.5625 3.8125 C-26.89960938 3.46735352 -26.89960938 3.46735352 -25.203125 3.11523438 C-16.84297355 1.4186154 -8.54245326 0.1683242 0 0 Z " fill="#870534" transform="translate(179.4375,184.75)"/>
<path d="M0 0 C0.33 0 0.66 0 1 0 C1.84027712 12.56681113 0.08774799 24.43256078 -2.11434937 36.78717041 C-2.23645782 37.47486511 -2.35856628 38.16255981 -2.484375 38.87109375 C-2.67273422 39.92946442 -2.67273422 39.92946442 -2.86489868 41.00921631 C-3.74524103 46.11176608 -4.40912798 51.21779884 -4.99208069 56.36242676 C-5.44051068 60.26262538 -5.94607373 64.15457379 -6.45578003 68.04718018 C-6.69161549 69.95803454 -6.90214834 71.8721997 -7.08596802 73.78875732 C-8.53127932 88.63473273 -8.53127932 88.63473273 -12.65457153 92.5852356 C-16.51329344 95.21493537 -20.64121176 96.8670169 -25.05653381 98.32533264 C-27.93194205 99.32352036 -30.60175257 100.68744219 -33.3125 102.0625 C-37.61934673 104.12688442 -37.61934673 104.12688442 -41 103 C-41.8125 100.3125 -41.8125 100.3125 -42 97 C-37.74903909 91.22946482 -31.20250339 89.00783738 -24.8125 86.1875 C-23.70712891 85.68541016 -22.60175781 85.18332031 -21.46289062 84.66601562 C-13.30787628 81 -13.30787628 81 -11 81 C-10.95153931 79.86800171 -10.95153931 79.86800171 -10.90209961 78.71313477 C-10.26225098 67.32015862 -8.41494455 56.18468616 -6.5625 44.9375 C-6.24616832 42.99163008 -5.93040984 41.0456669 -5.61523438 39.09960938 C-5.01282174 35.38260577 -4.40848428 31.66592395 -3.80273438 27.94946289 C-2.29122366 18.65280815 -0.80545653 9.38992747 0 0 Z " fill="#870735" transform="translate(76,137)"/>
<path d="M0 0 C3.1875 0.3125 3.1875 0.3125 5.5625 1.875 C7.73205002 5.12932503 7.48201507 7.48380414 7.1875 11.3125 C4.07053979 12.20826193 1.17108099 12.46693389 -2.0625 12.625 C-9.89414858 13.21333813 -17.260507 15.27142081 -24.8125 17.3125 C-26.14483537 17.64980009 -27.47757953 17.9855807 -28.8125 18.3125 C-28.63776504 16.53803637 -28.42135179 14.76764442 -28.1875 13 C-28.07148438 12.01386719 -27.95546875 11.02773437 -27.8359375 10.01171875 C-26.8125 7.3125 -26.8125 7.3125 -24.27734375 5.55859375 C-20.2027598 4.0932135 -16.26992547 3.32817083 -12 2.6875 C-7.80364125 2.03170994 -3.94835646 0.43870627 0 0 Z " fill="#870634" transform="translate(457.8125,154.6875)"/>
<path d="M0 0 C2.45537639 1.67250276 3.79958557 2.97849994 4.3828125 5.95117188 C4.53961275 8.31349149 4.5453718 10.63310428 4.5 13 C4.51546875 13.80695313 4.5309375 14.61390625 4.546875 15.4453125 C4.52145087 19.29706854 4.46947581 21.35546541 2.15625 24.53125 C-0.79768751 26.54335236 -2.49769605 26.58371733 -6 26 C-8.45537639 24.32749724 -9.79958557 23.02150006 -10.3828125 20.04882812 C-10.53961275 17.68650851 -10.5453718 15.36689572 -10.5 13 C-10.51546875 12.19304687 -10.5309375 11.38609375 -10.546875 10.5546875 C-10.52145087 6.70293146 -10.46947581 4.64453459 -8.15625 1.46875 C-5.20231249 -0.54335236 -3.50230395 -0.58371733 0 0 Z " fill="#E49607" transform="translate(367,333)"/>
<path d="M0 0 C3.85059004 3.70567536 4.53782559 6.56118344 4.75 11.8125 C4.80671875 12.97394531 4.8634375 14.13539063 4.921875 15.33203125 C4.94765625 16.21246094 4.9734375 17.09289062 5 18 C5.94101562 17.979375 6.88203125 17.95875 7.8515625 17.9375 C11 18 11 18 13.375 19 C16.01186327 22.24537018 15.39027373 24.90212584 15 29 C14.34 29.66 13.68 30.32 13 31 C12.67 30.67 12.34 30.34 12 30 C10.48071962 29.92820036 8.95832518 29.91607993 7.4375 29.9375 C6.61121094 29.94652344 5.78492188 29.95554688 4.93359375 29.96484375 C4.29550781 29.97644531 3.65742188 29.98804688 3 30 C2.96261719 28.87980469 2.92523438 27.75960937 2.88671875 26.60546875 C2.82105743 25.1327791 2.75461014 23.66012434 2.6875 22.1875 C2.66494141 21.44951172 2.64238281 20.71152344 2.61914062 19.95117188 C2.43498976 15.72933699 2.43498976 15.72933699 0.609375 12.015625 C-1.78108218 10.50708406 -3.23059907 10.52717545 -6 11 C-8.8555047 13.21156464 -9.88611609 14.43642067 -10.609375 18.015625 C-10.65578125 19.08296875 -10.7021875 20.1503125 -10.75 21.25 C-10.80671875 22.32765625 -10.8634375 23.4053125 -10.921875 24.515625 C-10.94765625 25.33546875 -10.9734375 26.1553125 -11 27 C-11.33 27 -11.66 27 -12 27 C-12.08149592 23.97861433 -12.14073421 20.95946095 -12.1875 17.9375 C-12.21263672 17.08994141 -12.23777344 16.24238281 -12.26367188 15.36914062 C-12.32827015 9.7921559 -11.69742038 5.91805702 -9 1 C-5.87139505 -0.56430248 -3.44397075 -0.35627284 0 0 Z " fill="#921A38" transform="translate(416,129)"/>
<path d="M0 0 C0.33 0 0.66 0 1 0 C2.20419017 11.37290714 -1.89331351 24.0710862 -9 33 C-10.32 33 -11.64 33 -13 33 C-14.60546875 31.390625 -14.60546875 31.390625 -16.1875 29.25 C-19.81466297 24.86782671 -23.45461279 22.39639279 -29 21 C-32.41761381 21.10471172 -32.41761381 21.10471172 -35 22 C-34.4375 20.1875 -34.4375 20.1875 -33 18 C-30.68895182 16.94952356 -28.35416349 15.94992562 -26 15 C-24.30659973 13.48465046 -24.30659973 13.48465046 -23 12 C-21.70450101 13.09966775 -20.41373929 14.20491801 -19.125 15.3125 C-18.40570313 15.92738281 -17.68640625 16.54226562 -16.9453125 17.17578125 C-15 19 -15 19 -13 22 C-11.08383687 21.91877583 -11.08383687 21.91877583 -9 21 C-4.77972471 14.64379077 -2.1810937 7.27031233 0 0 Z " fill="#880733" transform="translate(288,234)"/>
<path d="M0 0 C0.33 0 0.66 0 1 0 C0.45423097 8.10036134 -0.54147036 16.01348818 -2 24 C-6.82798108 25.76259627 -11.5797876 26.76661317 -16.625 27.625 C-17.37523438 27.7590625 -18.12546875 27.893125 -18.8984375 28.03125 C-22.33566034 28.62849794 -25.50045616 29 -29 29 C-28.41775986 25.4329426 -27.62592641 22.24136296 -26 19 C-23.23892878 17.02060191 -20.3039996 16.60238667 -17 16 C-15.77796875 15.72671875 -14.5559375 15.4534375 -13.296875 15.171875 C-9.87292125 14.40945615 -6.43710134 13.70076823 -3 13 C-2.01 8.71 -1.02 4.42 0 0 Z " fill="#880833" transform="translate(121,220)"/>
<path d="M0 0 C1.11246094 -0.01933594 2.22492188 -0.03867188 3.37109375 -0.05859375 C7.21945368 0.53962132 8.87652523 1.6525943 11.5625 4.4375 C12.0625 8.0625 12.0625 8.0625 11.5625 11.4375 C10.5725 12.0975 9.5825 12.7575 8.5625 13.4375 C6.89583333 12.77083333 5.22916667 12.10416667 3.5625 11.4375 C-0.30465037 10.94332054 -3.51422976 11.10176537 -7.1875 12.4375 C-14.20060486 18.67137099 -14.49825876 27.63829258 -15.4375 36.4375 C-15.7675 36.4375 -16.0975 36.4375 -16.4375 36.4375 C-16.85247591 25.14093348 -16.69593404 13.19329424 -10.4375 3.4375 C-7.12979643 0.22686222 -4.53470792 0.00524244 0 0 Z " fill="#880936" transform="translate(252.4375,225.5625)"/>
<path d="M0 0 C3.40062014 1.40715316 4.89229698 3.02868228 7 6 C6.10539062 6.68964844 5.21078125 7.37929687 4.2890625 8.08984375 C3.0669463 9.03808118 1.84564955 9.98737532 0.625 10.9375 C-0.00897705 11.43096924 -0.6429541 11.92443848 -1.29614258 12.43286133 C-6.10129422 16.20942062 -10.60047642 20.18465888 -15.01171875 24.41796875 C-17 26 -17 26 -20 26 C-21.64413681 20.24552117 -21.64413681 20.24552117 -20.1171875 17.29296875 C-14.54875603 10.49948235 -7.0154651 5.20396003 0 0 Z " fill="#880836" transform="translate(395,182)"/>
<path d="M0 0 C-0.33 3.96 -0.66 7.92 -1 12 C-8.25510812 14.90204325 -15.18861485 16.33962544 -23 16 C-22.38342404 12.40330692 -21.78937518 9.19425651 -20 6 C-17.50739041 4.6401266 -15.32478986 3.64034352 -12.6875 2.6875 C-12.02298828 2.42388672 -11.35847656 2.16027344 -10.67382812 1.88867188 C-6.78441609 0.40754068 -4.25896369 0 0 0 Z " fill="#FCF9F7" transform="translate(120,221)"/>
<path d="M0 0 C0.33 0 0.66 0 1 0 C0.3844369 10.69862204 -1.3477545 21.18677241 -3.0625 31.75 C-3.34741506 33.52597596 -3.63192333 35.30201724 -3.91601562 37.078125 C-4.60599372 41.3861833 -5.30145617 45.69332268 -6 50 C-8.43407005 50.86524753 -10.87143184 51.71742865 -13.3125 52.5625 C-14.00279297 52.80935547 -14.69308594 53.05621094 -15.40429688 53.31054688 C-20.66015625 55.11328125 -20.66015625 55.11328125 -24 54 C-20.61756374 43.98866856 -20.61756374 43.98866856 -16.76953125 41.63671875 C-14.51343356 40.91903678 -12.3294561 40.41005407 -10 40 C-8.515 39.505 -8.515 39.505 -7 39 C-6.823479 37.88963379 -6.64695801 36.77926758 -6.46508789 35.63525391 C-5.81053709 31.5235527 -5.15165791 27.41255495 -4.49145508 23.30175781 C-4.20608924 21.52102301 -3.92190439 19.74009854 -3.63891602 17.95898438 C-3.23242084 15.40183781 -2.8217111 12.84539897 -2.41015625 10.2890625 C-2.28407486 9.49005524 -2.15799347 8.69104797 -2.02809143 7.86782837 C-1.11387171 2.22774341 -1.11387171 2.22774341 0 0 Z " fill="#8C0E35" transform="translate(131,156)"/>
<path d="M0 0 C0.33 0 0.66 0 1 0 C0.34141462 7.77328653 -0.79635682 15.42971285 -2.0625 23.125 C-2.24876953 24.27226562 -2.43503906 25.41953125 -2.62695312 26.6015625 C-3.08194174 29.40149245 -3.53967513 32.20094331 -4 35 C-5.43554025 35.50559908 -6.8735202 36.0042749 -8.3125 36.5 C-9.11300781 36.7784375 -9.91351563 37.056875 -10.73828125 37.34375 C-13 38 -13 38 -16 38 C-13.93387476 30.14062163 -10.89073531 22.96709558 -7.4375 15.625 C-6.94314453 14.55894531 -6.44878906 13.49289063 -5.93945312 12.39453125 C-4.00753583 8.2379027 -2.06816724 4.09086711 0 0 Z " fill="#FCF8F6" transform="translate(129,160)"/>
<path d="M0 0 C6.65050033 1.61372434 10.9044858 6.45822552 14.71875 11.90234375 C15.57409296 15.76564281 15.4601534 19.03057043 14.71875 22.90234375 C14.038125 22.20109375 13.3575 21.49984375 12.65625 20.77734375 C12.19605469 20.32746094 11.73585938 19.87757813 11.26171875 19.4140625 C10.20150648 18.37532288 9.16328842 17.31380257 8.14453125 16.234375 C4.76250825 12.91542003 2.61272408 11.51975902 -2.21875 11.52734375 C-3.57534299 11.62246379 -4.93140829 11.73705701 -6.28125 11.90234375 C-7.70166821 9.06150734 -7.59577272 7.04757097 -7.28125 3.90234375 C-5.07784075 0.46502533 -4.11560827 -0.12248834 0 0 Z " fill="#870534" transform="translate(389.28125,146.09765625)"/>
<path d="M0 0 C0.33 0 0.66 0 1 0 C0.44216912 7.88227534 -0.44891761 15.62460701 -1.74609375 23.41796875 C-1.9199913 24.48258835 -2.09388885 25.54720795 -2.27305603 26.64408875 C-4.2446071 38.63520937 -6.31161081 50.61023796 -8.40942383 62.57983398 C-9.06974167 66.35388985 -9.72338426 70.12906713 -10.37695312 73.90429688 C-10.80428215 76.34902922 -11.23200211 78.79369327 -11.66015625 81.23828125 C-11.85086197 82.34472488 -12.04156769 83.45116852 -12.23805237 84.59114075 C-13.51389873 91.81766286 -15.12866244 98.90461747 -17 106 C-17.66 105.67 -18.32 105.34 -19 105 C-19.18360169 100.31815697 -18.72432638 97.28767327 -17 93 C-16.51773429 90.83998087 -16.09060201 88.6673004 -15.703125 86.48828125 C-15.46964355 85.19011475 -15.23616211 83.89194824 -14.99560547 82.55444336 C-14.74692047 81.14048858 -14.49838951 79.72650671 -14.25 78.3125 C-13.98756746 76.84050024 -13.72470171 75.36857766 -13.46142578 73.89672852 C-12.7727359 70.03873931 -12.09070454 66.17960143 -11.41003418 62.32019043 C-10.87839552 59.31189751 -10.34213766 56.30443799 -9.80561829 53.29701233 C-7.1737755 38.54029308 -4.57018439 23.78057869 -2.20458984 8.97827148 C-2.05844238 8.07794189 -1.91229492 7.1776123 -1.76171875 6.25 C-1.63756592 5.47140625 -1.51341309 4.6928125 -1.38549805 3.890625 C-1 2 -1 2 0 0 Z " fill="#9A2A46" transform="translate(115,257)"/>
<path d="M0 0 C3.1875 0.3125 3.1875 0.3125 5.5625 1.625 C8.16155576 5.92343838 7.49155549 10.41382815 7.1875 15.3125 C6.76597656 14.82394531 6.34445312 14.33539063 5.91015625 13.83203125 C4.12189513 11.95167512 4.12189513 11.95167512 0.625 12 C-2.87518472 11.94839512 -2.87518472 11.94839512 -4.8125 14.3125 C-5.50998583 15.62997324 -6.18209957 16.96164193 -6.8125 18.3125 C-6.89410748 16.41739301 -6.95196459 14.52125496 -7 12.625 C-7.03480469 11.56925781 -7.06960938 10.51351562 -7.10546875 9.42578125 C-6.65736928 4.66397752 -4.97673459 0.55297051 0 0 Z " fill="#8B0D38" transform="translate(355.8125,129.6875)"/>
<path d="M0 0 C2.375 1.5625 2.375 1.5625 4 4 C4.51470588 9.97058824 4.51470588 9.97058824 3 13 C1.58297487 12.85769192 0.1663904 12.71099254 -1.25 12.5625 C-2.43335938 12.44068359 -2.43335938 12.44068359 -3.640625 12.31640625 C-5.82364639 12.02365007 -7.8773182 11.57935581 -10 11 C-10.48275862 4.72413793 -10.48275862 4.72413793 -8.375 1.5625 C-5.28314769 -0.47161336 -3.63632575 -0.60605429 0 0 Z " fill="#880937" transform="translate(367,333)"/>
<path d="M0 0 C3.5 0.5 3.5 0.5 5.4375 1.5 C7.21953537 4.85441952 6.79858742 7.73779845 6.5 11.5 C5.84 12.16 5.18 12.82 4.5 13.5 C3.84 12.84 3.18 12.18 2.5 11.5 C-1.70826906 11.76861292 -3.7048969 12.40452762 -6.5 15.5 C-6.74139945 10.89552906 -6.93398833 6.77643626 -5.4375 2.375 C-3.5 0.5 -3.5 0.5 0 0 Z " fill="#890A38" transform="translate(83.5,117.5)"/>
<path d="M0 0 C0.33 0 0.66 0 1 0 C2.00079309 14.96741662 -0.76402947 29.3739156 -3.31982422 44.04736328 C-4.38079904 50.16709914 -5.34245652 56.30282353 -6.3125 62.4375 C-6.6415816 64.4987531 -6.97097194 66.55995696 -7.30078125 68.62109375 C-7.53388497 70.08072425 -7.7669711 71.54035756 -8 73 C-10.77504184 68.83743725 -9.64809463 65.6270031 -8.875 60.9375 C-8.66339233 59.56464844 -8.66339233 59.56464844 -8.44750977 58.1640625 C-8.13916698 56.17092406 -7.82553311 54.17859883 -7.50732422 52.18701172 C-6.98222733 48.88835202 -6.47523158 45.58731867 -5.97265625 42.28515625 C-5.30895568 37.92880487 -4.64066411 33.57323793 -3.96484375 29.21875 C-3.80790039 28.20578857 -3.65095703 27.19282715 -3.48925781 26.14916992 C-3.14655791 23.94333855 -2.80200015 21.73779539 -2.45605469 19.5324707 C-2.27848633 18.39382568 -2.10091797 17.25518066 -1.91796875 16.08203125 C-1.75707764 15.0556958 -1.59618652 14.02936035 -1.43041992 12.97192383 C-0.80611562 8.66128501 -0.37218762 4.33892405 0 0 Z " fill="#9D2D40" transform="translate(76,137)"/>
<path d="M0 0 C3.1875 0.25 3.1875 0.25 5.5625 1.25 C8.19936327 4.49537018 7.57777373 7.15212584 7.1875 11.25 C6.5275 11.91 5.8675 12.57 5.1875 13.25 C4.8575 12.92 4.5275 12.59 4.1875 12.25 C2.84002916 12.01924918 1.48372435 11.83846937 0.125 11.6875 C-1.174375 11.543125 -2.47375 11.39875 -3.8125 11.25 C-3.83938151 9.60425434 -3.85884123 7.95838587 -3.875 6.3125 C-3.88660156 5.39597656 -3.89820313 4.47945312 -3.91015625 3.53515625 C-3.76530804 0.14570817 -3.42062126 0.30405522 0 0 Z " fill="#870634" transform="translate(423.8125,146.75)"/>
<path d="M0 0 C-0.96095506 3.01390452 -1.97731066 6.00654879 -3 9 C-3.29003906 9.92039063 -3.58007812 10.84078125 -3.87890625 11.7890625 C-4.76224371 14.3540675 -5.60557855 16.6713622 -7 19 C-10.25 20.125 -10.25 20.125 -13 20 C-12.67 16.37 -12.34 12.74 -12 9 C-10.35 8.67 -8.7 8.34 -7 8 C-6.5978125 6.576875 -6.5978125 6.576875 -6.1875 5.125 C-4.90422632 1.74796399 -3.8613658 0 0 0 Z " fill="#8C0D30" transform="translate(86,233)"/>
<path d="M0 0 C0.33 0 0.66 0 1 0 C1.11985335 5.4310903 0.75362575 10.34457318 -0.2421875 15.7109375 C-0.37062042 16.40514801 -0.49905334 17.09935852 -0.63137817 17.81460571 C-0.90188152 19.26558397 -1.17599622 20.71589335 -1.45361328 22.16552734 C-1.87754403 24.3883392 -2.28510616 26.6137495 -2.69140625 28.83984375 C-2.95736265 30.25539105 -3.22425591 31.67076273 -3.4921875 33.0859375 C-3.73308105 34.3651709 -3.97397461 35.6444043 -4.22216797 36.96240234 C-5 40 -5 40 -7 42 C-8 41 -8 41 -8.1875 37.75 C-8.00623064 34.12461275 -7.32725178 32.29124418 -6 29 C-5.53581293 26.98666258 -5.12101005 24.96154255 -4.74609375 22.9296875 C-4.53146484 21.78628906 -4.31683594 20.64289063 -4.09570312 19.46484375 C-3.87849609 18.28019531 -3.66128906 17.09554688 -3.4375 15.875 C-3.00048054 13.51789796 -2.56175822 11.16111082 -2.12109375 8.8046875 C-1.9295874 7.76296387 -1.73808105 6.72124023 -1.54077148 5.64794922 C-1 3 -1 3 0 0 Z " fill="#921B3D" transform="translate(104,321)"/>
<path d="M0 0 C0.1875 2.875 0.1875 2.875 0 6 C-3.5486135 8.36574234 -4.5764525 8.10865265 -8.6875 7.625 C-10.17830078 7.45871094 -10.17830078 7.45871094 -11.69921875 7.2890625 C-12.45847656 7.19367188 -13.21773437 7.09828125 -14 7 C-9.80559946 3.42242307 -5.69511947 0 0 0 Z " fill="#8A0A2F" transform="translate(208,228)"/>
<path d="M0 0 C0.17835515 4.54805635 -0.00214565 7.8794254 -2 12 C-3.32 11.67 -4.64 11.34 -6 11 C-6.75 8.25 -6.75 8.25 -7 5 C-3.08108108 0 -3.08108108 0 0 0 Z " fill="#8B0E39" transform="translate(62,244)"/>
<path d="M0 0 C2.25323719 3.37985579 2.84465891 6.40425409 3.5625 10.3125 C3.81128906 11.60800781 4.06007812 12.90351563 4.31640625 14.23828125 C4.90698459 17.48814948 5.46928449 20.73989045 6 24 C5.34 24 4.68 24 4 24 C3.67 24.66 3.34 25.32 3 26 C2.49317558 22.98017116 1.99436665 19.95937183 1.5 16.9375 C1.28537109 15.66616211 1.28537109 15.66616211 1.06640625 14.36914062 C0.27799579 9.50727611 -0.16037074 4.92471814 0 0 Z " fill="#962242" transform="translate(185,275)"/>
<path d="M0 0 C1.80230168 3.82989106 2.19622241 6.78121808 2 11 C1.01 11 0.02 11 -1 11 C-1.67154933 9.71086513 -2.33708859 8.41859796 -3 7.125 C-3.37125 6.40570313 -3.7425 5.68640625 -4.125 4.9453125 C-5 3 -5 3 -5 1 C-3 0 -3 0 0 0 Z " fill="#8E123A" transform="translate(428,189)"/>
<path d="M0 0 C0.33 0 0.66 0 1 0 C1.45510807 6.67491831 -0.2327574 12.59374557 -2 19 C-2.66 18.67 -3.32 18.34 -4 18 C-4.18063018 13.39393034 -3.92826044 10.17789762 -2 6 C-1.32204472 4.00379834 -0.65266469 2.00461299 0 0 Z " fill="#8C0F33" transform="translate(100,344)"/>
<path d="M0 0 C0.33 0 0.66 0 1 0 C0.55348122 8.15484303 -0.11150323 16.04264468 -2 24 C-2.66 23.67 -3.32 23.34 -4 23 C-3.71542568 20.47818712 -3.42254942 17.95778804 -3.125 15.4375 C-3.04636719 14.73302734 -2.96773438 14.02855469 -2.88671875 13.30273438 C-2.33366097 8.6868291 -1.38804164 4.43823397 0 0 Z " fill="#9B2E52" transform="translate(108,298)"/>
<path d="M0 0 C-0.75 2.9375 -0.75 2.9375 -2 6 C-4.125 6.875 -4.125 6.875 -6 7 C-6 5.35 -6 3.7 -6 2 C-2.25 0 -2.25 0 0 0 Z " fill="#F6E9E1" transform="translate(81,235)"/>
<path d="M0 0 C0.33 0 0.66 0 1 0 C0.67 3.3 0.34 6.6 0 10 C-0.99 9.34 -1.98 8.68 -3 8 C-1.125 2.25 -1.125 2.25 0 0 Z " fill="#F2E1DE" transform="translate(129,160)"/>
</svg>
