<?xml version="1.0" encoding="UTF-8"?>
<svg version="1.1" xmlns="http://www.w3.org/2000/svg" width="500" height="500">
<path d="M0 0 C165 0 330 0 500 0 C500 165 500 330 500 500 C335 500 170 500 0 500 C0 335 0 170 0 0 Z " fill="#000000" transform="translate(0,0)"/>
<path d="M0 0 C2.90717073 2.21863029 3.83981643 3.51944929 5 7 C6.38804839 23.77432547 4.00836798 40.05492806 1 56.5 C0.61272328 58.70279879 0.22729918 60.90592412 -0.15625 63.109375 C-1.08298002 68.41018112 -2.03197285 73.70658789 -3 79 C-1.99211426 78.78794922 -0.98422852 78.57589844 0.05419922 78.35742188 C3.83551654 77.56464128 7.6194656 76.78509236 11.40429688 76.00927734 C13.03426218 75.67329833 14.6635175 75.33385379 16.29199219 74.99072266 C38.94503223 70.22385595 38.94503223 70.22385595 44.6875 73.5625 C46 76 46 76 46.0625 79.5625 C45 83 45 83 43.1171875 84.66015625 C38.51590016 86.63790256 34.02443845 86.6270605 29.0625 86.875 C17.02144415 87.65070763 5.65559654 89.96107063 -6 93 C-6.11593506 93.68102783 -6.23187012 94.36205566 -6.35131836 95.0637207 C-6.87761516 98.14706773 -7.40751507 101.22978486 -7.9375 104.3125 C-8.11990234 105.38435547 -8.30230469 106.45621094 -8.49023438 107.56054688 C-8.75610352 109.10258789 -8.75610352 109.10258789 -9.02734375 110.67578125 C-9.27085571 112.0975769 -9.27085571 112.0975769 -9.51928711 113.5480957 C-10 116 -10 116 -11 119 C-10.33170166 118.88930176 -9.66340332 118.77860352 -8.97485352 118.66455078 C26.46036448 112.82201076 26.46036448 112.82201076 38 113 C38.26683594 112.42121094 38.53367188 111.84242188 38.80859375 111.24609375 C45.27920248 99.04740517 58.1398005 94.48923332 70.47265625 90.125 C95.22211245 82.59426214 129.27279185 79.46300326 152.79296875 91.88671875 C155.90847989 93.93969259 157.45195049 95.42293575 159.375 98.5625 C160.09816406 99.70912109 160.09816406 99.70912109 160.8359375 100.87890625 C166.83017405 111.80129031 162.24187205 127.76290011 159 139 C152.45959596 159.38567493 152.45959596 159.38567493 144 164 C137.56070621 165.18651095 132.35189631 163.62262793 127 160 C123.26215798 156.63594218 122.86431352 151.75880854 122 147 C121.34 147 120.68 147 120 147 C119.79375 148.155 119.5875 149.31 119.375 150.5 C117.85395534 156.64983524 114.23929314 161.50713791 109 165 C105.625 165.4375 105.625 165.4375 102 165 C98.26506033 162.09504692 96.40752568 159.46654817 95 155 C94.04096487 142.37740532 94.16425366 127.97862291 101 117 C103.05625855 114.6539706 103.93737509 114.02087497 107 113 C112.67475291 112.62788506 116.03463692 112.92620381 121 116 C123 118 123 118 123.3125 120.875 C122.95651875 124.43481255 122.59394719 125.57340424 120 128 C117.70406543 129.1887839 115.42825564 130.08367712 113 131 C113.66 131 114.32 131 115 131 C121.43874544 131.45991039 126.3815929 134.3205707 130.84375 138.88671875 C132.28083704 140.55767137 133.66574439 142.24626251 135 144 C137.72177525 142.98294598 138.83921753 142.26235326 140.37890625 139.75 C141.62820731 136.84733352 142.84753446 133.94262867 144 131 C144.32484375 130.17757812 144.6496875 129.35515625 144.984375 128.5078125 C147.54862585 121.12954355 148.43045992 112.74622647 146.15234375 105.1875 C145.14563017 102.72166107 145.14563017 102.72166107 142.25 101.8125 C140.83882655 101.51436476 139.42090508 101.24763659 138 101 C137.14535156 100.81566406 136.29070312 100.63132812 135.41015625 100.44140625 C117.92727118 97.24466182 99.38663434 97.87014639 82 101.1875 C80.4545752 101.4815271 80.4545752 101.4815271 78.87792969 101.78149414 C70.49641661 103.55796606 62.17196559 106.2186896 55 111 C55.61488281 111.03738281 56.22976562 111.07476562 56.86328125 111.11328125 C57.67152344 111.17902344 58.47976562 111.24476563 59.3125 111.3125 C60.11300781 111.37050781 60.91351563 111.42851562 61.73828125 111.48828125 C64.42699397 112.09660831 65.37235716 112.79729092 67 115 C67.5 118.5 67.5 118.5 67 122 C62.2302327 126.33615209 55.88434703 126.04464457 49.76171875 126.01953125 C48.86799561 126.01671143 47.97427246 126.0138916 47.0534668 126.01098633 C46.37582275 126.00736084 45.69817871 126.00373535 45 126 C44.29846099 166.19638643 49.32587425 208.55793651 76.56640625 240.51953125 C83.72219551 247.81315273 91.18577036 253.16378643 101.53393555 253.43188477 C126.07972585 253.48777559 147.89220623 237.42515765 166 222 C166.7321875 221.3915625 167.464375 220.783125 168.21875 220.15625 C172.25000017 216.74519217 175.73724525 213.13192171 179.1484375 209.10546875 C181.90768777 205.96784028 184.90458676 203.08433726 187.8828125 200.15625 C189.69154626 198.31414477 191.32151508 196.44606883 192.9375 194.4375 C197.12289008 189.47099256 202.45496792 183.39438482 209.125 182.65234375 C212 183 212 183 215 185 C215.75518106 188.02072423 215.89411404 189.10759495 215 192 C212.41446201 195.71919695 209.20322315 198.81851116 206 202 C204.85429983 203.1681255 203.70982997 204.3374586 202.56640625 205.5078125 C196.58773636 211.59267978 190.5434298 217.52064197 184 223 C183.07316406 223.804375 182.14632813 224.60875 181.19140625 225.4375 C136.33083965 264.26603931 136.33083965 264.26603931 110 265 C108.30230469 265.0928125 108.30230469 265.0928125 106.5703125 265.1875 C93.87896844 265.59607446 85.08506571 262.55882637 75 255 C74.01 254.278125 73.02 253.55625 72 252.8125 C63.19848937 245.12941338 57.40873615 235.17414245 52 225 C51.53851563 224.14664063 51.07703125 223.29328125 50.6015625 222.4140625 C49.32722651 219.97090879 48.14670121 217.5056166 47 215 C46.54109375 213.99839844 46.0821875 212.99679687 45.609375 211.96484375 C42.09837064 203.76942043 39.58254806 195.41522041 37.25 186.8125 C36.95625488 185.73226562 36.66250977 184.65203125 36.35986328 183.5390625 C32.81063871 170.05652519 31.72495316 157.61376199 31.875 143.75 C31.885057 142.11849512 31.89417801 140.48698419 31.90234375 138.85546875 C31.92412548 134.9034933 31.95850274 130.95181558 32 127 C16.86936188 128.04046487 1.96613154 129.54568633 -13 132 C-18.71284372 160.93049082 -18.71284372 160.93049082 -22.72216797 190.13525391 C-23 192 -23 192 -24 195 C-24.19355048 196.72933149 -24.38261005 198.45932902 -24.54467773 200.19189453 C-25.42671373 209.57021304 -26.86637907 218.8395119 -28.4375 228.125 C-28.6427832 229.36942871 -28.84806641 230.61385742 -29.05957031 231.89599609 C-31.80888357 247.80888357 -31.80888357 247.80888357 -36 252 C-39.5 252.25 -39.5 252.25 -43 252 C-45 250 -45 250 -45.25 246.6875 C-45.0100925 243.14886433 -44.29788568 241.22638584 -43 238 C-42.53194385 236.01843091 -42.11573609 234.02424245 -41.73828125 232.0234375 C-41.39591431 230.214198 -41.39591431 230.214198 -41.04663086 228.3684082 C-40.80145007 227.03735872 -40.55675588 225.70621952 -40.3125 224.375 C-40.12133102 223.34673599 -40.12133102 223.34673599 -39.92630005 222.29769897 C-37.07316681 206.93168586 -34.59231397 191.50563956 -32.11364746 176.07569885 C-29.85673729 162.03008345 -27.46218498 148.01112842 -25 134 C-34.90460645 134.29745898 -45.26302895 134.97387927 -54 140 C-60.0013043 147.40152574 -62.02261092 157.14842348 -64.11669922 166.27099609 C-65.10190434 170.43020642 -66.36678675 174.4361588 -67.70410156 178.49194336 C-70.22905036 186.25035199 -71.96580897 194.0801605 -73.26171875 202.12890625 C-74.02368564 205.09211083 -74.51582089 206.26530558 -77 208 C-79.99225659 208.37403207 -82.03149218 208.58201409 -84.6640625 207 C-86.81115851 203.78563405 -86.43694895 200.35926825 -86.375 196.625 C-86.36919922 195.76592041 -86.36339844 194.90684082 -86.35742188 194.02172852 C-86.18170591 184.72098484 -85.15452069 175.49833735 -84.06787109 166.26611328 C-81.74535302 152.92222825 -81.74535302 152.92222825 -86 141 C-85.9375 137.9375 -85.9375 137.9375 -85 135 C-84.33613281 134.55140625 -83.67226562 134.1028125 -82.98828125 133.640625 C-80.77414583 132.14628322 -80.77414583 132.14628322 -80.390625 129.51953125 C-80.34421875 128.62621094 -80.2978125 127.73289062 -80.25 126.8125 C-80.19328125 125.91144531 -80.1365625 125.01039063 -80.078125 124.08203125 C-80.05234375 123.39496094 -80.0265625 122.70789063 -80 122 C-81.35931641 122.74056641 -81.35931641 122.74056641 -82.74609375 123.49609375 C-95.64928217 130.3556799 -95.64928217 130.3556799 -103 130 C-105.98401586 128.10769726 -106.75521319 126.95466857 -107.625 123.5625 C-106.87124091 120.47208774 -105.50558563 119.22046386 -103.06835938 117.25268555 C-100.56406524 115.73597955 -98.15055229 115.01128774 -95.33984375 114.1953125 C-88.55935878 112.11281006 -82.2223221 109.96815194 -77 105 C-72.9500865 96.72772674 -72.80519318 87.03673521 -72.28027344 77.97021484 C-71.86843936 72.13637706 -70.88153412 66.44284503 -69.875 60.6875 C-69.55062436 58.65538673 -69.22891894 56.62284504 -68.91015625 54.58984375 C-68.35376761 51.11521735 -67.7635003 47.65113129 -67.12109375 44.19140625 C-66.85004564 42.71121446 -66.5804647 41.2307531 -66.3125 39.75 C-66.18584961 39.05068359 -66.05919922 38.35136719 -65.92871094 37.63085938 C-64.78872838 30.790964 -64.59859626 23.91668985 -64.6418457 16.98925781 C-64.57040782 12.48477437 -64.4458946 10.58303653 -61.625 6.89453125 C-59 5 -59 5 -56.375 5 C-53.8589527 6.05938834 -52.71181161 6.90235924 -51 9 C-50.44758241 16.54970707 -51.55121431 24.01321837 -52.5 31.5 C-52.58181519 32.15621338 -52.66363037 32.81242676 -52.7479248 33.48852539 C-55.50381434 55.41870156 -59.33295527 77.20797013 -63 99 C-56.58593824 97.32391589 -50.18120377 95.55809982 -46.63183594 89.59716797 C-44.52613171 85.34737213 -42.95774757 80.90166567 -41.375 76.4375 C-40.75479893 74.81131882 -40.12931274 73.18714429 -39.4987793 71.56494141 C-38.22962644 68.28358909 -36.98540095 64.99455408 -35.76220703 61.69580078 C-33.27593513 55.02040777 -30.55252614 48.44979609 -27.8125 41.875 C-27.09694946 40.1417749 -27.09694946 40.1417749 -26.36694336 38.37353516 C-22.87163024 29.95082208 -19.21757997 21.61040468 -15.4375 13.3125 C-14.93645752 12.20052246 -14.43541504 11.08854492 -13.91918945 9.94287109 C-13.21475708 8.41847412 -13.21475708 8.41847412 -12.49609375 6.86328125 C-11.88012329 5.52197144 -11.88012329 5.52197144 -11.25170898 4.15356445 C-8.50624284 -0.57000817 -5.01639668 -0.52804176 0 0 Z " fill="#E29200" transform="translate(141,123)"/>
<path d="M0 0 C3.5 0.9375 3.5 0.9375 5.20703125 3.0703125 C6.76338559 6.52156352 6.80171139 8.98102427 6.6875 12.75 C6.64689453 14.49216797 6.64689453 14.49216797 6.60546875 16.26953125 C6.57066406 17.14996094 6.53585937 18.03039062 6.5 18.9375 C7.758125 18.875625 9.01625 18.81375 10.3125 18.75 C12.83113951 18.77228885 14.22995606 18.80247803 16.5 19.9375 C18.09769998 23.13289995 18.01210544 26.47247488 17.5 29.9375 C16.48046875 32.19140625 16.48046875 32.19140625 15.5 33.9375 C16.12003906 33.68355469 16.74007812 33.42960937 17.37890625 33.16796875 C26.72262953 29.53656538 37.36759151 26.26298366 47.5 26.9375 C49.875 28.5625 49.875 28.5625 51.5 30.9375 C52 33.9375 52 33.9375 51.5 36.9375 C46.75442501 42.82739804 38.81573386 44.45097828 31.5546875 45.26953125 C29.75014909 45.38006565 27.94546205 45.48820397 26.140625 45.59375 C22.36313463 46.08549431 19.14963349 47.45034957 15.69140625 49 C13.63493932 49.87977195 11.68072254 50.46062218 9.5 50.9375 C9.83773437 51.61296875 10.17546875 52.2884375 10.5234375 52.984375 C11.84895833 55.63541667 13.17447917 58.28645833 14.5 60.9375 C14.87640625 61.63359375 15.2528125 62.3296875 15.640625 63.046875 C17.03513913 66.11480608 16.85445755 68.62922952 16.5 71.9375 C14.875 74.375 14.875 74.375 12.5 75.9375 C9.02484004 76.44429416 7.2067834 76.32809083 4.125 74.625 C2.5 72.9375 2.5 72.9375 2.5 69.9375 C1.448125 70.205625 0.39625 70.47375 -0.6875 70.75 C-4.5 70.9375 -4.5 70.9375 -7.3125 68.5 C-8.034375 67.654375 -8.75625 66.80875 -9.5 65.9375 C-12.62808842 65.9375 -13.87434701 67.91309421 -16.125 70 C-17.02089844 70.81339844 -17.91679687 71.62679687 -18.83984375 72.46484375 C-20.48293822 73.99212539 -22.1051609 75.5426609 -23.69140625 77.12890625 C-28.61025705 81.89374215 -28.61025705 81.89374215 -33.3125 82.125 C-36.5 80.9375 -36.5 80.9375 -38.5 79.25 C-39.8710342 76.07948341 -39.33438691 74.25835991 -38.5 70.9375 C-32.18642885 61.92051142 -21.23058804 55.40688528 -12.5 48.9375 C-16.39432817 44.26203952 -20.4570971 39.87192462 -24.8125 35.625 C-31.35888097 29.23579504 -31.35888097 29.23579504 -31.8125 25.0625 C-31.5 21.9375 -31.5 21.9375 -29.875 19.5625 C-27.5 17.9375 -27.5 17.9375 -24.75 17.25 C-18.3592033 18.6018993 -14.24448028 23.85688358 -10.5 28.9375 C-10.48541748 28.33276855 -10.47083496 27.72803711 -10.45581055 27.10498047 C-10.38090812 24.34020735 -10.28438927 21.57658643 -10.1875 18.8125 C-10.16494141 17.86117187 -10.14238281 16.90984375 -10.11914062 15.9296875 C-9.91524537 10.59133903 -9.57039237 6.50297654 -6.5 1.9375 C-3.5 -0.0625 -3.5 -0.0625 0 0 Z " fill="#E29200" transform="translate(413.5,139.0625)"/>
<path d="M0 0 C3.625 0.25 3.625 0.25 5.3273325 1.41215515 C7.1371736 3.97537504 7.00527644 5.7801858 7.01268005 8.90551758 C7.02258469 10.08328766 7.03248932 11.26105774 7.04269409 12.47451782 C7.03594162 14.41492447 7.03594162 14.41492447 7.02905273 16.39453125 C7.03475438 17.76940466 7.04171784 19.14427334 7.04985046 20.51913452 C7.0678188 24.25464441 7.06660682 27.98991989 7.06090808 31.72546005 C7.05782188 34.84194672 7.06390223 37.95838799 7.06994683 41.0748682 C7.08400215 48.42527593 7.08242209 55.77556746 7.07104492 63.12597656 C7.05955888 70.7145221 7.07364501 78.30271443 7.1004414 85.89121342 C7.12257505 92.40254491 7.12924119 98.91376534 7.12336498 105.4251318 C7.11998902 109.31586603 7.12245269 113.20637374 7.13961601 117.09707642 C7.15504646 120.75468453 7.15117384 124.41176793 7.13231087 128.06935501 C7.12684856 130.05473893 7.14116812 132.04014619 7.15600586 134.02548218 C7.14617172 135.20325226 7.13633759 136.38102234 7.12620544 137.59448242 C7.12599616 138.62022873 7.12578688 139.64597504 7.12557125 140.70280457 C6.625 143.25 6.625 143.25 4.74992466 145.07221985 C2.04633941 146.5707337 0.66760442 146.85852088 -2.375 146.25 C-5.52835625 143.36814906 -6.63410691 141.04457945 -6.97723389 136.8875885 C-7.04286848 135.12761113 -7.08638787 133.36672298 -7.11230469 131.60571289 C-7.14073833 130.64135598 -7.16917198 129.67699907 -7.19846725 128.68341923 C-7.28193581 125.53892243 -7.33272503 122.39530649 -7.375 119.25 C-7.3911586 118.21307384 -7.4073172 117.17614769 -7.42396545 116.10779953 C-7.53684072 108.25810266 -7.56566598 100.40900508 -7.578125 92.55859375 C-7.58095238 91.33833055 -7.58377975 90.11806736 -7.58669281 88.86082649 C-7.60151866 82.43594279 -7.61085941 76.01108069 -7.61523438 69.58618164 C-7.6207767 62.9643336 -7.64497093 56.34268524 -7.67320633 49.72090054 C-7.69178761 44.60202936 -7.69703532 39.48320755 -7.69857025 34.3643055 C-7.7015942 31.92064351 -7.70961397 29.47698233 -7.72275543 27.03335381 C-7.73976308 23.63592616 -7.73795151 20.23900537 -7.73144531 16.84155273 C-7.7406601 15.83745865 -7.74987488 14.83336456 -7.7593689 13.79884338 C-7.72181545 7.55553185 -7.44742795 0.55166133 0 0 Z " fill="#E29200" transform="translate(356.375,140.75)"/>
<path d="M0 0 C1.12019531 0.31324219 2.24039063 0.62648437 3.39453125 0.94921875 C11.05517732 3.29280213 15.74912047 5.45719822 19.8125 12.5625 C22.43832258 18.06852172 22.51301297 23.00344839 22 29 C20.88428973 27.3264346 19.79361957 25.63257517 18.80859375 23.87890625 C15.0967372 17.60787796 11.90206918 15.11689711 5 13 C3.98292969 12.63003906 2.96585938 12.26007813 1.91796875 11.87890625 C-25.16353573 3.39943193 -60.8904703 8.14107222 -86.5 20.1875 C-93.37195924 23.78596539 -99.47251882 28.94503763 -103 36 C-104.80171204 36.46829224 -104.80171204 36.46829224 -107.1809082 36.77783203 C-108.06885574 36.89780548 -108.95680328 37.01777893 -109.87165833 37.14138794 C-110.83826889 37.26230804 -111.80487946 37.38322815 -112.80078125 37.5078125 C-114.28266182 37.70333206 -114.28266182 37.70333206 -115.79447937 37.90280151 C-117.88969409 38.1775814 -119.98548852 38.44797056 -122.08178711 38.71435547 C-125.28950219 39.12207683 -128.4953914 39.54220643 -131.70117188 39.96484375 C-133.73428001 40.22989633 -135.7674804 40.4942424 -137.80078125 40.7578125 C-139.24158806 40.94526535 -139.24158806 40.94526535 -140.71150208 41.13650513 C-142.05760811 41.30700882 -142.05760811 41.30700882 -143.4309082 41.48095703 C-144.21842972 41.58151398 -145.00595123 41.68207092 -145.81733704 41.78567505 C-148 42 -148 42 -152 42 C-151.93999894 40.3739713 -151.8512115 38.74898451 -151.75 37.125 C-151.70359375 36.22007812 -151.6571875 35.31515625 -151.609375 34.3828125 C-151 32 -151 32 -149.23005676 30.88502502 C-146.95019392 29.98023385 -145.14724577 29.6468932 -142.7097168 29.45678711 C-141.87172043 29.38588364 -141.03372406 29.31498016 -140.17033386 29.2419281 C-139.27236588 29.17111526 -138.37439789 29.10030243 -137.44921875 29.02734375 C-135.5343161 28.84902443 -133.6196067 28.66861986 -131.70507812 28.48632812 C-128.69766826 28.20601585 -125.69144212 27.93780432 -122.67993164 27.70532227 C-111.3209071 27.26039907 -111.3209071 27.26039907 -101.2097168 22.92114258 C-99.49317285 20.68010541 -98.28353051 18.50195847 -97 16 C-88.18945587 7.26223085 -74.86373039 3.37531399 -63 1 C-62.22076172 0.83226074 -61.44152344 0.66452148 -60.63867188 0.49169922 C-40.68618693 -3.75358937 -19.87384104 -5.63371851 0 0 Z " fill="#820130" transform="translate(282,200)"/>
<path d="M0 0 C0.33 0 0.66 0 1 0 C1.12375 1.06992187 1.2475 2.13984375 1.375 3.2421875 C3.96501558 23.22135406 9.98459763 42.96919527 19 61 C19.29841797 61.60199219 19.59683594 62.20398438 19.90429688 62.82421875 C26.40542919 75.71652765 34.82895152 86.47891337 48 93 C48.99 93.495 48.99 93.495 50 94 C74.55273106 96.83300743 94.14965334 85.39013916 113.125 70.8125 C115.09833757 69.22682697 117.05815583 67.62408785 119 66 C119.80824219 65.33226562 120.61648438 64.66453125 121.44921875 63.9765625 C127.69873758 58.58441567 133.25822504 52.55970964 138.88134766 46.5324707 C143.2602083 41.83920641 147.6719464 37.18717339 152.1875 32.625 C152.70352783 32.09616211 153.21955566 31.56732422 153.7512207 31.02246094 C156.60806458 28.15760149 159.3351323 25.75092526 163 24 C169.42857143 24.42857143 169.42857143 24.42857143 171 26 C171.45985401 32.2080292 171.45985401 32.2080292 169.875 34.9375 C168 36 168 36 165.31640625 35.72265625 C160.60432767 36.116717 158.45893545 38.38462967 155.0625 41.5 C154.13401245 42.32431519 154.13401245 42.32431519 153.18676758 43.1652832 C149.39272272 46.5819755 145.88476086 50.12164208 142.640625 54.0703125 C139.991393 57.18631395 137.02781032 59.98211086 134.11328125 62.84765625 C132.32494216 64.66905151 130.71866901 66.51135827 129.125 68.5 C117.52705062 82.34064678 99.51649991 92.35013436 83.5625 100.375 C82.90040527 100.70878662 82.23831055 101.04257324 81.55615234 101.38647461 C71.02771929 106.57333503 59.41379466 108.17470728 47.88671875 105.1953125 C45.32967005 104.0126265 43.24355542 102.70269831 41 101 C40.175 100.37996094 39.35 99.75992188 38.5 99.12109375 C26.91882582 89.53484744 20.12651761 76.44235919 14 63 C13.46503906 61.83082031 12.93007812 60.66164063 12.37890625 59.45703125 C4.48376369 40.98034697 -0.74045802 20.15691263 0 0 Z " fill="#830230" transform="translate(185,271)"/>
<path d="M0 0 C2.58455285 1.89533875 2.96275506 2.88826517 4 6 C4.0685495 7.89470816 4.08480372 9.7916834 4.0625 11.6875 C4.05347656 12.68136719 4.04445313 13.67523438 4.03515625 14.69921875 C4.02355469 15.45847656 4.01195312 16.21773437 4 17 C1 13.25 1 13.25 1 11 C-0.43655854 10.91868537 -1.8744483 10.86066441 -3.3125 10.8125 C-4.11300781 10.77769531 -4.91351563 10.74289063 -5.73828125 10.70703125 C-8.59275307 11.07678149 -9.15365776 11.8394699 -11 14 C-12.89624237 17.32045351 -14.41206457 20.83579983 -16 24.3125 C-16.50619873 25.41392334 -17.01239746 26.51534668 -17.53393555 27.65014648 C-24.2319637 42.37468449 -30.29003645 57.38334973 -36.41836548 72.35110474 C-37.18789386 74.22938688 -37.95948729 76.10682444 -38.73324585 77.98336792 C-40.5157766 82.31619589 -42.26083734 86.65503629 -43.91064453 91.0402832 C-44.21169601 91.82157089 -44.5127475 92.60285858 -44.82292175 93.40782166 C-45.37530648 94.84586307 -45.91231379 96.28996041 -46.42964172 97.74098206 C-48.33220524 102.63145115 -50.6631915 104.63173273 -55.25 107.0625 C-58.43446857 108.32739678 -60.57443682 109 -64 109 C-63.67 104.71 -63.34 100.42 -63 96 C-62.34 96.33 -61.68 96.66 -61 97 C-58.5983685 96.22835994 -58.5983685 96.22835994 -56 95.0625 C-51.18983051 93 -51.18983051 93 -49 93 C-48.83056885 92.39599869 -48.6611377 91.79199738 -48.48657227 91.16969299 C-46.66913058 84.8821911 -44.45643156 78.87671566 -41.9375 72.83984375 C-41.54946198 71.89969925 -41.16142395 70.95955475 -40.7616272 69.99092102 C-39.51304584 66.9708882 -38.25700038 63.95403731 -37 60.9375 C-36.13714901 58.85842252 -35.27435626 56.77932086 -34.41162109 54.70019531 C-22.29111436 25.5458807 -22.29111436 25.5458807 -16 12 C-15.58588867 11.09443359 -15.17177734 10.18886719 -14.74511719 9.25585938 C-14.32133789 8.36189453 -13.89755859 7.46792969 -13.4609375 6.546875 C-13.08501465 5.74604492 -12.7090918 4.94521484 -12.32177734 4.12011719 C-9.00602725 -1.19831166 -5.90156999 -1.50221782 0 0 Z " fill="#82032F" transform="translate(142,113)"/>
<path d="M0 0 C-0.61458229 8.0704358 -1.69225335 16.01385781 -3 24 C-7.82798108 25.76259627 -12.5797876 26.76661317 -17.625 27.625 C-18.37523438 27.7590625 -19.12546875 27.893125 -19.8984375 28.03125 C-23.33566034 28.62849794 -26.50045616 29 -30 29 C-29.3593824 26.64586054 -28.67461251 24.31986423 -27.9296875 21.99609375 C-26.95605873 19.00702968 -26.95605873 19.00702968 -26.3203125 15.91015625 C-25.1013061 11.63284617 -23.9919506 8.25305006 -20.07421875 5.78857422 C-13.75521463 2.7013751 -7.07514305 0 0 0 Z " fill="#83042F" transform="translate(122,220)"/>
<path d="M0 0 C0.80308594 -0.02578125 1.60617188 -0.0515625 2.43359375 -0.078125 C5.11169132 0.334646 5.96507015 1.09321774 7.5625 3.25 C7.9375 6.25 7.9375 6.25 7.5625 9.25 C6.0625 11.125 6.0625 11.125 4.5625 12.25 C4.0675 11.755 4.0675 11.755 3.5625 11.25 C-5.16766445 10.22321221 -13.82073346 12.48121172 -22.3125 14.25 C-24.41473124 14.68125166 -26.51746951 15.10968157 -28.62112427 15.53393555 C-30.51404327 15.91664628 -32.40527115 16.30769383 -34.29638672 16.69921875 C-37.4375 17.25 -37.4375 17.25 -41.4375 17.25 C-41.1075 12.96 -40.7775 8.67 -40.4375 4.25 C-40.1075 4.91 -39.7775 5.57 -39.4375 6.25 C-38.76283691 6.10377197 -38.08817383 5.95754395 -37.39306641 5.80688477 C-34.28407061 5.13641613 -31.17332723 4.47441693 -28.0625 3.8125 C-27.00160156 3.58240234 -25.94070312 3.35230469 -24.84765625 3.11523438 C-16.60793796 1.37124492 -8.43285291 0.16616459 0 0 Z " fill="#820230" transform="translate(179.4375,184.75)"/>
<path d="M0 0 C0.33 0 0.66 0 1 0 C0.43312769 8.23297048 -0.5728921 16.30093081 -1.9375 24.4375 C-2.29583719 26.62235251 -2.65391262 28.80724796 -3.01171875 30.9921875 C-3.1823584 32.02569336 -3.35299805 33.05919922 -3.52880859 34.12402344 C-4.39476952 39.40952591 -5.19983536 44.70417348 -6 50 C-8.43407005 50.86524753 -10.87143184 51.71742865 -13.3125 52.5625 C-14.00279297 52.80935547 -14.69308594 53.05621094 -15.40429688 53.31054688 C-20.66015625 55.11328125 -20.66015625 55.11328125 -24 54 C-21.87515715 48.87810806 -19.7426055 43.75951297 -17.60351562 38.64355469 C-16.88014683 36.91067033 -16.1587219 35.17697297 -15.43945312 33.44238281 C-10.71665923 22.05754725 -5.67732693 10.94203522 0 0 Z " fill="#85062E" transform="translate(131,156)"/>
<path d="M0 0 C0.33 0 0.66 0 1 0 C1.86720551 13.3164224 -0.30252179 25.7028607 -2.703125 38.76953125 C-3.83729933 44.95468111 -4.7583463 51.13967206 -5.5625 57.375 C-5.68512207 58.24229736 -5.80774414 59.10959473 -5.93408203 60.00317383 C-6.60210925 64.72909237 -7.12510132 69.42946907 -7.5078125 74.1875 C-8.95152576 88.7845375 -8.95152576 88.7845375 -12.56933594 92.69726562 C-16.37021418 95.45464816 -20.52597316 96.9752083 -24.98632812 98.34423828 C-27.90602376 99.2950509 -30.57485473 100.68269751 -33.3125 102.0625 C-37.61934673 104.12688442 -37.61934673 104.12688442 -41 103 C-41.8125 100.3125 -41.8125 100.3125 -42 97 C-37.74903909 91.22946482 -31.20250339 89.00783738 -24.8125 86.1875 C-23.70712891 85.68541016 -22.60175781 85.18332031 -21.46289062 84.66601562 C-13.30787628 81 -13.30787628 81 -11 81 C-10.95153931 79.87126465 -10.95153931 79.87126465 -10.90209961 78.71972656 C-10.31353571 68.25602737 -8.73291201 58.02812856 -7.04370117 47.69433594 C-6.56127635 44.74251281 -6.08750477 41.78940065 -5.61523438 38.8359375 C-5.30779012 36.92700299 -4.99986409 35.01814599 -4.69140625 33.109375 C-4.55174942 32.24246033 -4.41209259 31.37554565 -4.26820374 30.48236084 C-3.42983412 25.36404967 -2.47900533 20.2822712 -1.41847229 15.20516968 C-0.83036693 12.10610641 -0.57577685 9.020504 -0.375 5.875 C-0.30023438 4.75867188 -0.22546875 3.64234375 -0.1484375 2.4921875 C-0.09945312 1.66976562 -0.05046875 0.84734375 0 0 Z " fill="#810130" transform="translate(76,137)"/>
<path d="M0 0 C3.1875 0.3125 3.1875 0.3125 5.5625 1.875 C7.73205002 5.12932503 7.48201507 7.48380414 7.1875 11.3125 C4.07053979 12.20826193 1.17108099 12.46693389 -2.0625 12.625 C-9.89414858 13.21333813 -17.260507 15.27142081 -24.8125 17.3125 C-26.1325 17.6425 -27.4525 17.9725 -28.8125 18.3125 C-28.1525 14.3525 -27.4925 10.3925 -26.8125 6.3125 C-19.17868419 4.17542917 -11.72466955 2.10371696 -3.8125 1.3125 C-2.8125 0.3125 -2.8125 0.3125 0 0 Z " fill="#830230" transform="translate(457.8125,154.6875)"/>
<path d="M0 0 C0.33 0 0.66 0 1 0 C1.97466578 12.84392905 -0.82949167 25.73448954 -9 36 C-10.32 36 -11.64 36 -13 36 C-14.60546875 34.390625 -14.60546875 34.390625 -16.1875 32.25 C-19.81466297 27.86782671 -23.45461279 25.39639279 -29 24 C-32.41761381 24.10471172 -32.41761381 24.10471172 -35 25 C-34.4375 23.1875 -34.4375 23.1875 -33 21 C-30.68895182 19.94952356 -28.35416349 18.94992562 -26 18 C-24.30659973 16.48465046 -24.30659973 16.48465046 -23 15 C-21.70450101 16.09966775 -20.41373929 17.20491801 -19.125 18.3125 C-18.40570313 18.92738281 -17.68640625 19.54226562 -16.9453125 20.17578125 C-15 22 -15 22 -13 25 C-11.08451389 24.93882476 -11.08451389 24.93882476 -9 24 C-7.26225177 21.41438614 -7.26225177 21.41438614 -5.875 18.25 C-5.37742187 17.20328125 -4.87984375 16.1565625 -4.3671875 15.078125 C-2.08397999 9.93764638 -0.66195166 5.62658909 0 0 Z " fill="#84042F" transform="translate(288,231)"/>
<path d="M0 0 C1.11246094 -0.01933594 2.22492188 -0.03867188 3.37109375 -0.05859375 C7.21875376 0.53951252 8.88167953 1.6476628 11.5625 4.4375 C11.91877284 7.88147075 12.12680248 10.30889505 10.5625 13.4375 C9.5725 13.1075 8.5825 12.7775 7.5625 12.4375 C2.50287842 11.0138413 -2.14103566 10.60242206 -7.1875 12.4375 C-14.20060486 18.67137099 -14.49825876 27.63829258 -15.4375 36.4375 C-15.7675 36.4375 -16.0975 36.4375 -16.4375 36.4375 C-16.85247591 25.14093348 -16.69593404 13.19329424 -10.4375 3.4375 C-7.12979643 0.22686222 -4.53470792 0.00524244 0 0 Z " fill="#82022F" transform="translate(252.4375,225.5625)"/>
<path d="M0 0 C2.31 1.98 4.62 3.96 7 6 C3.97369862 9.22805481 0.79070243 12.01125793 -2.6875 14.75 C-8.0046267 18.93973593 -13.01763207 23.42046182 -18 28 C-19.5625 26.9375 -19.5625 26.9375 -21 25 C-21.07625733 21.60855554 -20.86311363 19.1541676 -18.78369141 16.37353516 C-17.19442265 14.75556629 -15.5422226 13.2790454 -13.8125 11.8125 C-13.24724609 11.30525391 -12.68199219 10.79800781 -12.09960938 10.27539062 C-9.39607386 7.88773211 -6.66707205 5.7200857 -3.63671875 3.76171875 C-0.92648579 2.2656789 -0.92648579 2.2656789 0 0 Z " fill="#82022F" transform="translate(395,181)"/>
<path d="M0 0 C-0.33 3.96 -0.66 7.92 -1 12 C-8.25510812 14.90204325 -15.18861485 16.33962544 -23 16 C-22.38342404 12.40330692 -21.78937518 9.19425651 -20 6 C-17.50739041 4.6401266 -15.32478986 3.64034352 -12.6875 2.6875 C-12.02298828 2.42388672 -11.35847656 2.16027344 -10.67382812 1.88867188 C-6.78441609 0.40754068 -4.25896369 0 0 0 Z " fill="#060200" transform="translate(120,221)"/>
<path d="M0 0 C1.39659943 2.79319885 0.76898677 4.56140754 0.29296875 7.63671875 C0.0309668 9.33924805 0.0309668 9.33924805 -0.23632812 11.07617188 C-0.5215332 12.8637793 -0.5215332 12.8637793 -0.8125 14.6875 C-0.99103516 15.85990234 -1.16957031 17.03230469 -1.35351562 18.24023438 C-2.24794282 23.95875626 -3.21687579 29.48925866 -5 35 C-8.96 35.99 -12.92 36.98 -17 38 C-13.1061268 27.98570376 -9.15262976 18.03172007 -4.5625 8.3125 C-4.22089844 7.58877197 -3.87929687 6.86504395 -3.52734375 6.11938477 C-1.14419181 1.14419181 -1.14419181 1.14419181 0 0 Z " fill="#090301" transform="translate(129,161)"/>
<path d="M0 0 C6.65157735 1.60699873 10.90518544 6.45531786 14.71875 11.8984375 C15.57409296 15.76173656 15.4601534 19.02666418 14.71875 22.8984375 C14.038125 22.1971875 13.3575 21.4959375 12.65625 20.7734375 C12.19605469 20.32355469 11.73585938 19.87367188 11.26171875 19.41015625 C10.20150648 18.37141663 9.16328842 17.30989632 8.14453125 16.23046875 C5.62965301 13.76248801 3.87077645 12.0624801 0.3046875 11.5546875 C-2.1331005 11.55550763 -2.1331005 11.55550763 -4.4609375 11.78515625 C-5.36199219 11.84123047 -5.36199219 11.84123047 -6.28125 11.8984375 C-7.28125 10.8984375 -7.28125 10.8984375 -7.59375 7.5859375 C-7.28125 3.8984375 -7.28125 3.8984375 -5.71875 1.3984375 C-3.28125 -0.1015625 -3.28125 -0.1015625 0 0 Z " fill="#820130" transform="translate(389.28125,146.1015625)"/>
<path d="M0 0 C1.98 0 3.96 0 6 0 C5.39694898 9.81705449 3.92438549 19.43632927 2.3125 29.125 C2.04423201 30.75551408 1.77608644 32.38604831 1.50805664 34.01660156 C-2.57558405 58.75911398 -6.91077197 83.44191305 -12 108 C-14.47717167 104.28424249 -14.30345742 102.40013262 -14 98 C-13.6915918 97.23453857 -13.38318359 96.46907715 -13.06542969 95.68041992 C-11.85080417 92.62465146 -11.27884316 89.72589501 -10.703125 86.48828125 C-10.46964355 85.19019531 -10.23616211 83.89210938 -9.99560547 82.5546875 C-9.74690307 81.1406544 -9.49837261 79.72659106 -9.25 78.3125 C-8.98755799 76.83976955 -8.72469238 75.36711452 -8.46142578 73.89453125 C-7.91219428 70.81647121 -7.36638852 67.73783093 -6.82324219 64.65869141 C-6.15630451 60.87901667 -5.48251172 57.10061398 -4.80563354 53.32270813 C-1.68651538 35.90988033 1.29133681 18.48230553 4 1 C2.68 0.67 1.36 0.34 0 0 Z " fill="#740827" transform="translate(110,257)"/>
<path d="M0 0 C2.375 1.5625 2.375 1.5625 4 4 C4.56783945 7.97487617 4.62340519 10.06489221 2.375 13.4375 C-0.71685231 15.47161336 -2.36367425 15.60605429 -6 15 C-8.375 13.4375 -8.375 13.4375 -10 11 C-10.56783945 7.02512383 -10.62340519 4.93510779 -8.375 1.5625 C-5.28314769 -0.47161336 -3.63632575 -0.60605429 0 0 Z " fill="#DE9000" transform="translate(367,344)"/>
<path d="M0 0 C2.4375 1.8125 2.4375 1.8125 4 5 C4.3163533 8.69251722 4.23299662 12.30441471 4 16 C3.278125 15.175 2.55625 14.35 1.8125 13.5 C-0.71422494 10.84397469 -0.71422494 10.84397469 -3.5625 10.4375 C-7.88023333 11.4339 -9.63394579 14.45091869 -12 18 C-12.35164297 11.52716457 -12.17221678 6.73439187 -9 1 C-5.87139505 -0.56430248 -3.44397075 -0.35627284 0 0 Z " fill="#7D012E" transform="translate(416,129)"/>
<path d="M0 0 C3.1875 0.3125 3.1875 0.3125 5.5625 1.6875 C8.05713042 5.7172876 7.50485888 9.69316514 7.1875 14.3125 C6.1975 13.6525 5.2075 12.9925 4.1875 12.3125 C0.72980809 11.72907647 0.72980809 11.72907647 -2.8125 12.3125 C-5.28458796 14.67082772 -5.28458796 14.67082772 -6.8125 17.3125 C-7.36735582 5.57832698 -7.36735582 5.57832698 -3.8125 1.3125 C-2.8125 0.3125 -2.8125 0.3125 0 0 Z " fill="#80032E" transform="translate(355.8125,129.6875)"/>
<path d="M0 0 C2.375 1.5625 2.375 1.5625 4 4 C4.375 7.625 4.375 7.625 4 11 C3.34 11.66 2.68 12.32 2 13 C1.34 12.67 0.68 12.34 0 12 C-3.37822416 11.85624578 -5.77390955 11.92463652 -9 13 C-10.54586876 9.90826248 -10.29359521 7.40570448 -10 4 C-7.26646839 -0.10029741 -4.80388991 -0.80064832 0 0 Z " fill="#800130" transform="translate(367,333)"/>
<path d="M0 0 C-0.96095506 3.01390452 -1.97731066 6.00654879 -3 9 C-3.29003906 9.92039063 -3.58007812 10.84078125 -3.87890625 11.7890625 C-4.18699219 12.68367187 -4.49507812 13.57828125 -4.8125 14.5 C-5.08707031 15.3353125 -5.36164063 16.170625 -5.64453125 17.03125 C-7 19 -7 19 -10.13671875 19.78125 C-11.08160156 19.8534375 -12.02648437 19.925625 -13 20 C-12.47345713 5.39268159 -12.47345713 5.39268159 -8.93359375 2.046875 C-5.91528798 0.74847059 -3.28970051 0 0 0 Z " fill="#890B2D" transform="translate(86,233)"/>
<path d="M0 0 C3.5 0.625 3.5 0.625 5.5 2.625 C6.86317795 6.71453384 6.28668159 9.40552601 5.5 13.625 C4.51 12.965 3.52 12.305 2.5 11.625 C-1.72472236 11.88904515 -3.69205195 12.52455736 -6.5 15.625 C-6.74139945 11.02052906 -6.93398833 6.90143626 -5.4375 2.5 C-3.5 0.625 -3.5 0.625 0 0 Z " fill="#810130" transform="translate(83.5,117.375)"/>
<path d="M0 0 C0.33 0 0.66 0 1 0 C1.86608115 13.29915726 -0.29556612 25.6692817 -2.6953125 38.71875 C-4.03880543 46.04338866 -5.0863702 53.38435951 -6.01098633 60.7722168 C-6.75054869 66.57631144 -7.7843613 72.27671535 -9 78 C-9.33 78 -9.66 78 -10 78 C-10.18321947 70.71395073 -9.74538301 63.83479478 -8.5390625 56.65234375 C-8.38843353 55.71499893 -8.23780457 54.77765411 -8.08261108 53.81190491 C-7.60477977 50.85239825 -7.11489621 47.89503053 -6.625 44.9375 C-6.30393865 42.95259494 -5.98362046 40.96756952 -5.6640625 38.98242188 C-4.37353019 31.02596241 -3.06453304 23.09323588 -1.41723633 15.20146179 C-0.83011665 12.1036454 -0.57568731 9.01910126 -0.375 5.875 C-0.30023438 4.75867188 -0.22546875 3.64234375 -0.1484375 2.4921875 C-0.09945312 1.66976562 -0.05046875 0.84734375 0 0 Z " fill="#821226" transform="translate(76,137)"/>
<path d="M0 0 C3.1875 0.25 3.1875 0.25 5.5625 1.25 C8.19936327 4.49537018 7.57777373 7.15212584 7.1875 11.25 C6.5275 11.91 5.8675 12.57 5.1875 13.25 C4.8575 12.92 4.5275 12.59 4.1875 12.25 C2.84002916 12.01924918 1.48372435 11.83846937 0.125 11.6875 C-1.174375 11.543125 -2.47375 11.39875 -3.8125 11.25 C-3.83938151 9.60425434 -3.85884123 7.95838587 -3.875 6.3125 C-3.88660156 5.39597656 -3.89820313 4.47945312 -3.91015625 3.53515625 C-3.76530804 0.14570817 -3.42062126 0.30405522 0 0 Z " fill="#830230" transform="translate(423.8125,146.75)"/>
<path d="M0 0 C1.30438359 4.31904612 0.45988766 7.93696012 -0.43359375 12.265625 C-0.59038101 13.05902283 -0.74716827 13.85242065 -0.90870667 14.66986084 C-1.41027278 17.19825338 -1.92371393 19.7240653 -2.4375 22.25 C-2.78008289 23.9659891 -3.12188898 25.68213348 -3.46289062 27.3984375 C-4.29959774 31.60081186 -5.14696134 35.80091166 -6 40 C-8.47717167 36.28424249 -8.30345742 34.40013262 -8 30 C-7.33789738 28.33151496 -6.6708726 26.66497813 -6 25 C-5.61862218 23.27817182 -5.28665836 21.54479333 -5 19.8046875 C-4.835 18.84175781 -4.67 17.87882812 -4.5 16.88671875 C-4.16540437 14.87130291 -3.8320804 12.85567555 -3.5 10.83984375 C-3.335 9.87949219 -3.17 8.91914063 -3 7.9296875 C-2.855625 7.05554199 -2.71125 6.18139648 -2.5625 5.28076172 C-2 3 -2 3 0 0 Z " fill="#80062C" transform="translate(104,325)"/>
<path d="M0 0 C0.125 5.75 0.125 5.75 -1 8 C-5.29 7.67 -9.58 7.34 -14 7 C-5.25 0 -5.25 0 0 0 Z " fill="#88092E" transform="translate(208,228)"/>
<path d="M0 0 C0.17835515 4.54805635 -0.00214565 7.8794254 -2 12 C-3.32 11.67 -4.64 11.34 -6 11 C-6.33 8.69 -6.66 6.38 -7 4 C-1.7826087 0 -1.7826087 0 0 0 Z " fill="#7F042D" transform="translate(62,244)"/>
<path d="M0 0 C0.33 0 0.66 0 1 0 C1.48181362 2.97875968 1.96050857 5.95796749 2.4375 8.9375 C2.57220703 9.76830078 2.70691406 10.59910156 2.84570312 11.45507812 C3.24658266 13.96790841 3.6282432 16.48270328 4 19 C4.12906738 19.8470752 4.25813477 20.69415039 4.39111328 21.56689453 C4.50052246 22.3711084 4.60993164 23.17532227 4.72265625 24.00390625 C4.87553101 25.0858728 4.87553101 25.0858728 5.03149414 26.18969727 C5 28 5 28 3 30 C-0.57446809 9.46808511 -0.57446809 9.46808511 0 0 Z " fill="#7A0929" transform="translate(185,271)"/>
<path d="M0 0 C2.61895048 4.77573323 1.83119431 8.84434881 1 14 C-0.56073255 11.65890118 -1.86373867 9.43666597 -3.125 6.9375 C-3.65480469 5.89916016 -3.65480469 5.89916016 -4.1953125 4.83984375 C-5 3 -5 3 -5 1 C-3 0 -3 0 0 0 Z " fill="#7F062C" transform="translate(428,189)"/>
<path d="M0 0 C0.33 0 0.66 0 1 0 C0.50873071 6.36559573 0.00344253 12.69264693 -1 19 C-1.33 19 -1.66 19 -2 19 C-2.05411124 16.58303128 -2.09372278 14.16728213 -2.125 11.75 C-2.14175781 11.06808594 -2.15851563 10.38617188 -2.17578125 9.68359375 C-2.21213482 5.9391765 -2.07944349 3.17647273 0 0 Z " fill="#831326" transform="translate(131,156)"/>
<path d="M0 0 C0.33 0.66 0.66 1.32 1 2 C0.3125 4.0625 0.3125 4.0625 -1 6 C-3.125 6.75 -3.125 6.75 -5 7 C-5 5.35 -5 3.7 -5 2 C-3.35 1.34 -1.7 0.68 0 0 Z " fill="#130802" transform="translate(80,235)"/>
<path d="M0 0 C1.31625194 2.63250388 0.74813658 3.80179056 0.0625 6.625 C-0.13214844 7.44226563 -0.32679687 8.25953125 -0.52734375 9.1015625 C-0.68332031 9.72804688 -0.83929688 10.35453125 -1 11 C-3.15502531 7.76746204 -3.46856135 6.74849077 -3 3 C-1.5 1.1875 -1.5 1.1875 0 0 Z " fill="#8A1329" transform="translate(99,354)"/>
<path d="M0 0 C1.13732426 3.40401948 0.83989957 5.77456664 0.0625 9.25 C-0.13214844 10.14203125 -0.32679687 11.0340625 -0.52734375 11.953125 C-0.68332031 12.62859375 -0.83929688 13.3040625 -1 14 C-1.33 14 -1.66 14 -2 14 C-2.05410687 12.22950311 -2.09284119 10.45853151 -2.125 8.6875 C-2.14820312 7.70136719 -2.17140625 6.71523437 -2.1953125 5.69921875 C-2 3 -2 3 0 0 Z " fill="#8C1628" transform="translate(68,201)"/>
</svg>
